<svg width="744" height="744" viewBox="0 0 744 744" fill="none" xmlns="http://www.w3.org/2000/svg">
<g clip-path="url(#clip0_499_2145)">
<path d="M753 573.542H-10V573.924H753V573.542Z" fill="#EBEBEB"/>
<path d="M676.547 598.096H626.006V598.477H676.547V598.096Z" fill="#EBEBEB"/>
<path d="M495.441 602.246H482.18V602.628H495.441V602.246Z" fill="#EBEBEB"/>
<path d="M624.481 583.935H595.197V584.316H624.481V583.935Z" fill="#EBEBEB"/>
<path d="M135.963 586.498H70.0547V586.88H135.963V586.498Z" fill="#EBEBEB"/>
<path d="M159.218 586.498H149.559V586.88H159.218V586.498Z" fill="#EBEBEB"/>
<path d="M333.579 592.938H190.623V593.319H333.579V592.938Z" fill="#EBEBEB"/>
<path d="M351.662 505.483H57.0068C54.6985 505.479 52.4861 504.559 50.8553 502.925C49.2245 501.292 48.3086 499.078 48.3086 496.769V82.5672C48.3287 80.2721 49.2535 78.0776 50.8821 76.4604C52.5107 74.8432 54.7116 73.9339 57.0068 73.93H351.662C353.973 73.93 356.189 74.848 357.824 76.4821C359.458 78.1162 360.376 80.3325 360.376 82.6435V496.769C360.376 499.08 359.458 501.297 357.824 502.931C356.189 504.565 353.973 505.483 351.662 505.483ZM57.0068 74.2352C54.7997 74.2392 52.6843 75.1188 51.1251 76.681C49.5658 78.2431 48.6901 80.36 48.6901 82.5672V496.769C48.6901 498.976 49.5658 501.093 51.1251 502.655C52.6843 504.218 54.7997 505.097 57.0068 505.101H351.662C353.871 505.097 355.988 504.218 357.549 502.656C359.111 501.095 359.99 498.978 359.994 496.769V82.5672C359.99 80.3586 359.111 78.2417 357.549 76.68C355.988 75.1184 353.871 74.2392 351.662 74.2352H57.0068Z" fill="#EBEBEB"/>
<path d="M681.751 505.483H387.081C384.771 505.479 382.557 504.559 380.924 502.926C379.291 501.293 378.371 499.079 378.367 496.769V82.5672C378.391 80.2707 379.319 78.0763 380.951 76.4595C382.582 74.8427 384.784 73.9339 387.081 73.93H681.751C684.044 73.9379 686.241 74.849 687.866 76.4658C689.491 78.0826 690.414 80.2747 690.434 82.5672V496.769C690.434 499.075 689.52 501.287 687.893 502.92C686.265 504.553 684.057 505.475 681.751 505.483ZM387.081 74.2352C384.872 74.2392 382.755 75.1184 381.194 76.68C379.632 78.2417 378.753 80.3586 378.749 82.5672V496.769C378.753 498.978 379.632 501.095 381.194 502.656C382.755 504.218 384.872 505.097 387.081 505.101H681.751C683.96 505.097 686.077 504.218 687.638 502.656C689.2 501.095 690.079 498.978 690.083 496.769V82.5672C690.079 80.3586 689.2 78.2417 687.638 76.68C686.077 75.1184 683.96 74.2392 681.751 74.2352H387.081Z" fill="#EBEBEB"/>
<path d="M405.575 159.798H107.15V335.517H405.575V159.798Z" fill="#EBEBEB"/>
<path d="M400.723 174.234H112.004V329.092H400.723V174.234Z" fill="#E0E0E0"/>
<path d="M220.823 190.349H126.135V194.804H220.823V190.349Z" fill="#F0F0F0"/>
<path d="M220.823 199.733H126.135V204.189H220.823V199.733Z" fill="#F0F0F0"/>
<path d="M220.823 209.118H126.135V213.574H220.823V209.118Z" fill="#F0F0F0"/>
<path d="M236.083 218.488H141.395V222.944H236.083V218.488Z" fill="#F0F0F0"/>
<path d="M236.083 227.873H141.395V232.329H236.083V227.873Z" fill="#F0F0F0"/>
<path d="M236.083 237.258H141.395V241.714H236.083V237.258Z" fill="#F0F0F0"/>
<path d="M251.358 246.627H156.67V251.083H251.358V246.627Z" fill="#F0F0F0"/>
<path d="M251.358 256.012H156.67V260.468H251.358V256.012Z" fill="#F0F0F0"/>
<path d="M236.083 265.397H141.395V269.853H236.083V265.397Z" fill="#F0F0F0"/>
<path d="M251.358 274.782H156.67V279.238H251.358V274.782Z" fill="#F0F0F0"/>
<path d="M251.358 284.152H156.67V288.608H251.358V284.152Z" fill="#F0F0F0"/>
<path d="M220.823 293.537H126.135V297.993H220.823V293.537Z" fill="#F0F0F0"/>
<path d="M220.823 302.922H126.135V307.377H220.823V302.922Z" fill="#F0F0F0"/>
<path d="M220.823 312.291H126.135V316.747H220.823V312.291Z" fill="#F0F0F0"/>
<path d="M650.956 401.959H455.994V516.76H650.956V401.959Z" fill="#EBEBEB"/>
<path d="M647.797 411.39H459.168V512.564H647.797V411.39Z" fill="#E0E0E0"/>
<path d="M530.264 421.919H468.4V424.834H530.264V421.919Z" fill="#F0F0F0"/>
<path d="M530.264 428.038H468.4V430.953H530.264V428.038Z" fill="#F0F0F0"/>
<path d="M530.264 434.173H468.4V437.087H530.264V434.173Z" fill="#F0F0F0"/>
<path d="M540.229 440.307H478.365V443.222H540.229V440.307Z" fill="#F0F0F0"/>
<path d="M540.229 446.427H478.365V449.341H540.229V446.427Z" fill="#F0F0F0"/>
<path d="M540.229 452.561H478.365V455.476H540.229V452.561Z" fill="#F0F0F0"/>
<path d="M550.21 458.68H488.346V461.595H550.21V458.68Z" fill="#F0F0F0"/>
<path d="M550.21 464.815H488.346V467.73H550.21V464.815Z" fill="#F0F0F0"/>
<path d="M540.229 470.949H478.365V473.864H540.229V470.949Z" fill="#F0F0F0"/>
<path d="M550.21 477.069H488.346V479.983H550.21V477.069Z" fill="#F0F0F0"/>
<path d="M550.21 483.203H488.346V486.118H550.21V483.203Z" fill="#F0F0F0"/>
<path d="M530.264 489.322H468.4V492.237H530.264V489.322Z" fill="#F0F0F0"/>
<path d="M530.264 495.457H468.4V498.372H530.264V495.457Z" fill="#F0F0F0"/>
<path d="M530.264 501.591H468.4V504.506H530.264V501.591Z" fill="#F0F0F0"/>
<path d="M600.919 267.656H539.055V270.57H600.919V267.656Z" fill="#F0F0F0"/>
<path d="M600.919 273.79H539.055V276.705H600.919V273.79Z" fill="#F0F0F0"/>
<path d="M600.919 279.925H539.055V282.839H600.919V279.925Z" fill="#F0F0F0"/>
<path d="M610.899 286.044H539.055V288.959H610.899V286.044Z" fill="#F0F0F0"/>
<path d="M610.899 292.179H539.055V295.093H610.899V292.179Z" fill="#F0F0F0"/>
<path d="M568.583 170.404H506.719V173.318H568.583V170.404Z" fill="#F0F0F0"/>
<path d="M568.583 176.538H506.719V179.453H568.583V176.538Z" fill="#F0F0F0"/>
<path d="M568.583 182.657H506.719V185.572H568.583V182.657Z" fill="#F0F0F0"/>
<path d="M578.563 188.792H506.719V191.707H578.563V188.792Z" fill="#F0F0F0"/>
<path d="M578.563 194.927H506.719V197.841H578.563V194.927Z" fill="#F0F0F0"/>
<path d="M610.899 298.298H539.055V301.212H610.899V298.298Z" fill="#F0F0F0"/>
<path d="M620.879 304.432H539.055V307.347H620.879V304.432Z" fill="#F0F0F0"/>
<path d="M620.879 310.567H539.055V313.481H620.879V310.567Z" fill="#F0F0F0"/>
<path d="M610.899 316.686H539.055V319.601H610.899V316.686Z" fill="#F0F0F0"/>
<path d="M620.879 322.821H539.055V325.735H620.879V322.821Z" fill="#F0F0F0"/>
<path d="M620.879 328.94H539.055V331.855H620.879V328.94Z" fill="#F0F0F0"/>
<path d="M600.919 335.074H539.055V337.989H600.919V335.074Z" fill="#F0F0F0"/>
<path d="M600.919 341.209H539.055V344.123H600.919V341.209Z" fill="#F0F0F0"/>
<path d="M600.919 347.328H539.055V350.243H600.919V347.328Z" fill="#F0F0F0"/>
<path d="M178.994 399.762H107.15V402.676H178.994V399.762Z" fill="#F0F0F0"/>
<path d="M188.975 405.896H107.15V408.811H188.975V405.896Z" fill="#F0F0F0"/>
<path d="M188.975 412.03H107.15V414.945H188.975V412.03Z" fill="#F0F0F0"/>
<path d="M169.014 418.15H107.15V421.064H169.014V418.15Z" fill="#F0F0F0"/>
<path d="M169.014 424.284H107.15V427.199H169.014V424.284Z" fill="#F0F0F0"/>
<path d="M169.014 430.404H107.15V433.318H169.014V430.404Z" fill="#F0F0F0"/>
<path d="M531.868 267.625H519.553V279.94H531.868V267.625Z" fill="#F0F0F0"/>
<path d="M316.946 461.412H255.082V464.326H316.946V461.412Z" fill="#F0F0F0"/>
<path d="M316.946 467.531H255.082V470.446H316.946V467.531Z" fill="#F0F0F0"/>
<path d="M316.946 473.666H255.082V476.58H316.946V473.666Z" fill="#F0F0F0"/>
<path d="M326.926 479.8H255.082V482.715H326.926V479.8Z" fill="#F0F0F0"/>
<path d="M326.926 485.919H255.082V488.834H326.926V485.919Z" fill="#F0F0F0"/>
<path d="M326.926 492.054H255.082V494.969H326.926V492.054Z" fill="#F0F0F0"/>
<path d="M336.906 498.173H255.082V501.088H336.906V498.173Z" fill="#F0F0F0"/>
<path d="M336.906 504.308H255.082V507.222H336.906V504.308Z" fill="#F0F0F0"/>
<path d="M326.926 510.442H255.082V513.357H326.926V510.442Z" fill="#F0F0F0"/>
<path d="M336.906 516.562H255.082V519.476H336.906V516.562Z" fill="#F0F0F0"/>
<path d="M336.906 522.696H255.082V525.611H336.906V522.696Z" fill="#F0F0F0"/>
<path d="M316.946 528.815H255.082V531.73H316.946V528.815Z" fill="#F0F0F0"/>
<path d="M316.946 534.95H255.082V537.864H316.946V534.95Z" fill="#F0F0F0"/>
<path d="M90.7149 405.072C90.7149 406.116 91.0245 407.137 91.6047 408.005C92.1849 408.874 93.0095 409.55 93.9743 409.95C94.9391 410.35 96.0007 410.454 97.0249 410.25C98.0491 410.047 98.9899 409.544 99.7283 408.805C100.467 408.067 100.97 407.126 101.173 406.102C101.377 405.078 101.273 404.016 100.873 403.051C100.473 402.086 99.7965 401.262 98.9282 400.682C98.0599 400.102 97.0391 399.792 95.9948 399.792C95.3009 399.79 94.6134 399.925 93.9719 400.19C93.3304 400.454 92.7475 400.843 92.2568 401.334C91.7661 401.825 91.3773 402.407 91.1127 403.049C90.848 403.69 90.7129 404.378 90.7149 405.072Z" fill="#F0F0F0"/>
<path d="M240.31 462.495L234.496 472.567H246.124L240.31 462.495Z" fill="#F0F0F0"/>
<path d="M371.499 642.457C534.907 642.457 667.375 634.723 667.375 625.182C667.375 615.642 534.907 607.908 371.499 607.908C208.091 607.908 75.623 615.642 75.623 625.182C75.623 634.723 208.091 642.457 371.499 642.457Z" fill="#F5F5F5"/>
<path d="M497.333 183.985H453.491C449.91 183.985 446.475 185.408 443.942 187.941C441.409 190.473 439.986 193.908 439.986 197.49V235.64C439.986 239.222 441.409 242.657 443.942 245.19C446.475 247.722 449.91 249.145 453.491 249.145H466.295L455.613 270.341L475.451 249.145H497.41C500.968 249.121 504.372 247.694 506.884 245.174C509.396 242.654 510.811 239.244 510.823 235.686V197.536C510.831 195.759 510.488 193.999 509.814 192.355C509.14 190.711 508.147 189.217 506.894 187.958C505.64 186.699 504.151 185.699 502.51 185.018C500.869 184.336 499.11 183.985 497.333 183.985Z" fill="#FF4A4A"/>
<path opacity="0.7" d="M497.333 183.985H453.491C449.91 183.985 446.475 185.408 443.942 187.941C441.409 190.473 439.986 193.908 439.986 197.49V235.64C439.986 239.222 441.409 242.657 443.942 245.19C446.475 247.722 449.91 249.145 453.491 249.145H466.295L455.613 270.341L475.451 249.145H497.41C500.968 249.121 504.372 247.694 506.884 245.174C509.396 242.654 510.811 239.244 510.823 235.686V197.536C510.831 195.759 510.488 193.999 509.814 192.355C509.14 190.711 508.147 189.217 506.894 187.958C505.64 186.699 504.151 185.699 502.51 185.018C500.869 184.336 499.11 183.985 497.333 183.985Z" fill="white"/>
<path d="M490.792 231.789C499.291 223.29 499.291 209.512 490.792 201.014C482.294 192.516 468.516 192.516 460.018 201.014C451.52 209.512 451.52 223.29 460.018 231.789C468.516 240.287 482.294 240.287 490.792 231.789Z" fill="#FF4A4A"/>
<path d="M473.132 226.118C472.842 226.118 472.556 226.056 472.292 225.935C472.029 225.814 471.795 225.637 471.606 225.416L463.061 215.359C462.717 214.955 462.548 214.43 462.591 213.901C462.633 213.371 462.885 212.88 463.29 212.536C463.694 212.192 464.219 212.023 464.749 212.066C465.278 212.109 465.769 212.361 466.113 212.765L473.132 221.021L484.715 207.379C484.885 207.178 485.093 207.013 485.327 206.893C485.561 206.773 485.817 206.701 486.079 206.679C486.341 206.658 486.605 206.689 486.855 206.769C487.105 206.85 487.337 206.979 487.538 207.15C487.738 207.32 487.903 207.528 488.023 207.762C488.143 207.996 488.216 208.252 488.237 208.514C488.258 208.776 488.228 209.04 488.147 209.29C488.066 209.54 487.937 209.772 487.767 209.973L474.674 225.416C474.482 225.637 474.246 225.814 473.98 225.935C473.714 226.056 473.425 226.119 473.132 226.118Z" fill="white"/>
<path d="M574.458 609.388H582.225C583.241 609.388 584.216 609.792 584.934 610.51C585.652 611.228 586.056 612.202 586.056 613.218V622.863H570.582V613.218C570.582 612.711 570.683 612.21 570.878 611.742C571.073 611.274 571.36 610.85 571.72 610.494C572.081 610.137 572.508 609.856 572.978 609.666C573.448 609.477 573.951 609.382 574.458 609.388Z" fill="#263238"/>
<path d="M575.038 614.546C575.038 613.905 572.459 550.011 549.005 483.539C527.503 422.621 483.494 346.947 395.932 332.465L396.939 326.361C436.966 332.999 471.591 352.379 499.837 383.937C522.33 409.055 540.825 441.925 554.773 481.601C578.502 548.943 581.081 613.646 581.096 614.363L575.038 614.546Z" fill="#263238"/>
<path d="M604.978 609.388H612.746C613.761 609.388 614.736 609.792 615.454 610.51C616.172 611.228 616.576 612.203 616.576 613.219V622.863H601.133V613.219C601.133 612.714 601.232 612.215 601.426 611.749C601.619 611.284 601.903 610.861 602.26 610.505C602.617 610.149 603.041 609.867 603.508 609.675C603.974 609.484 604.474 609.386 604.978 609.388Z" fill="#263238"/>
<path opacity="0.2" d="M574.458 609.388H582.225C583.241 609.388 584.216 609.792 584.934 610.51C585.652 611.228 586.056 612.202 586.056 613.218V622.863H570.582V613.218C570.582 612.711 570.683 612.21 570.878 611.742C571.073 611.274 571.36 610.85 571.72 610.494C572.081 610.137 572.508 609.856 572.978 609.666C573.448 609.477 573.951 609.382 574.458 609.388Z" fill="white"/>
<path opacity="0.2" d="M604.978 609.388H612.746C613.761 609.388 614.736 609.792 615.454 610.51C616.172 611.228 616.576 612.203 616.576 613.219V622.863H601.133V613.219C601.133 612.714 601.232 612.215 601.426 611.749C601.619 611.284 601.903 610.861 602.26 610.505C602.617 610.149 603.041 609.867 603.508 609.675C603.974 609.484 604.474 609.386 604.978 609.388Z" fill="white"/>
<path d="M605.801 616.347C604.141 602.073 599.715 588.259 592.769 575.679C577.509 548.516 552.941 533.149 519.75 530.204L520.284 524.1C564.386 527.991 586.97 552.774 598.11 572.932C605.496 586.208 610.164 600.821 611.844 615.92L605.801 616.347Z" fill="#263238"/>
<path d="M140.922 622.863H125.479V613.219C125.479 612.203 125.882 611.228 126.601 610.51C127.319 609.792 128.293 609.388 129.309 609.388H137.076C138.092 609.388 139.066 609.792 139.785 610.51C140.503 611.228 140.907 612.203 140.907 613.219V622.863H140.922Z" fill="#263238"/>
<path d="M130.393 614.439C130.393 613.737 130.85 543.053 179.621 494.221C210.63 463.182 254.06 447.434 308.736 447.434V453.538C237.258 453.538 186.565 480.502 158.074 533.699C145.023 558.695 137.655 586.265 136.497 614.439H130.393Z" fill="#263238"/>
<path opacity="0.2" d="M140.922 622.863H125.479V613.219C125.479 612.203 125.882 611.228 126.601 610.51C127.319 609.792 128.293 609.388 129.309 609.388H137.076C138.092 609.388 139.066 609.792 139.785 610.51C140.503 611.228 140.907 612.203 140.907 613.219V622.863H140.922Z" fill="white"/>
<path d="M326.651 447.754H318.197V453.324H326.651V447.754Z" fill="#263238"/>
<path opacity="0.7" d="M326.651 447.754H318.197V453.324H326.651V447.754Z" fill="white"/>
<path d="M319.723 445.557H304.692C303.538 445.557 302.602 446.493 302.602 447.647V453.431C302.602 454.586 303.538 455.522 304.692 455.522H319.723C320.878 455.522 321.814 454.586 321.814 453.431V447.647C321.814 446.493 320.878 445.557 319.723 445.557Z" fill="#263238"/>
<path opacity="0.2" d="M319.723 445.557H304.692C303.538 445.557 302.602 446.493 302.602 447.647V453.431C302.602 454.586 303.538 455.522 304.692 455.522H319.723C320.878 455.522 321.814 454.586 321.814 453.431V447.647C321.814 446.493 320.878 445.557 319.723 445.557Z" fill="white"/>
<path d="M377.345 331.992H385.799V326.422H377.345V331.992Z" fill="#263238"/>
<path opacity="0.7" d="M377.345 331.992H385.799V326.422H377.345V331.992Z" fill="white"/>
<path d="M384.273 334.189H399.304C400.459 334.189 401.395 333.253 401.395 332.099V326.315C401.395 325.161 400.459 324.225 399.304 324.225H384.273C383.118 324.225 382.182 325.161 382.182 326.315V332.099C382.182 333.253 383.118 334.189 384.273 334.189Z" fill="#263238"/>
<path opacity="0.2" d="M384.273 334.189H399.304C400.459 334.189 401.395 333.253 401.395 332.099V326.315C401.395 325.161 400.459 324.225 399.304 324.225H384.273C383.118 324.225 382.182 325.161 382.182 326.315V332.099C382.182 333.253 383.118 334.189 384.273 334.189Z" fill="white"/>
<path d="M499.288 529.975H507.742V524.405H499.288V529.975Z" fill="#263238"/>
<path opacity="0.7" d="M499.288 529.975H507.742V524.405H499.288V529.975Z" fill="white"/>
<path d="M506.216 532.173H521.247C522.402 532.173 523.338 531.237 523.338 530.082V524.299C523.338 523.144 522.402 522.208 521.247 522.208H506.216C505.062 522.208 504.126 523.144 504.126 524.299V530.082C504.126 531.237 505.062 532.173 506.216 532.173Z" fill="#263238"/>
<path opacity="0.2" d="M506.216 532.173H521.247C522.402 532.173 523.338 531.237 523.338 530.082V524.299C523.338 523.144 522.402 522.208 521.247 522.208H506.216C505.062 522.208 504.126 523.144 504.126 524.299V530.082C504.126 531.237 505.062 532.173 506.216 532.173Z" fill="white"/>
<path d="M236.876 483.051L292.895 469.042C304.105 466.203 315.815 465.961 327.133 468.335C338.451 470.708 349.078 475.634 358.203 482.737C367.328 489.84 374.712 498.933 379.79 509.322C384.868 519.711 387.508 531.123 387.507 542.687V624.541H179.086V556.787C179.088 539.805 184.782 523.313 195.257 509.947C205.733 496.581 220.386 487.111 236.876 483.051Z" fill="#FF4A4A"/>
<path opacity="0.2" d="M236.876 483.051L292.895 469.042C304.105 466.203 315.815 465.961 327.133 468.335C338.451 470.708 349.078 475.634 358.203 482.737C367.328 489.84 374.712 498.933 379.79 509.322C384.868 519.711 387.508 531.123 387.507 542.687V624.541H179.086V556.787C179.088 539.805 184.782 523.313 195.257 509.947C205.733 496.581 220.386 487.111 236.876 483.051Z" fill="white"/>
<path opacity="0.2" d="M387.4 624.541H235.533V542.687C235.533 522.548 243.533 503.234 257.773 488.993C272.014 474.753 291.328 466.753 311.467 466.753C331.605 466.753 350.92 474.753 365.16 488.993C379.4 503.234 387.4 522.548 387.4 542.687V624.541Z" fill="black"/>
<path d="M403.862 345.261L295.627 355.912L311.342 515.615L419.577 504.964L403.862 345.261Z" fill="#263238"/>
<path d="M407.087 362.359L295.799 373.31C293.719 373.515 292.199 375.367 292.404 377.447L292.819 381.669C293.024 383.749 294.876 385.269 296.956 385.065L408.244 374.113C410.324 373.909 411.844 372.057 411.64 369.977L411.224 365.755C411.019 363.675 409.167 362.154 407.087 362.359Z" fill="#263238"/>
<path opacity="0.1" d="M407.087 362.359L295.799 373.31C293.719 373.515 292.199 375.367 292.404 377.447L292.819 381.669C293.024 383.749 294.876 385.269 296.956 385.065L408.244 374.113C410.324 373.909 411.844 372.057 411.64 369.977L411.224 365.755C411.019 363.675 409.167 362.154 407.087 362.359Z" fill="white"/>
<path d="M409.189 383.78L297.901 394.731C295.821 394.936 294.301 396.788 294.505 398.868L294.921 403.09C295.126 405.17 296.978 406.69 299.058 406.486L410.346 395.535C412.426 395.33 413.946 393.478 413.741 391.398L413.326 387.176C413.121 385.096 411.269 383.575 409.189 383.78Z" fill="#263238"/>
<path opacity="0.1" d="M409.189 383.78L297.901 394.731C295.821 394.936 294.301 396.788 294.505 398.868L294.921 403.09C295.126 405.17 296.978 406.69 299.058 406.486L410.346 395.535C412.426 395.33 413.946 393.478 413.741 391.398L413.326 387.176C413.121 385.096 411.269 383.575 409.189 383.78Z" fill="white"/>
<path d="M414.205 406.334L302.38 417.517C300.29 417.726 298.765 419.59 298.974 421.68L299.398 425.922C299.607 428.012 301.471 429.537 303.561 429.328L415.387 418.145C417.477 417.936 419.002 416.073 418.793 413.983L418.368 409.74C418.159 407.65 416.296 406.125 414.205 406.334Z" fill="#263238"/>
<path opacity="0.1" d="M414.205 406.334L302.38 417.517C300.29 417.726 298.765 419.59 298.974 421.68L299.398 425.922C299.607 428.012 301.471 429.537 303.561 429.328L415.387 418.145C417.477 417.936 419.002 416.073 418.793 413.983L418.368 409.74C418.159 407.65 416.296 406.125 414.205 406.334Z" fill="white"/>
<path d="M413.408 426.592L302.12 437.543C300.04 437.747 298.519 439.6 298.724 441.68L299.14 445.902C299.344 447.982 301.196 449.502 303.276 449.297L414.564 438.346C416.644 438.141 418.165 436.289 417.96 434.209L417.544 429.987C417.34 427.907 415.488 426.387 413.408 426.592Z" fill="#263238"/>
<path opacity="0.1" d="M413.408 426.592L302.12 437.543C300.04 437.747 298.519 439.6 298.724 441.68L299.14 445.902C299.344 447.982 301.196 449.502 303.276 449.297L414.564 438.346C416.644 438.141 418.165 436.289 417.96 434.209L417.544 429.987C417.34 427.907 415.488 426.387 413.408 426.592Z" fill="white"/>
<path d="M415.507 447.982L304.219 458.933C302.139 459.138 300.619 460.99 300.824 463.07L301.239 467.292C301.444 469.372 303.296 470.892 305.376 470.688L416.664 459.737C418.744 459.532 420.264 457.68 420.06 455.6L419.644 451.378C419.439 449.298 417.587 447.777 415.507 447.982Z" fill="#263238"/>
<path opacity="0.1" d="M415.507 447.982L304.219 458.933C302.139 459.138 300.619 460.99 300.824 463.07L301.239 467.292C301.444 469.372 303.296 470.892 305.376 470.688L416.664 459.737C418.744 459.532 420.264 457.68 420.06 455.6L419.644 451.378C419.439 449.298 417.587 447.777 415.507 447.982Z" fill="white"/>
<path d="M417.624 469.404L306.337 480.355C304.257 480.559 302.736 482.412 302.941 484.492L303.356 488.714C303.561 490.794 305.413 492.314 307.493 492.109L418.781 481.158C420.861 480.953 422.381 479.101 422.177 477.021L421.761 472.799C421.557 470.719 419.704 469.199 417.624 469.404Z" fill="#263238"/>
<path opacity="0.1" d="M417.624 469.404L306.337 480.355C304.257 480.559 302.736 482.412 302.941 484.492L303.356 488.714C303.561 490.794 305.413 492.314 307.493 492.109L418.781 481.158C420.861 480.953 422.381 479.101 422.177 477.021L421.761 472.799C421.557 470.719 419.704 469.199 417.624 469.404Z" fill="white"/>
<path d="M306.751 504.262H436.812V538.628H296.084V514.944C296.084 512.114 297.207 509.399 299.207 507.396C301.207 505.393 303.92 504.266 306.751 504.262Z" fill="#263238"/>
<path opacity="0.2" d="M306.751 504.262H436.812V538.628H296.084V514.944C296.084 512.114 297.207 509.399 299.207 507.396C301.207 505.393 303.92 504.266 306.751 504.262Z" fill="white"/>
<path d="M362.664 521.399V624.541H235.533V542.687C235.528 535.482 236.556 528.313 238.585 521.399H362.664Z" fill="#FF4A4A"/>
<path d="M497.532 483.051L441.513 469.042C430.315 466.236 418.625 466.019 407.33 468.407C396.036 470.796 385.435 475.727 376.332 482.827C367.229 489.926 359.863 499.007 354.795 509.379C349.728 519.752 347.09 531.142 347.084 542.687V624.541H555.337V556.787C555.332 539.803 549.635 523.312 539.157 509.946C528.678 496.58 514.023 487.11 497.532 483.051Z" fill="#FF4A4A"/>
<path opacity="0.2" d="M497.532 483.051L441.513 469.042C430.315 466.236 418.625 466.019 407.33 468.407C396.036 470.796 385.435 475.727 376.332 482.827C367.229 489.926 359.863 499.007 354.795 509.379C349.728 519.752 347.09 531.142 347.084 542.687V624.541H555.337V556.787C555.332 539.803 549.635 523.312 539.157 509.946C528.678 496.58 514.023 487.11 497.532 483.051Z" fill="white"/>
<path opacity="0.2" d="M479.389 480.853C499.528 480.853 518.842 488.853 533.082 503.094C547.322 517.334 555.323 536.648 555.323 556.787V624.526H403.455V556.787C403.455 536.648 411.455 517.334 425.696 503.094C439.936 488.853 459.25 480.853 479.389 480.853Z" fill="black"/>
<path d="M215.574 555.81H354.196C360.918 555.81 367.365 558.481 372.119 563.234C376.872 567.988 379.542 574.435 379.542 581.157V624.541H190.242V581.142C190.246 574.425 192.916 567.984 197.666 563.234C202.416 558.485 208.857 555.814 215.574 555.81Z" fill="#263238"/>
<path opacity="0.2" d="M215.574 555.81H354.196C360.918 555.81 367.365 558.481 372.119 563.234C376.872 567.988 379.542 574.435 379.542 581.157V624.541H190.242V581.142C190.246 574.425 192.916 567.984 197.666 563.234C202.416 558.485 208.857 555.814 215.574 555.81Z" fill="white"/>
<path opacity="0.2" d="M210.37 564.127H320.502C325.844 564.127 330.967 566.249 334.745 570.027C338.523 573.804 340.645 578.928 340.645 584.27V624.541H190.242V584.27C190.242 578.931 192.362 573.809 196.137 570.032C199.911 566.255 205.03 564.131 210.37 564.127Z" fill="white"/>
<path opacity="0.4" d="M486.469 509.221C462.984 509.221 443.939 530.082 443.939 555.81C443.939 581.539 462.984 602.384 486.469 602.384C509.969 602.384 529.014 581.539 529.014 555.81C529.014 530.082 509.969 509.221 486.469 509.221Z" fill="black"/>
<path d="M484.425 511.389C462.038 511.389 443.879 531.227 443.879 555.81C443.879 580.333 462.038 600.217 484.425 600.217C506.826 600.217 524.971 580.379 524.971 555.81C525.032 531.272 506.887 511.389 484.425 511.389Z" fill="#263238"/>
<path d="M481.951 535.087H491.839C501.545 535.087 509.404 544.365 509.404 555.81C509.404 567.255 501.545 576.518 491.839 576.518H481.951C472.246 576.518 464.387 567.24 464.387 555.81C464.387 544.38 472.215 535.087 481.951 535.087Z" fill="#FF4A4A"/>
<path opacity="0.4" d="M481.951 535.087H491.839C501.545 535.087 509.404 544.365 509.404 555.81C509.404 567.255 501.545 576.518 491.839 576.518H481.951C472.246 576.518 464.387 567.24 464.387 555.81C464.387 544.38 472.215 535.087 481.951 535.087Z" fill="black"/>
<path d="M491.841 576.518C501.55 576.518 509.421 567.247 509.421 555.81C509.421 544.374 501.55 535.103 491.841 535.103C482.132 535.103 474.262 544.374 474.262 555.81C474.262 567.247 482.132 576.518 491.841 576.518Z" fill="#FF4A4A"/>
<path opacity="0.4" d="M491.84 573.237C499.47 573.237 505.879 565.256 505.879 555.81C505.879 546.365 499.439 538.368 491.84 538.368C484.24 538.368 477.801 546.365 477.801 555.81C477.801 565.256 484.225 573.237 491.84 573.237Z" fill="black"/>
<path d="M490.375 571.406C497.196 571.406 502.949 564.249 502.949 555.795C502.949 547.341 497.196 540.169 490.375 540.169C483.554 540.169 477.801 547.326 477.801 555.795C477.801 564.264 483.554 571.406 490.375 571.406Z" fill="#263238"/>
<path opacity="0.4" d="M275.882 594.555C275.882 598.813 272.83 602.185 269.152 602.185C265.474 602.185 262.438 598.752 262.438 594.555C262.438 590.359 265.489 586.925 269.152 586.925C272.814 586.925 275.882 590.313 275.882 594.555Z" fill="black"/>
<path d="M275.88 594.555C275.759 595.481 275.375 596.352 274.772 597.065C274.169 597.777 273.373 598.3 272.481 598.572C271.588 598.844 270.635 598.852 269.738 598.597C268.84 598.341 268.035 597.832 267.42 597.13C266.804 596.429 266.404 595.565 266.267 594.641C266.13 593.718 266.263 592.775 266.648 591.925C267.034 591.075 267.656 590.355 268.441 589.849C269.226 589.344 270.14 589.076 271.073 589.077C272.433 589.175 273.7 589.805 274.6 590.83C275.5 591.855 275.959 593.194 275.88 594.555Z" fill="#FF4A4A"/>
<path opacity="0.4" d="M295.948 594.555C295.948 598.813 292.896 602.185 289.234 602.185C285.572 602.185 282.52 598.752 282.52 594.555C282.52 590.359 285.572 586.925 289.234 586.925C292.896 586.925 295.948 590.313 295.948 594.555Z" fill="black"/>
<path d="M295.949 594.555C295.825 595.477 295.439 596.343 294.837 597.051C294.234 597.759 293.44 598.278 292.55 598.546C291.66 598.814 290.712 598.821 289.819 598.564C288.925 598.307 288.125 597.799 287.513 597.099C286.901 596.4 286.503 595.538 286.368 594.619C286.233 593.699 286.365 592.76 286.75 591.914C287.134 591.067 287.754 590.35 288.536 589.847C289.317 589.344 290.227 589.076 291.157 589.077C292.516 589.175 293.782 589.805 294.679 590.831C295.576 591.857 296.033 593.195 295.949 594.555Z" fill="#FF4A4A"/>
<path opacity="0.4" d="M316.03 594.555C316.03 598.813 312.978 602.185 309.316 602.185C305.654 602.185 302.602 598.752 302.602 594.555C302.602 590.359 305.654 586.925 309.316 586.925C312.978 586.925 316.03 590.313 316.03 594.555Z" fill="black"/>
<path d="M316.029 594.555C315.906 595.477 315.52 596.343 314.917 597.051C314.314 597.759 313.52 598.278 312.631 598.546C311.741 598.814 310.792 598.821 309.899 598.564C309.005 598.307 308.205 597.799 307.593 597.099C306.981 596.4 306.583 595.538 306.448 594.619C306.313 593.699 306.445 592.76 306.83 591.914C307.214 591.067 307.834 590.35 308.616 589.847C309.398 589.344 310.308 589.076 311.237 589.077C312.595 589.179 313.858 589.81 314.755 590.835C315.651 591.86 316.109 593.196 316.029 594.555Z" fill="#FF4A4A"/>
<path opacity="0.4" d="M216.519 586.88H209.697C207.759 586.88 206.188 588.451 206.188 590.389V598.737C206.188 600.675 207.759 602.246 209.697 602.246H216.519C218.457 602.246 220.028 600.675 220.028 598.737V590.389C220.028 588.451 218.457 586.88 216.519 586.88Z" fill="black"/>
<path d="M217.222 588.421H212.079C210.529 588.421 209.271 589.678 209.271 591.229V597.897C209.271 599.448 210.529 600.705 212.079 600.705H217.222C218.773 600.705 220.03 599.448 220.03 597.897V591.229C220.03 589.678 218.773 588.421 217.222 588.421Z" fill="#FF4A4A"/>
<path d="M292.713 335.746H384.715V405.072C384.715 408.565 383.328 411.914 380.858 414.384C378.388 416.854 375.039 418.241 371.546 418.241H292.713V335.746Z" fill="#263238"/>
<path opacity="0.2" d="M292.713 335.746H384.715V405.072C384.715 408.565 383.328 411.914 380.858 414.384C378.388 416.854 375.039 418.241 371.546 418.241H292.713V335.746Z" fill="white"/>
<path d="M328.481 400.189C327.4 400.189 326.329 399.976 325.33 399.561C324.331 399.147 323.424 398.54 322.66 397.774C321.896 397.009 321.29 396.1 320.878 395.101C320.465 394.101 320.254 393.03 320.256 391.948V357.369C320.254 356.288 320.465 355.217 320.878 354.217C321.29 353.217 321.896 352.309 322.66 351.543C323.424 350.778 324.331 350.171 325.33 349.757C326.329 349.342 327.4 349.129 328.481 349.129C330.667 349.129 332.762 349.997 334.308 351.543C335.853 353.088 336.721 355.184 336.721 357.369V391.948C336.721 394.134 335.853 396.23 334.308 397.775C332.762 399.321 330.667 400.189 328.481 400.189Z" fill="#263238"/>
<path d="M421.399 263.566V331.824C421.399 337.259 419.24 342.472 415.396 346.316C411.553 350.159 406.34 352.318 400.905 352.318H348.685C340.78 352.318 320.256 358.727 320.256 366.632V394.1H231V280.901C230.998 273.029 232.547 265.234 235.559 257.961C238.57 250.687 242.985 244.079 248.552 238.512C254.118 232.946 260.727 228.531 268 225.519C275.274 222.507 283.069 220.958 290.941 220.96H378.793C390.093 220.96 400.93 225.449 408.92 233.439C416.91 241.429 421.399 252.266 421.399 263.566Z" fill="#FF4A4A"/>
<path opacity="0.2" d="M421.399 263.566V331.824C421.399 337.259 419.24 342.472 415.396 346.316C411.553 350.159 406.34 352.318 400.905 352.318H348.685C340.78 352.318 320.256 358.727 320.256 366.632V394.1H231V280.901C230.998 273.029 232.547 265.234 235.559 257.961C238.57 250.687 242.985 244.079 248.552 238.512C254.118 232.946 260.727 228.531 268 225.519C275.274 222.507 283.069 220.958 290.941 220.96H378.793C390.093 220.96 400.93 225.449 408.92 233.439C416.91 241.429 421.399 252.266 421.399 263.566Z" fill="white"/>
<path d="M301.121 292.423H291.247C281.542 292.423 273.668 301.701 273.668 313.146C273.668 324.591 281.542 333.854 291.247 333.854H301.121C310.826 333.854 318.7 324.576 318.7 313.146C318.7 301.716 310.826 292.423 301.121 292.423Z" fill="#FF4A4A"/>
<path opacity="0.3" d="M291.247 333.854C300.956 333.854 308.827 324.582 308.827 313.146C308.827 301.709 300.956 292.438 291.247 292.438C281.539 292.438 273.668 301.709 273.668 313.146C273.668 324.582 281.539 333.854 291.247 333.854Z" fill="white"/>
<path opacity="0.4" d="M291.248 330.573C283.618 330.573 277.209 322.592 277.209 313.146C277.209 303.7 283.633 295.704 291.248 295.704C298.863 295.704 305.287 303.685 305.287 313.146C305.287 322.607 298.863 330.573 291.248 330.573Z" fill="black"/>
<path d="M292.713 328.772C285.891 328.772 280.123 321.615 280.123 313.161C280.123 304.707 285.891 297.535 292.713 297.535C299.534 297.535 305.287 304.692 305.287 313.161C305.287 321.63 299.534 328.772 292.713 328.772Z" fill="#263238"/>
<path opacity="0.5" d="M287.571 311.696C285.587 311.696 283.924 309.621 283.924 307.118C283.924 304.615 285.587 302.54 287.571 302.54C289.555 302.54 291.218 304.615 291.218 307.118C291.218 309.621 289.57 311.696 287.571 311.696Z" fill="white"/>
<path d="M246.093 292.423H236.22C226.515 292.423 218.641 301.701 218.641 313.146C218.641 324.591 226.515 333.854 236.22 333.854H246.093C255.799 333.854 263.658 324.576 263.658 313.146C263.658 301.716 255.799 292.423 246.093 292.423Z" fill="#FF4A4A"/>
<path opacity="0.3" d="M236.22 333.854C245.929 333.854 253.8 324.582 253.8 313.146C253.8 301.709 245.929 292.438 236.22 292.438C226.511 292.438 218.641 301.709 218.641 313.146C218.641 324.582 226.511 333.854 236.22 333.854Z" fill="white"/>
<path opacity="0.4" d="M236.22 330.573C228.59 330.573 222.166 322.592 222.166 313.146C222.166 303.7 228.606 295.704 236.22 295.704C243.835 295.704 250.26 303.685 250.26 313.146C250.26 322.607 243.82 330.573 236.22 330.573Z" fill="black"/>
<path d="M237.67 328.772C230.849 328.772 225.096 321.615 225.096 313.161C225.096 304.707 230.849 297.535 237.67 297.535C244.491 297.535 250.259 304.692 250.259 313.161C250.259 321.63 244.491 328.772 237.67 328.772Z" fill="#263238"/>
<path opacity="0.5" d="M232.633 311.696C230.665 311.696 228.986 309.621 228.986 307.118C228.986 304.615 230.665 302.54 232.633 302.54C233.725 302.695 234.723 303.239 235.446 304.072C236.168 304.905 236.566 305.97 236.566 307.072C236.566 308.174 236.168 309.24 235.446 310.072C234.723 310.905 233.725 311.449 232.633 311.604V311.696Z" fill="white"/>
<path d="M250.793 373.164H271.165V328.757H260.376L240.02 373.164H250.793Z" fill="#263238"/>
<path opacity="0.2" d="M250.793 373.164H240.02L260.376 328.757H271.165L250.793 373.164Z" fill="white"/>
<path d="M384.715 402.844V405.24C384.711 417.241 379.941 428.75 371.453 437.234C362.965 445.719 351.455 450.486 339.454 450.486H274.843C262.842 450.486 251.332 445.719 242.844 437.234C234.356 428.75 229.586 417.241 229.582 405.24V386.058H318.838V400.372C318.842 404.167 320.351 407.805 323.035 410.489C325.718 413.172 329.357 414.682 333.152 414.686H372.828C374.386 414.69 375.93 414.386 377.371 413.793C378.812 413.2 380.122 412.329 381.226 411.229C382.33 410.129 383.207 408.823 383.805 407.384C384.404 405.945 384.713 404.402 384.715 402.844Z" fill="#263238"/>
<path opacity="0.2" d="M384.715 402.844V405.24C384.711 417.241 379.941 428.75 371.453 437.234C362.965 445.719 351.455 450.486 339.454 450.486H274.843C262.842 450.486 251.332 445.719 242.844 437.234C234.356 428.75 229.586 417.241 229.582 405.24V386.058H318.838V400.372C318.842 404.167 320.351 407.805 323.035 410.489C325.718 413.172 329.357 414.682 333.152 414.686H372.828C374.386 414.69 375.93 414.386 377.371 413.793C378.812 413.2 380.122 412.329 381.226 411.229C382.33 410.129 383.207 408.823 383.805 407.384C384.404 405.945 384.713 404.402 384.715 402.844Z" fill="white"/>
<path opacity="0.2" d="M246.748 405.484C246.153 405.487 245.565 405.615 245.022 405.86C244.479 406.105 243.994 406.461 243.599 406.906C243.203 407.351 242.905 407.874 242.725 408.441C242.544 409.009 242.485 409.608 242.552 410.199C243.78 421.278 249.053 431.515 257.359 438.948C265.665 446.382 276.422 450.49 287.569 450.486H296.023C284.739 450.488 273.86 446.275 265.521 438.673C257.182 431.07 251.984 420.627 250.945 409.391C250.861 408.332 250.383 407.344 249.606 406.621C248.83 405.898 247.81 405.492 246.748 405.484Z" fill="black"/>
<path opacity="0.2" d="M267.914 405.484C267.319 405.487 266.731 405.615 266.188 405.86C265.646 406.105 265.16 406.461 264.765 406.906C264.369 407.351 264.071 407.874 263.891 408.441C263.71 409.009 263.651 409.608 263.718 410.199C264.946 421.276 270.216 431.51 278.519 438.943C286.823 446.376 297.575 450.486 308.72 450.486H317.174C305.893 450.481 295.02 446.265 286.685 438.664C278.35 431.062 273.153 420.623 272.111 409.391C272.027 408.332 271.549 407.344 270.772 406.621C269.996 405.898 268.976 405.492 267.914 405.484Z" fill="black"/>
<path opacity="0.2" d="M289.096 405.484C288.501 405.487 287.912 405.615 287.37 405.86C286.827 406.105 286.342 406.461 285.946 406.906C285.55 407.351 285.253 407.874 285.072 408.441C284.892 409.009 284.833 409.608 284.9 410.199C286.128 421.276 291.398 431.51 299.701 438.943C308.004 446.376 318.757 450.486 329.901 450.486H338.355C327.075 450.481 316.202 446.265 307.867 438.664C299.532 431.062 294.334 420.623 293.293 409.391C293.209 408.332 292.731 407.344 291.954 406.621C291.177 405.898 290.157 405.492 289.096 405.484Z" fill="black"/>
<path d="M319.433 394.039H229.948C229.256 394.041 228.571 393.906 227.931 393.643C227.292 393.379 226.71 392.991 226.221 392.502C225.732 392.012 225.344 391.431 225.08 390.792C224.816 390.152 224.682 389.466 224.684 388.775C224.682 388.082 224.816 387.396 225.08 386.755C225.344 386.115 225.731 385.532 226.22 385.042C226.709 384.551 227.29 384.162 227.93 383.897C228.57 383.631 229.256 383.495 229.948 383.495H319.433C320.833 383.495 322.176 384.051 323.166 385.041C324.157 386.031 324.713 387.374 324.713 388.775C324.713 389.467 324.576 390.153 324.311 390.793C324.045 391.432 323.656 392.014 323.166 392.503C322.675 392.992 322.093 393.379 321.452 393.643C320.812 393.906 320.126 394.041 319.433 394.039Z" fill="#263238"/>
<path opacity="0.4" d="M324.714 388.775C324.706 390.172 324.147 391.511 323.158 392.499C322.17 393.488 320.831 394.046 319.434 394.055H229.949C228.904 394.054 227.884 393.743 227.016 393.162C226.148 392.58 225.472 391.755 225.073 390.789C224.675 389.824 224.572 388.762 224.777 387.738C224.982 386.714 225.486 385.773 226.226 385.036C226.713 384.546 227.294 384.159 227.933 383.897C228.573 383.635 229.258 383.503 229.949 383.51H319.434C320.831 383.51 322.172 384.064 323.162 385.051C324.151 386.038 324.71 387.377 324.714 388.775Z" fill="white"/>
<path opacity="0.2" d="M324.714 388.775C324.706 390.172 324.147 391.511 323.159 392.499C322.17 393.488 320.832 394.046 319.434 394.054H318.854C317.454 394.054 316.111 393.498 315.121 392.508C314.131 391.518 313.574 390.175 313.574 388.775C313.574 387.374 314.131 386.031 315.121 385.041C316.111 384.051 317.454 383.495 318.854 383.495H319.434C320.127 383.495 320.814 383.631 321.455 383.896C322.095 384.162 322.677 384.551 323.168 385.041C323.658 385.531 324.047 386.113 324.312 386.754C324.577 387.395 324.714 388.081 324.714 388.775Z" fill="black"/>
<path d="M409.65 311.375V336.814C409.65 337.725 409.471 338.627 409.122 339.469C408.772 340.31 408.261 341.075 407.616 341.718C406.971 342.362 406.205 342.872 405.363 343.219C404.521 343.566 403.618 343.744 402.707 343.742H377.299C375.462 343.742 373.7 343.012 372.4 341.713C371.101 340.414 370.371 338.651 370.371 336.814V311.375C370.375 309.541 371.107 307.782 372.406 306.486C373.704 305.191 375.464 304.463 377.299 304.463H402.722C404.557 304.463 406.317 305.191 407.616 306.486C408.915 307.782 409.646 309.541 409.65 311.375Z" fill="#FF4A4A"/>
<path opacity="0.2" d="M409.65 311.376V336.814C409.65 337.725 409.47 338.627 409.121 339.469C408.772 340.31 408.26 341.075 407.615 341.718C406.97 342.362 406.205 342.872 405.362 343.219C404.52 343.566 403.618 343.744 402.707 343.742H385.768C383.93 343.742 382.168 343.012 380.869 341.713C379.57 340.414 378.84 338.651 378.84 336.814V311.376C378.84 310.466 379.019 309.566 379.368 308.727C379.716 307.887 380.226 307.124 380.87 306.482C381.513 305.84 382.277 305.331 383.118 304.985C383.958 304.638 384.859 304.461 385.768 304.463H402.722C404.557 304.463 406.316 305.191 407.615 306.486C408.914 307.782 409.646 309.541 409.65 311.376Z" fill="black"/>
<path d="M404.614 315.114H386.898C386.668 315.116 386.44 315.073 386.227 314.986C386.014 314.9 385.821 314.772 385.658 314.61C385.494 314.448 385.365 314.256 385.276 314.044C385.188 313.832 385.143 313.604 385.143 313.375C385.141 313.144 385.185 312.915 385.272 312.701C385.36 312.487 385.489 312.293 385.652 312.129C385.815 311.966 386.01 311.837 386.224 311.749C386.437 311.662 386.667 311.618 386.898 311.62H404.614C404.844 311.62 405.072 311.665 405.284 311.754C405.496 311.842 405.688 311.972 405.85 312.135C406.012 312.298 406.139 312.491 406.226 312.704C406.313 312.917 406.356 313.145 406.354 313.375C406.354 313.836 406.171 314.279 405.845 314.605C405.518 314.931 405.076 315.114 404.614 315.114Z" fill="#263238"/>
<path d="M404.614 322.271H386.898C386.667 322.273 386.437 322.229 386.224 322.142C386.01 322.054 385.815 321.925 385.652 321.762C385.489 321.598 385.36 321.404 385.272 321.19C385.185 320.976 385.141 320.747 385.143 320.516C385.143 320.287 385.188 320.059 385.276 319.847C385.365 319.635 385.494 319.443 385.658 319.281C385.821 319.119 386.014 318.991 386.227 318.905C386.44 318.818 386.668 318.775 386.898 318.777H404.614C405.076 318.777 405.518 318.96 405.845 319.286C406.171 319.612 406.354 320.055 406.354 320.516C406.356 320.746 406.313 320.974 406.226 321.187C406.139 321.4 406.012 321.593 405.85 321.756C405.688 321.919 405.496 322.049 405.284 322.137C405.072 322.226 404.844 322.271 404.614 322.271Z" fill="#263238"/>
<path d="M404.614 329.428H386.897C386.432 329.428 385.986 329.243 385.657 328.914C385.327 328.585 385.143 328.139 385.143 327.673C385.143 327.444 385.188 327.216 385.276 327.004C385.365 326.792 385.494 326.599 385.658 326.438C385.821 326.276 386.014 326.148 386.227 326.062C386.44 325.975 386.668 325.932 386.897 325.934H404.614C405.076 325.934 405.518 326.117 405.844 326.443C406.171 326.769 406.354 327.212 406.354 327.673C406.354 328.136 406.171 328.58 405.845 328.909C405.52 329.238 405.077 329.424 404.614 329.428Z" fill="#263238"/>
<path d="M404.614 336.585H386.897C386.432 336.585 385.986 336.4 385.657 336.071C385.327 335.742 385.143 335.296 385.143 334.83C385.143 334.601 385.188 334.373 385.276 334.161C385.365 333.949 385.494 333.756 385.658 333.595C385.821 333.433 386.014 333.305 386.227 333.219C386.44 333.132 386.668 333.089 386.897 333.091H404.614C405.076 333.091 405.518 333.274 405.844 333.6C406.171 333.926 406.354 334.369 406.354 334.83C406.354 335.293 406.171 335.737 405.845 336.066C405.52 336.394 405.077 336.581 404.614 336.585Z" fill="#263238"/>
<path d="M427.046 273.058V279.94C427.046 281.438 426.452 282.874 425.393 283.933C424.334 284.991 422.898 285.586 421.4 285.586V269.136C421.4 257.468 416.765 246.278 408.515 238.027C400.264 229.777 389.074 225.141 377.406 225.141H342.506C336.516 225.141 330.584 226.323 325.051 228.617C319.518 230.912 314.491 234.275 310.259 238.514C306.027 242.754 302.672 247.786 300.386 253.323C298.101 258.86 296.93 264.794 296.94 270.784C296.94 273.993 295.665 277.071 293.395 279.341C291.126 281.61 288.048 282.885 284.839 282.885H242.111C239.523 282.881 237.043 281.85 235.214 280.019C233.386 278.188 232.359 275.706 232.359 273.119C232.363 257.224 238.68 241.982 249.921 230.744C261.162 219.506 276.406 213.193 292.301 213.193H367.075C382.963 213.189 398.203 219.491 409.448 230.716C420.693 241.941 427.022 257.17 427.046 273.058Z" fill="#FF4A4A"/>
<path opacity="0.4" d="M403.455 271.211C407.255 271.211 410.475 275.209 410.475 279.925C410.475 284.64 407.255 288.653 403.455 288.653C399.655 288.653 396.436 284.655 396.436 279.925C396.436 275.194 399.655 271.211 403.455 271.211Z" fill="black"/>
<path d="M402.723 272.127C406.126 272.127 409.01 275.698 409.01 279.925C409.01 284.152 406.126 287.738 402.723 287.738C399.32 287.738 396.436 284.167 396.436 279.925C396.436 275.682 399.32 272.127 402.723 272.127Z" fill="#263238"/>
<path opacity="0.4" d="M383.815 271.211C387.614 271.211 390.834 275.209 390.834 279.925C390.834 284.64 387.614 288.653 383.815 288.653C380.015 288.653 376.795 284.655 376.795 279.925C376.795 275.194 380 271.211 383.815 271.211Z" fill="black"/>
<path d="M383.082 272.127C386.485 272.127 389.369 275.698 389.369 279.925C389.369 284.152 386.485 287.738 383.082 287.738C379.679 287.738 376.795 284.167 376.795 279.925C376.795 275.682 379.664 272.127 383.082 272.127Z" fill="#263238"/>
<path opacity="0.4" d="M364.16 271.211C367.975 271.211 371.18 275.209 371.18 279.925C371.18 284.64 367.975 288.653 364.16 288.653C360.345 288.653 357.141 284.655 357.141 279.925C357.141 275.194 360.36 271.211 364.16 271.211Z" fill="black"/>
<path d="M363.428 272.127C366.846 272.127 369.73 275.698 369.73 279.925C369.73 284.152 366.846 287.738 363.428 287.738C360.01 287.738 357.141 284.167 357.141 279.925C357.141 275.682 360.025 272.127 363.428 272.127Z" fill="#263238"/>
<path opacity="0.4" d="M393.627 248.642C397.442 248.642 400.647 252.625 400.647 257.355C400.647 262.086 397.442 266.069 393.627 266.069C389.812 266.069 386.607 262.071 386.607 257.355C386.607 252.64 389.812 248.642 393.627 248.642Z" fill="black"/>
<path d="M392.863 249.542C396.282 249.542 399.166 253.128 399.166 257.355C399.166 261.582 396.282 265.168 392.863 265.168C389.445 265.168 386.576 261.582 386.576 257.355C386.576 253.128 389.491 249.542 392.863 249.542Z" fill="#263238"/>
<path opacity="0.4" d="M373.988 248.642C377.788 248.642 381.008 252.625 381.008 257.355C381.008 262.086 377.788 266.069 373.988 266.069C370.189 266.069 366.969 262.071 366.969 257.355C366.969 252.64 370.189 248.642 373.988 248.642Z" fill="black"/>
<path d="M373.255 249.542C376.658 249.542 379.542 253.128 379.542 257.355C379.542 261.582 376.658 265.168 373.255 265.168C369.852 265.168 366.922 261.628 366.922 257.355C366.922 253.082 369.852 249.542 373.255 249.542Z" fill="#263238"/>
</g>
<defs>
<clipPath id="clip0_499_2145">
<rect width="744" height="744" fill="white"/>
</clipPath>
</defs>
</svg>
