<svg width="500" height="438" viewBox="0 0 500 438" fill="none" xmlns="http://www.w3.org/2000/svg">
<path d="M362.171 395.05C411.661 395.05 451.781 390.219 451.781 384.26C451.781 378.301 411.661 373.47 362.171 373.47C312.68 373.47 272.561 378.301 272.561 384.26C272.561 390.219 312.68 395.05 362.171 395.05Z" fill="#EBEBEB"/>
<path d="M453.01 358.55L402.26 358.79L351.5 358.88L250 359.05L148.5 358.88L97.7402 358.79L46.9902 358.55L97.7402 358.3L148.5 358.21L250 358.05L351.5 358.21L402.26 358.3L453.01 358.55Z" fill="#263238"/>
<path d="M203.81 166.25C245 206.52 301.18 300.07 308.52 314.66C313.52 324.57 261.74 352.04 259.37 344.81C256.37 335.55 203.32 237.36 190.67 182.04C185.13 157.81 195.49 158.12 203.81 166.25Z" fill="#F7A9A0"/>
<path d="M256.76 338C258.69 342.94 265.34 364 269.76 366.53C274.18 369.06 296.95 368.03 308.44 367.79C319.93 367.55 322.12 364.3 321.85 360.35C321.58 356.4 297.45 356.15 297.45 356.15C297.45 356.15 329.82 364.69 338 366C346.18 367.31 364.89 371.66 367.45 364.89C368.61 361.83 363.45 358.89 363.45 358.89C363.45 358.89 371.33 361.01 372.45 357.09C373.78 352.63 367.5 350.32 367.5 350.32C367.5 350.32 372.42 351.21 372.45 347.59C372.54 339.52 341.83 336.19 341.83 336.19C341.83 336.19 365.52 347.12 366.13 340.52C366.99 331.38 318.72 322.39 313.64 318.52C310.311 315.825 307.519 312.528 305.41 308.8L256.76 338Z" fill="#F7A9A0"/>
<path d="M321.701 362.34C321.76 361.784 321.685 361.222 321.483 360.7C321.282 360.178 320.959 359.712 320.541 359.34C319.7 358.597 318.74 358.002 317.701 357.58C315.56 356.711 313.344 356.042 311.081 355.58C306.521 354.58 301.871 353.81 297.221 352.71C301.997 352.538 306.775 352.975 311.441 354.01C313.821 354.504 316.12 355.328 318.271 356.46C319.381 357.043 320.358 357.85 321.141 358.83C321.524 359.32 321.776 359.899 321.874 360.513C321.972 361.127 321.912 361.755 321.701 362.34Z" fill="#263238"/>
<path d="M363.381 358.9C360.051 358.16 356.771 357.29 353.491 356.42C350.211 355.55 346.951 354.61 343.681 353.7L333.921 350.86C330.671 349.92 327.411 348.98 324.121 348.08C327.52 348.376 330.894 348.903 334.221 349.66C337.561 350.35 340.851 351.23 344.131 352.15C347.411 353.07 350.641 354.15 353.851 355.24C357.061 356.33 360.261 357.53 363.381 358.9Z" fill="#263238"/>
<path d="M331.73 339.87C334.859 340.007 337.974 340.372 341.05 340.96C344.134 341.512 347.185 342.23 350.19 343.11C353.199 343.978 356.157 345.013 359.05 346.21C361.95 347.385 364.764 348.762 367.47 350.33C364.47 349.33 361.58 348.33 358.62 347.38C355.66 346.43 352.71 345.5 349.74 344.66C346.77 343.82 343.74 342.98 340.74 342.17C337.74 341.36 334.77 340.63 331.73 339.87Z" fill="#263238"/>
<path d="M336.311 332.09C346.44 332.755 356.254 335.882 364.901 341.2C360.101 339.61 355.441 337.91 350.671 336.43C345.901 334.95 341.151 333.53 336.311 332.09Z" fill="#263238"/>
<path d="M307.46 307.56L246.79 344C246.79 344 196.79 219.59 190.33 187C183.87 154.41 195.63 153.27 214.52 173.34C236.61 196.82 307.46 307.56 307.46 307.56Z" fill="#FF4A4A"/>
<path d="M246.001 328.67C250.561 326.49 254.851 323.67 259.171 321.02C263.491 318.37 267.661 315.81 271.891 313.16C280.411 307.83 289.131 302.66 297.291 296.77C297.323 296.741 297.345 296.701 297.351 296.658C297.357 296.614 297.349 296.57 297.326 296.533C297.304 296.495 297.269 296.466 297.228 296.451C297.187 296.436 297.142 296.436 297.101 296.45C288.021 300.96 279.371 306.45 270.741 311.76C266.421 314.427 262.134 317.157 257.881 319.95C253.688 322.525 249.641 325.333 245.761 328.36C245.601 328.51 245.831 328.76 246.001 328.67Z" fill="#263238"/>
<path d="M246.291 317.1C245.621 317.361 245.042 317.814 244.63 318.403C244.217 318.993 243.988 319.691 243.971 320.41C243.979 320.888 243.865 321.361 243.639 321.783C243.413 322.204 243.084 322.561 242.681 322.82C242.238 323.105 241.728 323.271 241.201 323.3C240.621 323.4 240.021 323.48 239.421 323.64C240.601 323.84 241.791 324.31 243.161 323.78C243.82 323.5 244.382 323.031 244.777 322.434C245.171 321.837 245.382 321.136 245.381 320.42C245.388 319.947 245.516 319.484 245.755 319.076C245.993 318.668 246.333 318.328 246.741 318.09C247.195 317.815 247.711 317.66 248.241 317.64C248.831 317.54 249.431 317.46 250.021 317.31C248.831 317.1 247.701 316.64 246.291 317.1ZM283.621 270.9C283.256 271.231 282.962 271.634 282.758 272.083C282.553 272.531 282.442 273.017 282.431 273.51C282.439 273.987 282.326 274.459 282.102 274.88C281.878 275.302 281.551 275.66 281.151 275.92C280.703 276.204 280.191 276.369 279.661 276.4C279.081 276.5 278.481 276.58 277.881 276.74C279.071 276.94 280.251 277.41 281.621 276.88C282.281 276.601 282.843 276.133 283.238 275.535C283.633 274.937 283.843 274.236 283.841 273.52C283.837 272.969 284.012 272.432 284.341 271.99L283.621 270.9ZM241.291 266.64C240.616 266.905 240.037 267.368 239.628 267.967C239.22 268.566 239.001 269.275 239.001 270C239.007 270.478 238.892 270.95 238.667 271.371C238.441 271.793 238.112 272.15 237.711 272.41C237.267 272.694 236.757 272.859 236.231 272.89C235.641 272.99 235.051 273.07 234.451 273.23C235.631 273.43 236.811 273.9 238.191 273.37C238.85 273.09 239.411 272.622 239.804 272.024C240.197 271.426 240.405 270.726 240.401 270.01C240.412 269.538 240.543 269.077 240.781 268.67C241.019 268.262 241.356 267.922 241.761 267.68C242.216 267.408 242.732 267.253 243.261 267.23C243.861 267.13 244.461 267.05 245.041 266.9C243.831 266.64 242.691 266.18 241.291 266.64ZM241.041 223.64C240.382 223.368 239.657 223.299 238.959 223.441C238.261 223.584 237.621 223.932 237.121 224.44C236.778 224.769 236.356 225.005 235.896 225.126C235.435 225.246 234.952 225.248 234.491 225.13C233.979 225.001 233.51 224.739 233.131 224.37C232.631 224.02 232.131 223.67 231.621 223.37C232.321 224.37 232.801 225.5 234.131 226.15C234.788 226.455 235.523 226.553 236.237 226.431C236.951 226.31 237.612 225.975 238.131 225.47C238.461 225.124 238.875 224.869 239.332 224.729C239.789 224.589 240.274 224.569 240.741 224.67C241.258 224.775 241.735 225.021 242.121 225.38C242.611 225.72 243.121 226.08 243.621 226.38C242.901 225.39 242.401 224.21 241.001 223.63L241.041 223.64ZM218.281 201.32C218 200.665 217.533 200.107 216.937 199.716C216.342 199.325 215.644 199.117 214.931 199.12C214.454 199.115 213.987 198.986 213.575 198.746C213.163 198.506 212.821 198.163 212.581 197.75C212.312 197.296 212.167 196.778 212.161 196.25C212.031 195.65 211.971 195.07 211.801 194.47C211.621 195.65 211.141 196.8 211.621 198.21C211.873 198.881 212.32 199.46 212.905 199.874C213.49 200.287 214.185 200.516 214.901 200.53C215.646 200.522 216.365 200.804 216.905 201.318C217.445 201.832 217.763 202.536 217.791 203.28C217.911 203.88 217.971 204.46 218.131 205.06C218.331 203.9 218.821 202.69 218.281 201.31V201.32ZM298.121 310.38C297.848 309.722 297.383 309.161 296.788 308.768C296.193 308.376 295.494 308.171 294.781 308.18C294.307 308.17 293.842 308.041 293.431 307.803C293.02 307.565 292.676 307.227 292.431 306.82C292.166 306.352 292.019 305.827 292.001 305.29C291.881 304.73 291.821 304.13 291.671 303.53C291.461 304.71 290.981 305.85 291.461 307.25C291.71 307.924 292.158 308.507 292.746 308.922C293.333 309.336 294.032 309.562 294.751 309.57C295.231 309.564 295.705 309.682 296.127 309.911C296.549 310.14 296.905 310.474 297.161 310.88C297.463 311.31 297.636 311.816 297.661 312.34C297.721 312.68 297.771 313.01 297.831 313.34L298.191 313.12C298.457 312.219 298.432 311.257 298.121 310.37V310.38ZM266.641 249C266.367 248.343 265.902 247.782 265.307 247.39C264.712 246.998 264.014 246.793 263.301 246.8C262.826 246.791 262.361 246.662 261.95 246.424C261.539 246.186 261.195 245.847 260.951 245.44C260.677 244.976 260.529 244.449 260.521 243.91C260.401 243.34 260.341 242.75 260.191 242.15C259.981 243.33 259.501 244.47 259.981 245.87C260.23 246.544 260.678 247.127 261.266 247.542C261.853 247.956 262.552 248.182 263.271 248.19C264.016 248.197 264.731 248.487 265.269 249.001C265.808 249.516 266.131 250.216 266.171 250.96C266.281 251.56 266.351 252.16 266.501 252.73C266.701 251.56 267.191 250.38 266.641 249ZM215.251 247.76C214.974 247.104 214.509 246.545 213.915 246.154C213.32 245.762 212.623 245.555 211.911 245.56C211.436 245.554 210.97 245.426 210.558 245.188C210.147 244.95 209.803 244.609 209.561 244.2C209.289 243.739 209.14 243.215 209.131 242.68C209.011 242.11 208.951 241.51 208.801 240.91C208.545 241.815 208.408 242.75 208.391 243.69C208.422 244.013 208.49 244.332 208.591 244.64C208.7 244.951 208.855 245.245 209.051 245.51C209.383 245.95 209.81 246.308 210.3 246.559C210.79 246.811 211.331 246.948 211.881 246.96C212.625 246.966 213.338 247.255 213.876 247.768C214.415 248.28 214.738 248.978 214.781 249.72C214.891 250.32 214.961 250.92 215.111 251.49C215.311 250.33 215.801 249.14 215.251 247.75V247.76ZM265.501 297.67C265.225 297.016 264.762 296.458 264.169 296.066C263.577 295.675 262.881 295.467 262.171 295.47C261.698 295.462 261.234 295.332 260.825 295.094C260.415 294.856 260.073 294.517 259.831 294.11C259.555 293.653 259.4 293.134 259.381 292.6C259.281 292.02 259.201 291.42 259.041 290.83C258.851 292 258.381 293.15 258.851 294.56C259.104 295.232 259.555 295.812 260.144 296.223C260.733 296.633 261.433 296.855 262.151 296.86C262.63 296.863 263.1 296.984 263.521 297.212C263.941 297.441 264.299 297.77 264.561 298.17C264.855 298.608 265.015 299.122 265.021 299.65C265.161 300.23 265.221 300.81 265.371 301.41C265.581 300.24 266.061 299.05 265.501 297.66V297.67ZM191.001 177.23C190.309 176.904 189.526 176.823 188.781 177C188.781 177.44 188.871 177.88 188.921 178.34C189.469 178.141 190.064 178.107 190.631 178.24C191.144 178.376 191.615 178.637 192.001 179C192.491 179.33 192.951 179.71 193.481 180C192.821 179 192.341 177.9 191.001 177.23Z" fill="white"/>
<path opacity="0.1" d="M272.55 328.51L246.79 344C246.79 344 196.79 219.59 190.33 187C187.2 171.23 188.33 162.82 192.5 160.63L272.55 328.51Z" fill="black"/>
<path d="M221.11 358.75H60.9996C58.6696 356 89.5296 210.2 154.86 164.35C175.6 149.8 202.17 155.88 206.6 173.78C225.49 250.2 223.24 356.3 221.11 358.75Z" fill="#FF4A4A"/>
<path d="M162.879 194.66C162.208 194.917 161.629 195.368 161.216 195.956C160.802 196.544 160.574 197.242 160.559 197.96C160.57 198.439 160.457 198.912 160.231 199.335C160.005 199.757 159.674 200.113 159.269 200.37C158.827 200.657 158.316 200.823 157.789 200.85C157.209 200.96 156.609 201.03 156.009 201.2C157.189 201.39 158.379 201.87 159.749 201.33C160.41 201.057 160.976 200.596 161.376 200.004C161.776 199.412 161.993 198.715 161.999 198C162.005 197.527 162.133 197.064 162.372 196.655C162.61 196.247 162.95 195.907 163.359 195.67C163.808 195.392 164.322 195.236 164.849 195.22C165.449 195.11 166.049 195.04 166.639 194.89C165.419 194.66 164.289 194.19 162.879 194.66ZM151.429 272.24C150.76 272.49 150.181 272.936 149.767 273.519C149.353 274.102 149.124 274.795 149.109 275.51C149.12 275.989 149.009 276.464 148.787 276.888C148.565 277.313 148.239 277.675 147.839 277.94C147.391 278.224 146.879 278.389 146.349 278.42C145.759 278.52 145.179 278.6 144.579 278.76C145.749 278.95 146.929 279.43 148.319 278.89C148.972 278.607 149.527 278.138 149.916 277.543C150.305 276.948 150.512 276.251 150.509 275.54C150.524 275.068 150.656 274.607 150.896 274.199C151.135 273.792 151.474 273.452 151.879 273.21C152.335 272.932 152.856 272.78 153.389 272.77C153.989 272.66 154.559 272.58 155.159 272.43C153.999 272.24 152.839 271.76 151.429 272.24ZM221.199 345.51C220.758 345.806 220.241 345.973 219.709 345.99C219.119 346.11 218.539 346.17 217.939 346.34C219.109 346.53 220.289 347.02 221.679 346.49C221.869 346.417 222.05 346.323 222.219 346.21C222.219 345.55 222.269 344.86 222.289 344.15C222.076 344.705 221.695 345.181 221.199 345.51ZM123.669 331.16C122.994 331.405 122.41 331.85 121.996 332.437C121.581 333.023 121.355 333.722 121.349 334.44C121.356 334.918 121.242 335.39 121.016 335.812C120.79 336.233 120.461 336.591 120.059 336.85C119.62 337.145 119.108 337.315 118.579 337.34C117.989 337.45 117.399 337.52 116.809 337.69C117.959 337.88 119.149 338.36 120.539 337.82C121.195 337.54 121.754 337.073 122.145 336.477C122.537 335.881 122.743 335.183 122.739 334.47C122.754 333.996 122.885 333.534 123.123 333.123C123.36 332.713 123.696 332.368 124.099 332.12C124.563 331.847 125.091 331.703 125.629 331.7C126.209 331.57 126.789 331.51 127.379 331.36C126.209 331.16 125.069 330.67 123.669 331.16ZM195.049 216.43C194.376 216.68 193.794 217.128 193.38 217.716C192.966 218.303 192.739 219.002 192.729 219.72C192.74 220.199 192.627 220.672 192.401 221.095C192.175 221.517 191.844 221.873 191.439 222.13C191.006 222.422 190.501 222.592 189.979 222.62C189.379 222.72 188.779 222.8 188.199 222.95C189.359 223.16 190.549 223.64 191.919 223.08C192.578 222.808 193.141 222.346 193.537 221.753C193.932 221.16 194.142 220.463 194.139 219.75C194.142 219.274 194.269 218.807 194.508 218.395C194.746 217.983 195.088 217.64 195.499 217.4C195.96 217.147 196.474 217.01 196.999 217C197.579 216.88 198.179 216.82 198.759 216.66C197.589 216.43 196.459 216 195.049 216.43ZM71.7895 334.22C71.1159 334.47 70.5338 334.918 70.1198 335.506C69.7057 336.093 69.479 336.792 69.4695 337.51C69.4773 337.988 69.363 338.461 69.1373 338.882C68.9115 339.304 68.5818 339.661 68.1795 339.92C67.7369 340.207 67.2264 340.373 66.6994 340.4C66.1194 340.52 65.5195 340.58 64.9395 340.74C66.0895 340.94 67.2695 341.43 68.6595 340.89C69.3153 340.61 69.874 340.143 70.2654 339.547C70.6567 338.951 70.8634 338.253 70.8595 337.54C70.8746 337.066 71.0067 336.604 71.244 336.194C71.4813 335.784 71.8164 335.439 72.2195 335.19C72.6825 334.914 73.2104 334.766 73.7495 334.76C74.3295 334.64 74.9194 334.56 75.5194 334.41C74.3294 334.22 73.1995 333.76 71.7895 334.22ZM96.4395 272.22C95.7659 272.47 95.1838 272.918 94.7698 273.506C94.3557 274.093 94.129 274.792 94.1195 275.51C94.1273 275.988 94.013 276.461 93.7872 276.882C93.5615 277.304 93.2318 277.661 92.8295 277.92C92.3869 278.207 91.8764 278.373 91.3494 278.4C90.7694 278.52 90.1694 278.58 89.5894 278.74C90.7394 278.94 91.9194 279.43 93.3094 278.89C93.9653 278.61 94.524 278.143 94.9154 277.547C95.3067 276.951 95.5134 276.253 95.5095 275.54C95.5237 275.066 95.6554 274.604 95.8928 274.193C96.1302 273.783 96.4658 273.438 96.8695 273.19C97.3325 272.914 97.8604 272.766 98.3995 272.76C98.9795 272.64 99.5694 272.56 100.169 272.41C98.9994 272.23 97.8495 271.76 96.4395 272.23V272.22ZM215.819 293.06C215.146 293.31 214.564 293.758 214.15 294.346C213.736 294.933 213.509 295.632 213.499 296.35C213.507 296.828 213.393 297.301 213.167 297.722C212.942 298.144 212.612 298.501 212.209 298.76C211.767 299.047 211.256 299.213 210.729 299.24C210.149 299.36 209.549 299.42 208.969 299.58C210.119 299.78 211.299 300.27 212.689 299.73C213.345 299.45 213.904 298.983 214.295 298.387C214.687 297.791 214.893 297.093 214.889 296.38C214.904 295.906 215.035 295.444 215.273 295.033C215.51 294.623 215.846 294.278 216.249 294.03C216.712 293.754 217.24 293.606 217.779 293.6C218.359 293.48 218.949 293.4 219.549 293.25C218.359 293.07 217.229 292.6 215.819 293.07V293.06ZM129.919 252.36C129.26 252.089 128.534 252.022 127.836 252.166C127.137 252.31 126.498 252.66 125.999 253.17C125.653 253.497 125.229 253.732 124.768 253.853C124.306 253.973 123.822 253.976 123.359 253.86C122.846 253.728 122.377 253.462 121.999 253.09C121.509 252.75 120.999 252.39 120.489 252.09C121.189 253.09 121.669 254.21 122.999 254.87C123.657 255.175 124.393 255.272 125.107 255.149C125.822 255.026 126.482 254.688 126.999 254.18C127.332 253.834 127.747 253.58 128.206 253.442C128.665 253.303 129.152 253.286 129.619 253.39C130.132 253.493 130.606 253.736 130.989 254.09C131.489 254.44 131.989 254.8 132.489 255.09C131.769 254.14 131.279 253 129.919 252.37V252.36ZM194.579 327.36C193.917 327.098 193.192 327.038 192.495 327.185C191.797 327.333 191.159 327.682 190.659 328.19C190.315 328.515 189.895 328.747 189.437 328.866C188.979 328.985 188.498 328.986 188.039 328.87C187.517 328.751 187.039 328.488 186.659 328.11C186.169 327.78 185.659 327.41 185.159 327.11C185.849 328.11 186.349 329.22 187.659 329.88C188.318 330.183 189.052 330.28 189.767 330.157C190.481 330.033 191.141 329.696 191.659 329.19C191.993 328.846 192.409 328.594 192.867 328.457C193.326 328.321 193.813 328.304 194.279 328.41C194.796 328.501 195.273 328.745 195.649 329.11C196.159 329.44 196.649 329.82 197.149 330.11C196.449 329.18 195.939 328 194.579 327.4V327.36ZM192.579 263.57C191.915 263.306 191.188 263.241 190.488 263.385C189.788 263.529 189.145 263.875 188.639 264.38C188.298 264.709 187.878 264.945 187.419 265.066C186.961 265.187 186.479 265.188 186.019 265.07C185.506 264.936 185.035 264.675 184.649 264.31C184.149 263.98 183.649 263.6 183.149 263.31C183.849 264.31 184.329 265.42 185.649 266.08C186.307 266.388 187.043 266.486 187.758 266.363C188.473 266.24 189.133 265.9 189.649 265.39C189.981 265.05 190.393 264.799 190.848 264.661C191.303 264.523 191.785 264.502 192.249 264.6C192.773 264.708 193.257 264.957 193.649 265.32C194.139 265.65 194.649 266.02 195.139 266.32C194.399 265.39 193.909 264.21 192.549 263.61L192.579 263.57ZM97.1694 352.22C96.5099 351.948 95.784 351.88 95.0853 352.024C94.3865 352.168 93.7471 352.519 93.2495 353.03C92.9058 353.356 92.4853 353.589 92.0271 353.708C91.5689 353.827 91.088 353.827 90.6294 353.71C90.1135 353.582 89.6407 353.32 89.2595 352.95C88.7495 352.61 88.2595 352.25 87.7595 351.95C88.4495 352.95 88.9295 354.08 90.2595 354.74C90.9115 355.032 91.6362 355.123 92.3401 355C93.0441 354.877 93.6951 354.546 94.2094 354.05C94.5437 353.708 94.9594 353.455 95.4176 353.317C95.8758 353.179 96.3616 353.159 96.8295 353.26C97.3505 353.355 97.8332 353.598 98.2195 353.96C98.7295 354.3 99.2195 354.66 99.7195 354.96C98.9995 354 98.5294 352.8 97.1694 352.22ZM103.439 229.66C103.279 229.96 103.129 230.26 102.979 230.57C103.434 230.688 103.852 230.914 104.199 231.23C104.709 231.58 105.199 231.94 105.689 232.23C105.169 231.197 104.395 230.313 103.439 229.66ZM154.219 315.66C153.56 315.389 152.834 315.322 152.136 315.466C151.437 315.61 150.798 315.96 150.299 316.47C149.956 316.796 149.536 317.03 149.078 317.15C148.62 317.271 148.139 317.274 147.679 317.16C147.162 317.029 146.687 316.767 146.299 316.4C145.789 316.05 145.299 315.69 144.809 315.4C145.489 316.4 145.969 317.52 147.299 318.18C147.951 318.476 148.676 318.569 149.381 318.446C150.086 318.323 150.737 317.99 151.249 317.49C151.778 316.966 152.488 316.665 153.232 316.649C153.976 316.632 154.698 316.901 155.249 317.4C155.759 317.75 156.249 318.11 156.749 318.4C156.069 317.4 155.579 316.22 154.219 315.63V315.66ZM158.449 165.51C158.245 165.03 157.936 164.601 157.545 164.255C157.154 163.909 156.691 163.654 156.189 163.51C155.749 163.79 155.299 164.09 154.859 164.4L154.469 164.68C154.67 164.72 154.875 164.74 155.079 164.74C155.555 164.735 156.024 164.849 156.443 165.073C156.863 165.296 157.219 165.622 157.479 166.02C157.779 166.46 157.945 166.978 157.959 167.51C158.089 168.09 158.149 168.69 158.299 169.27C158.499 168.05 158.999 166.87 158.449 165.48V165.51ZM123.679 297.66C123.395 297.007 122.927 296.451 122.332 296.061C121.737 295.67 121.041 295.461 120.329 295.46C119.858 295.449 119.397 295.318 118.989 295.08C118.582 294.843 118.241 294.505 117.999 294.1C117.723 293.643 117.568 293.123 117.549 292.59C117.449 292.01 117.369 291.41 117.219 290.82C117.029 291.99 116.549 293.14 117.029 294.55C117.28 295.22 117.727 295.798 118.313 296.209C118.898 296.619 119.594 296.843 120.309 296.85C120.79 296.851 121.262 296.971 121.685 297.2C122.107 297.428 122.466 297.758 122.729 298.16C123.017 298.603 123.182 299.113 123.209 299.64C123.309 300.22 123.389 300.8 123.549 301.4C123.739 300.24 124.219 299.05 123.679 297.66ZM132.369 219.6C132.091 218.943 131.624 218.384 131.028 217.992C130.432 217.601 129.733 217.395 129.019 217.4C128.545 217.395 128.08 217.267 127.67 217.029C127.26 216.791 126.918 216.45 126.679 216.04C126.405 215.584 126.256 215.063 126.249 214.53C126.129 213.95 126.069 213.35 125.899 212.75C125.709 213.95 125.229 215.08 125.709 216.49C125.961 217.163 126.409 217.744 126.996 218.158C127.583 218.572 128.281 218.799 128.999 218.81C129.477 218.802 129.948 218.915 130.37 219.139C130.791 219.363 131.149 219.69 131.409 220.09C131.699 220.528 131.864 221.036 131.889 221.56C132.009 222.16 132.069 222.76 132.229 223.34C132.429 222.19 132.919 221 132.369 219.6ZM211.439 196.36C211.359 196.979 211.42 197.608 211.619 198.2C211.689 198.402 211.779 198.597 211.889 198.78C211.749 198 211.599 197.16 211.439 196.36ZM166.369 239.19C166.087 238.533 165.616 237.974 165.016 237.584C164.417 237.195 163.715 236.991 162.999 237C162.523 236.988 162.057 236.855 161.646 236.614C161.235 236.373 160.892 236.03 160.649 235.62C160.383 235.165 160.242 234.647 160.239 234.12C160.099 233.53 160.039 232.94 159.879 232.34C159.699 233.53 159.219 234.68 159.699 236.08C159.946 236.752 160.391 237.333 160.974 237.748C161.558 238.162 162.254 238.389 162.969 238.4C163.446 238.393 163.918 238.507 164.339 238.73C164.76 238.954 165.118 239.281 165.379 239.68C165.679 240.117 165.846 240.631 165.859 241.16C165.979 241.76 166.039 242.34 166.209 242.94C166.409 241.78 166.899 240.56 166.369 239.19ZM215.249 247.75C214.973 247.094 214.508 246.535 213.913 246.144C213.319 245.752 212.621 245.545 211.909 245.55C211.434 245.544 210.968 245.416 210.556 245.178C210.145 244.939 209.801 244.599 209.559 244.19C209.287 243.729 209.139 243.205 209.129 242.67C209.009 242.1 208.949 241.5 208.799 240.9C208.589 242.08 208.109 243.22 208.589 244.63C208.841 245.303 209.289 245.884 209.876 246.298C210.463 246.712 211.161 246.939 211.879 246.95C212.623 246.956 213.336 247.245 213.874 247.757C214.413 248.27 214.736 248.968 214.779 249.71C214.889 250.31 214.959 250.91 215.109 251.48C215.309 250.33 215.799 249.14 215.249 247.75ZM159.309 357.12C159.035 356.463 158.57 355.902 157.975 355.51C157.38 355.118 156.682 354.913 155.969 354.92C155.497 354.908 155.035 354.776 154.627 354.536C154.22 354.296 153.88 353.957 153.639 353.55C153.363 353.093 153.208 352.573 153.189 352.04C153.089 351.46 153.009 350.86 152.849 350.28C152.649 351.44 152.189 352.6 152.649 354C152.905 354.673 153.357 355.254 153.948 355.666C154.538 356.078 155.239 356.303 155.959 356.31C156.437 356.312 156.907 356.432 157.327 356.659C157.747 356.886 158.105 357.212 158.369 357.61C158.596 357.952 158.74 358.343 158.789 358.75H159.559C159.606 358.195 159.52 357.636 159.309 357.12ZM94.6195 320C94.3448 319.343 93.8803 318.782 93.2853 318.39C92.6903 317.998 91.9919 317.793 91.2794 317.8C90.8159 317.782 90.3643 317.649 89.9659 317.411C89.5675 317.173 89.2352 316.839 88.9995 316.44C88.7176 315.986 88.5622 315.464 88.5495 314.93C88.4395 314.35 88.3694 313.75 88.2094 313.17C88.0094 314.33 87.5495 315.49 88.0095 316.89C88.2637 317.564 88.7159 318.145 89.3066 318.558C89.8974 318.97 90.5991 319.194 91.3195 319.2C91.797 319.202 92.2666 319.322 92.6869 319.549C93.1072 319.776 93.4653 320.102 93.7295 320.5C94.0166 320.941 94.1758 321.454 94.1895 321.98C94.3295 322.56 94.3894 323.15 94.5294 323.75C94.6894 322.58 95.1695 321.4 94.6195 320ZM178.889 297.65C178.612 296.995 178.146 296.437 177.552 296.045C176.958 295.654 176.261 295.447 175.549 295.45C175.078 295.44 174.616 295.31 174.208 295.072C173.801 294.834 173.46 294.496 173.219 294.09C172.938 293.636 172.782 293.114 172.769 292.58C172.659 292 172.589 291.4 172.429 290.81C172.229 291.98 171.769 293.13 172.229 294.54C172.484 295.213 172.937 295.793 173.528 296.204C174.118 296.614 174.82 296.836 175.539 296.84C176.018 296.843 176.489 296.963 176.909 297.192C177.33 297.421 177.687 297.75 177.949 298.15C178.239 298.59 178.399 299.103 178.409 299.63C178.549 300.21 178.609 300.79 178.749 301.39C178.999 300.24 179.439 299.05 178.889 297.66V297.65ZM190.999 177.23C190.342 176.925 189.608 176.827 188.894 176.949C188.18 177.07 187.519 177.405 186.999 177.91C186.477 178.443 185.768 178.753 185.022 178.773C184.275 178.794 183.55 178.524 182.999 178.02C182.499 177.68 181.999 177.3 181.489 177.02C182.179 178.02 182.689 179.16 184.049 179.76C184.709 180.029 185.435 180.096 186.133 179.952C186.831 179.808 187.47 179.459 187.969 178.95C188.311 178.621 188.731 178.385 189.19 178.264C189.648 178.143 190.13 178.142 190.589 178.26C191.114 178.384 191.599 178.638 191.999 179C192.489 179.33 192.949 179.71 193.479 180C192.819 179 192.339 177.9 190.999 177.23Z" fill="white"/>
<path d="M196 189.67C187.3 189.67 176.05 173.86 172.81 162.38C172.6 161.59 181.96 134.29 183.25 128.69C183.51 127.53 216.47 145.34 216.47 145.34C216.47 145.34 210.3 156.28 208.11 166.06C207.93 166.88 204.41 189.62 196 189.67Z" fill="#F7A9A0"/>
<path d="M216.471 145.33C216.471 145.33 210.301 156.28 208.101 166.06C208.101 166.26 207.831 167.68 207.401 169.73C191.041 164.33 182.761 151.62 178.881 142.96C180.881 136.77 182.731 130.96 183.251 128.69C183.521 127.54 216.471 145.33 216.471 145.33Z" fill="#263238"/>
<path d="M236.601 85.5801C236.601 85.5801 246.251 93.9701 244.511 106.04C242.771 118.11 236.181 129.18 235.001 129.43C233.821 129.68 236.601 85.5801 236.601 85.5801Z" fill="#263238"/>
<path d="M187.9 85.34C179.9 96.07 173.9 133.13 179.68 143.94C188.1 159.62 208.07 167.94 222.97 156.45C237.41 145.29 244.44 96.86 237.37 86.39C227 71 199.69 69.49 187.9 85.34Z" fill="#F7A9A0"/>
<path d="M227.121 122.42C227.121 122.33 227.281 122.59 227.261 122.69C226.541 125.15 226.141 128.09 228.181 129.49C228.241 129.49 228.181 129.65 228.121 129.62C225.481 128.54 226.051 124.64 227.121 122.42Z" fill="#263238"/>
<path d="M230 120.4C234.06 121.11 232.33 129.2 228.57 128.53C224.81 127.86 226.59 119.8 230 120.4Z" fill="#263238"/>
<path d="M205 141.19C205.42 141.93 205.77 142.9 206.64 143.24C207.558 143.488 208.519 143.543 209.46 143.4C209.479 143.397 209.5 143.4 209.517 143.41C209.535 143.419 209.549 143.434 209.557 143.453C209.565 143.471 209.567 143.492 209.562 143.511C209.557 143.531 209.545 143.548 209.53 143.56C209.037 143.948 208.448 144.194 207.826 144.272C207.204 144.349 206.572 144.255 206 144C205.538 143.722 205.169 143.313 204.94 142.825C204.71 142.338 204.63 141.793 204.71 141.26C204.69 141.07 204.89 141.08 205 141.19Z" fill="#263238"/>
<path d="M220.62 133.11C220.62 133.11 220.271 136.95 219.851 138.71C219.851 138.87 214.92 137.28 209.36 137.81C208.53 137.89 208.69 137.24 209.68 136.92C211.68 136.29 214.13 135.77 218.68 136.83C218.92 136.37 219.131 130.9 219.411 130.95C220.746 131.39 222.017 132.006 223.19 132.78C224.19 124.78 223.86 116.72 224.95 108.78C224.962 108.724 224.993 108.673 225.037 108.636C225.082 108.6 225.138 108.58 225.196 108.58C225.253 108.58 225.309 108.6 225.354 108.636C225.398 108.673 225.429 108.724 225.441 108.78C226.361 117.22 225.441 126.44 224.631 134.71C224.561 135.74 221.26 133.57 220.62 133.11Z" fill="#263238"/>
<path d="M214.05 114.68C212.91 114.83 211.84 114.77 210.71 114.81C209.42 114.81 208.41 115.01 207.27 114.29C206.982 114.056 206.776 113.735 206.685 113.374C206.593 113.014 206.619 112.634 206.76 112.29C207.5 110.83 209.06 110.4 210.6 110.29C212.15 110.127 213.705 110.548 214.96 111.47C215.226 111.699 215.42 111.999 215.521 112.335C215.622 112.67 215.624 113.028 215.529 113.365C215.433 113.702 215.243 114.005 214.981 114.238C214.72 114.471 214.397 114.624 214.05 114.68Z" fill="#263238"/>
<path d="M234.411 110.61C233.423 110.094 232.464 109.523 231.541 108.9C230.451 108.23 229.541 107.81 228.941 106.6C228.816 106.237 228.817 105.844 228.942 105.481C229.067 105.119 229.309 104.809 229.631 104.6C231.041 103.79 232.631 104.27 233.931 105.02C235.316 105.735 236.385 106.94 236.931 108.4C237.038 108.739 237.044 109.102 236.949 109.444C236.853 109.787 236.66 110.094 236.393 110.328C236.125 110.563 235.795 110.714 235.444 110.764C235.092 110.814 234.733 110.761 234.411 110.61Z" fill="#263238"/>
<path d="M205.1 118.52C205.869 118.32 206.665 118.239 207.46 118.28C208.279 118.323 209.087 118.485 209.86 118.76C210.667 119.071 211.409 119.529 212.05 120.11C212.706 120.751 213.211 121.53 213.53 122.39L214.11 123.95L212.53 123.56C211.417 123.276 210.277 123.119 209.13 123.09C207.936 123.03 206.747 123.281 205.68 123.82C206.48 122.742 207.673 122.024 209 121.82C210.307 121.574 211.652 121.597 212.95 121.89L212 123C211.468 121.756 210.526 120.732 209.33 120.1C207.995 119.39 206.573 118.859 205.1 118.52Z" fill="#263238"/>
<path d="M208.84 125.74C210.083 125.603 211.303 125.308 212.47 124.86C212.74 124.72 213.81 124.12 213.78 123.86C213.733 123.222 213.602 122.593 213.39 121.99C213.768 122.555 214.026 123.191 214.15 123.86C214.032 124.201 213.84 124.512 213.588 124.77C213.335 125.027 213.029 125.226 212.69 125.35C211.466 125.829 210.135 125.964 208.84 125.74Z" fill="#263238"/>
<path d="M216.561 137.68C216.561 137.68 213.171 141.39 209.821 141.46C205.971 141.54 205.981 138.09 210.401 136.71C212.711 136 216.561 137.68 216.561 137.68Z" fill="#263238"/>
<path d="M209.831 141.45C211.282 141.341 212.671 140.817 213.831 139.94C213.221 138.67 211.581 137.14 207.251 138.78C206.501 140.16 207.401 141.51 209.831 141.45Z" fill="#FF99BA"/>
<path d="M180.351 120.15C184.511 122.15 191.511 109.8 193.691 104.97C195.621 100.72 199.191 86.85 199.551 85.92C199.911 84.99 216.671 101.27 228.141 99.72C239.611 98.17 248.451 89.4301 249.301 84.8501C250.151 80.2701 238.301 66.52 226.571 64.13C214.841 61.74 196.571 74.33 196.571 74.33C196.571 74.33 202.981 68.67 202.881 68.11C202.781 67.55 194.681 69.4401 192.461 74.6601C192.461 74.6601 195.001 68.0701 194.461 67.8501C193.921 67.6301 187.091 72.5801 187.761 77.2101C187.761 77.2101 180.001 82.11 178.381 88.53C176.761 94.95 175.471 117.8 180.351 120.15Z" fill="#263238"/>
<path d="M236.301 98.61C232.721 99.61 229.121 100.83 225.301 100.75C221.231 100.67 217.301 99.04 213.751 97.06C210.198 95.0151 207.003 92.4041 204.291 89.33C201.881 86.65 199.861 83.56 197.231 81.09C196.581 80.48 195.561 81.41 195.911 82.15C199.351 89.51 206.391 96.29 213.621 99.85C221.231 103.6 229.021 102.95 236.281 98.71C236.371 98.68 236.361 98.6 236.301 98.61Z" fill="#263238"/>
<path d="M185.161 118.23C185.161 118.23 181.021 104.23 174.931 105.36C168.841 106.49 169.311 124.87 174.601 129.14C175.242 129.734 175.996 130.193 176.819 130.488C177.642 130.783 178.515 130.909 179.388 130.858C180.261 130.806 181.114 130.579 181.896 130.189C182.679 129.8 183.374 129.256 183.941 128.59L185.161 118.23Z" fill="#F7A9A0"/>
<path d="M175.2 110.63C175.181 110.624 175.16 110.625 175.141 110.632C175.123 110.639 175.107 110.652 175.096 110.67C175.086 110.687 175.082 110.707 175.084 110.727C175.087 110.747 175.096 110.766 175.11 110.78C178.77 113.91 179.69 118.58 179.89 123.17C179.16 121.17 177.73 119.75 175.13 120.55C174.99 120.55 175.04 120.8 175.13 120.81C175.954 120.824 176.753 121.091 177.419 121.576C178.085 122.061 178.585 122.74 178.85 123.52C179.281 124.818 179.569 126.16 179.71 127.52C179.79 127.96 180.54 127.99 180.54 127.52V127.42C182.49 122.07 180.81 113.11 175.2 110.63Z" fill="#263238"/>
<path d="M220.131 147.22C216.96 152.995 214.313 159.043 212.221 165.29C211.721 166.88 211.271 168.47 210.921 170.04C210.921 170.1 210.921 170.25 210.841 170.49C210.841 170.58 210.841 170.69 210.781 170.81C210.661 171.45 210.481 172.44 210.231 173.66C210.226 173.723 210.226 173.787 210.231 173.85C210.226 173.873 210.226 173.897 210.231 173.92C210.236 173.894 210.236 173.867 210.231 173.84C204.771 162.744 202.27 150.426 202.971 138.08L205.311 139.31L206.921 140.16L208.491 140.99L209.901 141.73L210.741 142.17L212.091 142.89L213.441 143.61L214.701 144.28L215.861 144.9L220.131 147.22Z" fill="#F7A9A0"/>
<path d="M220.131 147.21C216.96 152.985 214.313 159.033 212.221 165.28C211.721 166.87 211.271 168.46 210.921 170.03C210.921 170.09 210.921 170.24 210.841 170.48C210.841 170.57 210.841 170.68 210.781 170.8C210.661 171.44 210.481 172.43 210.231 173.65C210.235 173.71 210.235 173.77 210.231 173.83C204.771 162.734 202.27 150.416 202.971 138.07L205.311 139.3C205.851 139.58 206.391 139.86 206.921 140.15L208.491 140.98L209.901 141.72L210.751 142.18L212.101 142.9C212.574 143.14 213.024 143.38 213.451 143.62L214.711 144.29L215.871 144.91L220.131 147.21Z" fill="#263238"/>
<path d="M242.301 81.42C242.301 81.42 252.931 90.66 251.001 103.95C249.071 117.24 241.831 129.42 240.541 129.7C239.251 129.98 242.301 81.42 242.301 81.42Z" fill="#263238"/>
<path d="M242.821 126.82C239.601 140.92 234.221 154.08 227.291 159.43C222.966 162.841 217.716 164.876 212.221 165.27C210.343 165.399 208.458 165.342 206.591 165.1C203.65 156.418 202.407 147.251 202.931 138.1C203.271 132.22 204.328 126.403 206.081 120.78C206.999 117.84 208.102 114.961 209.381 112.16C209.234 111.718 209.255 111.237 209.441 110.81C209.729 110.245 210.164 109.768 210.701 109.43C212.82 105.279 215.342 101.347 218.231 97.69C218.801 96.95 219.391 96.23 219.991 95.53C220.311 95.15 220.641 94.78 220.991 94.41C226.541 88.1859 233.129 82.9719 240.461 79C241.377 79.9729 242.219 81.0124 242.981 82.11L243.141 82.35C244.551 84.44 245.451 87.92 245.881 92.28C246.811 101.41 245.641 114.47 242.821 126.82Z" fill="#F7A9A0"/>
<path d="M231.861 122C231.861 121.9 232.041 122.18 232.011 122.29C231.221 125 230.781 128.24 233.011 129.77C233.081 129.82 233.011 129.96 232.951 129.92C230.051 128.72 230.681 124.43 231.861 122Z" fill="#263238"/>
<path d="M235.001 119.76C239.471 120.54 237.571 129.44 233.421 128.76C229.271 128.08 231.271 119.1 235.001 119.76Z" fill="#263238"/>
<path d="M207.99 146.707C208.903 146.485 209.944 146.047 210.87 146.497C211.762 147.044 212.528 147.776 213.115 148.643C213.126 148.663 213.144 148.679 213.166 148.688C213.188 148.696 213.213 148.696 213.235 148.689C213.257 148.681 213.276 148.666 213.288 148.646C213.3 148.626 213.305 148.602 213.301 148.579C213.235 147.896 212.986 147.244 212.579 146.691C212.173 146.139 211.624 145.706 210.992 145.44C210.424 145.278 209.821 145.287 209.259 145.466C208.696 145.645 208.199 145.986 207.829 146.447C207.697 146.584 207.847 146.745 207.99 146.707Z" fill="#263238"/>
<path d="M224.711 133.75C224.711 133.75 224.311 137.98 223.861 139.92C223.811 140.1 218.421 138.34 212.311 138.92C211.391 139 211.561 138.29 212.651 137.92C214.831 137.22 217.561 136.65 222.591 137.82C222.851 137.31 223.081 131.29 223.391 131.34C224.86 131.819 226.259 132.492 227.551 133.34C228.631 124.55 228.291 115.66 229.491 106.92C229.491 106.848 229.519 106.78 229.57 106.729C229.62 106.678 229.689 106.65 229.761 106.65C229.832 106.65 229.901 106.678 229.952 106.729C230.002 106.78 230.031 106.848 230.031 106.92C231.031 116.22 230.031 126.36 229.141 135.47C229.001 136.65 225.401 134.26 224.711 133.75Z" fill="#263238"/>
<path d="M217.46 113.45C216.24 113.565 215.015 113.615 213.79 113.6C212.37 113.6 211.25 113.82 210.01 113.03C209.704 112.814 209.481 112.5 209.38 112.14C209.233 111.698 209.254 111.217 209.44 110.79C209.727 110.225 210.163 109.748 210.7 109.41C211.618 108.895 212.648 108.614 213.7 108.59C215.407 108.415 217.118 108.882 218.5 109.9C218.809 110.148 219.038 110.482 219.157 110.86C219.276 111.238 219.28 111.643 219.169 112.023C219.058 112.404 218.836 112.742 218.531 112.996C218.227 113.25 217.854 113.408 217.46 113.45Z" fill="#263238"/>
<path d="M239.89 109C238.803 108.432 237.748 107.804 236.73 107.12C235.52 106.38 234.48 105.92 233.87 104.58C233.735 104.185 233.736 103.756 233.872 103.362C234.008 102.967 234.271 102.629 234.62 102.4C236.17 101.5 237.87 102.03 239.36 102.86C240.888 103.64 242.069 104.963 242.67 106.57C242.796 106.944 242.808 107.347 242.704 107.729C242.601 108.11 242.387 108.452 242.09 108.712C241.793 108.972 241.425 109.138 241.034 109.189C240.642 109.24 240.244 109.174 239.89 109Z" fill="#263238"/>
<path d="M207.611 117.68C209.346 117.244 211.171 117.338 212.851 117.95C213.745 118.29 214.566 118.795 215.271 119.44C216 120.16 216.557 121.035 216.901 122L217.541 123.71L215.801 123.28C214.572 122.982 213.315 122.812 212.051 122.77C210.737 122.704 209.427 122.979 208.251 123.57C209.133 122.375 210.446 121.571 211.911 121.33C213.348 121.052 214.826 121.079 216.251 121.41L215.161 122.69C214.57 121.319 213.53 120.191 212.211 119.49C210.76 118.695 209.215 118.087 207.611 117.68Z" fill="#263238"/>
<path d="M211.74 125.63C213.113 125.479 214.458 125.142 215.74 124.63C216.04 124.49 217.21 123.82 217.18 123.63C217.129 122.924 216.985 122.228 216.75 121.56C217.16 122.186 217.446 122.886 217.59 123.62C217.459 123.995 217.247 124.336 216.968 124.62C216.69 124.903 216.353 125.122 215.98 125.26C214.627 125.768 213.161 125.896 211.74 125.63Z" fill="#263238"/>
<path d="M220.231 138.79C220.231 138.79 216.501 142.87 212.811 142.95C208.571 143.04 208.581 139.23 213.441 137.72C216.001 136.92 220.231 138.79 220.231 138.79Z" fill="#263238"/>
<path d="M212.82 142.94C214.434 142.822 215.981 142.246 217.28 141.28C216.6 139.87 214.8 138.19 210.03 140C209.16 141.52 210.15 143 212.82 142.94Z" fill="#FF99BA"/>
<path d="M256.28 80.62C255.81 83.19 253.04 86.96 248.76 90.26C247.842 90.9805 246.884 91.6482 245.89 92.26C244.497 93.1444 243.035 93.9168 241.52 94.5701C238.808 95.7764 235.94 96.5944 233 97C229.29 97.5 225.08 96.31 221 94.4C226.548 88.1804 233.132 82.9699 240.46 79C244.578 76.7558 248.91 74.9268 253.39 73.54C255.47 76.4 256.58 79 256.28 80.62Z" fill="#263238"/>
<path d="M242 95.87L241.44 96.19C233.98 100.37 226.04 101.1 218.24 97.67C218.81 96.93 219.4 96.21 220 95.51C223.084 97.0737 226.466 97.9633 229.92 98.12C233.92 98.2 237.69 97.01 241.45 95.92L241.96 95.77C242 95.75 242 95.84 242 95.87Z" fill="#263238"/>
<path d="M221.066 279.913L240.607 286.007L259.479 225.492L239.937 219.398L221.066 279.913Z" fill="#EBEBEB"/>
<path d="M300.48 59.52C284.139 54.4239 266.652 54.2882 250.233 59.1301C233.814 63.9719 219.2 73.5739 208.238 86.7217C197.276 99.8695 190.459 115.973 188.649 132.995C186.839 150.017 190.118 167.193 198.07 182.352C206.022 197.511 218.291 209.971 233.325 218.158C248.358 226.344 265.482 229.888 282.53 228.342C299.578 226.796 315.785 220.23 329.101 209.473C342.417 198.716 352.245 184.252 357.34 167.91C360.725 157.06 361.939 145.649 360.913 134.329C359.888 123.009 356.642 112.002 351.362 101.937C346.082 91.872 338.871 82.9455 330.14 75.6675C321.41 68.3894 311.332 62.9025 300.48 59.52ZM343.35 163.52C339.123 177.097 330.964 189.116 319.905 198.055C308.846 206.995 295.385 212.454 281.223 213.742C267.061 215.031 252.836 212.09 240.345 205.292C227.855 198.495 217.661 188.145 211.054 175.554C204.446 162.962 201.721 148.694 203.223 134.553C204.725 120.412 210.388 107.035 219.494 96.1128C228.6 85.1906 240.74 77.2143 254.38 73.1927C268.02 69.1712 282.545 69.2851 296.12 73.52C314.32 79.1982 329.52 91.8724 338.377 108.755C347.234 125.639 349.023 145.348 343.35 163.55V163.52Z" fill="#455A64"/>
<path d="M193.98 349.11L223.53 358.32L251.16 269.71L221.61 260.5L193.98 349.11Z" fill="#263238"/>
<g opacity="0.3">
<path d="M206.09 120.76C201.859 134.336 201.749 148.861 205.774 162.499C209.798 176.137 217.777 188.275 228.701 197.379C239.625 206.482 253.003 212.141 267.143 213.641C281.283 215.14 295.551 212.412 308.141 205.803C320.731 199.193 331.078 188.998 337.873 176.507C344.669 164.016 347.608 149.791 346.318 135.63C345.028 121.469 339.567 108.009 330.627 96.9512C321.686 85.8938 309.667 77.7362 296.09 73.51C277.89 67.8446 258.184 69.6396 241.307 78.5002C224.43 87.3608 211.762 102.562 206.09 120.76Z" fill="white"/>
<path d="M202.82 140.84C202.507 159.784 209.674 178.088 222.766 191.783C235.859 205.478 253.822 213.46 272.76 214L202.82 140.84Z" fill="#EBEBEB"/>
<path d="M240.59 78.8799L336.38 179.14C339.324 174.243 341.674 169.013 343.38 163.56C345.345 157.314 346.433 150.825 346.61 144.28L275.9 70.2799C263.587 70.0716 251.428 73.0331 240.59 78.8799Z" fill="#EBEBEB"/>
<path d="M208.57 114L299.81 209.5C304.223 207.846 308.466 205.77 312.48 203.3L215.32 101.6C212.653 105.492 210.391 109.647 208.57 114Z" fill="#EBEBEB"/>
<path d="M232.27 84.14L330.74 187.22C331.29 186.54 331.83 185.86 332.35 185.16L234.35 82.64C233.68 83.12 233 83.61 232.27 84.14Z" fill="#EBEBEB"/>
<path d="M299.541 74.6699L343.251 120.42C342.611 118.42 341.861 116.34 341.021 114.36L305.471 77.1499C303.564 76.2433 301.588 75.4166 299.541 74.6699Z" fill="#EBEBEB"/>
</g>
<path d="M322.22 157.53C322.22 157.44 322.22 157.35 322.3 157.26C322.63 155.96 322.02 158.55 322.2 157.67C322.42 156.67 322.63 155.58 322.8 154.52C323.387 150.826 323.664 147.09 323.63 143.35C323.63 142.82 323.63 142.35 323.63 141.77C323.63 141.6 323.69 143.02 323.63 141.89C323.63 141.56 323.63 141.24 323.57 140.89C323.5 139.65 323.38 138.41 323.23 137.17C322.91 134.443 322.409 131.74 321.73 129.08C321.56 128.45 321.38 127.82 321.2 127.18C320.97 126.33 321.52 128.18 321.15 127.01C321.02 126.63 320.9 126.26 320.78 125.88C320.29 124.46 319.78 123.06 319.15 121.68C318.52 120.3 317.8 118.68 317.03 117.3C316.68 116.64 316.31 115.99 315.93 115.3C315.28 114.19 316.24 115.75 315.73 114.97C315.48 114.6 315.24 114.22 315 113.84C312.743 110.517 310.168 107.423 307.31 104.6C307.25 104.54 306.73 104.04 307.16 104.45C307.59 104.86 306.92 104.24 306.85 104.16L305.52 102.98C304.65 102.23 303.77 101.5 302.87 100.79C300.96 99.3 298.97 97.92 296.92 96.62C294.57 95.13 294.24 91.56 295.81 89.42C296.635 88.3414 297.845 87.6237 299.187 87.4168C300.529 87.2099 301.899 87.5299 303.01 88.31C316.01 96.54 326.22 108.75 330.79 123.53C333.859 133.471 334.702 143.966 333.26 154.27C332.957 156.579 332.496 158.864 331.88 161.11C331.15 163.71 327.64 165.11 325.24 164.11C323.984 163.597 322.972 162.621 322.414 161.383C321.856 160.146 321.794 158.742 322.24 157.46L322.22 157.53Z" fill="white"/>
<path d="M316.54 171.76C316.184 172.698 316.113 173.72 316.338 174.698C316.562 175.676 317.072 176.565 317.802 177.253C318.532 177.941 319.45 178.397 320.44 178.563C321.429 178.729 322.446 178.598 323.36 178.186C324.275 177.774 325.047 177.1 325.579 176.249C326.11 175.398 326.378 174.409 326.347 173.406C326.315 172.403 325.988 171.432 325.404 170.616C324.821 169.8 324.009 169.175 323.07 168.82C322.449 168.584 321.786 168.472 321.122 168.492C320.457 168.512 319.802 168.663 319.196 168.936C318.589 169.209 318.043 169.599 317.587 170.084C317.131 170.568 316.776 171.138 316.54 171.76Z" fill="white"/>
<path d="M141.001 173.1C83.231 212.37 37.841 301.47 58.351 316.1C77.081 329.43 162.611 340.52 190.921 339.96C199.241 339.79 206.461 270.58 197.571 270.74C186.821 270.94 124.991 264.84 123.951 264.54C121.731 263.89 151.951 209.74 165.311 185.12C184.001 150.76 162.681 158.35 141.001 173.1Z" fill="#F7A9A0"/>
<path d="M273.87 289C275.15 295.77 268.87 299.14 268.87 299.14C268.87 299.14 272.71 303.08 272.72 308.37C272.72 314.42 263.25 317.1 263.25 317.1C265.114 320.225 265.992 323.839 265.77 327.47C265.19 333.27 256 337.33 256 337.33C256.126 341.147 254.873 344.882 252.47 347.85C245.74 355.52 230.35 353.01 220.55 351.51C210.75 350.01 184.37 336.59 179.08 334.51L188.16 271.51C188.16 271.51 234 265.73 245.27 269.12C254.75 272 272.43 281.37 273.87 289Z" fill="#F7A9A0"/>
<path d="M268.57 298C259.21 292.53 248.74 290.14 238.42 287.15C238.375 287.146 238.331 287.158 238.295 287.183C238.258 287.209 238.232 287.246 238.22 287.289C238.208 287.331 238.211 287.377 238.23 287.417C238.248 287.458 238.28 287.491 238.32 287.51C248.62 290.36 258.21 295.22 268.32 298.51C268.353 298.527 268.389 298.536 268.427 298.539C268.464 298.541 268.501 298.536 268.536 298.524C268.572 298.512 268.604 298.493 268.632 298.468C268.66 298.444 268.683 298.414 268.7 298.38C268.716 298.347 268.726 298.31 268.728 298.273C268.73 298.236 268.725 298.199 268.713 298.163C268.701 298.128 268.682 298.095 268.658 298.067C268.633 298.039 268.603 298.017 268.57 298Z" fill="#263238"/>
<path d="M263.151 316.21C260.922 315.179 258.569 314.443 256.151 314.02C253.598 313.42 251.038 312.86 248.471 312.34C243.331 311.34 238.171 310.39 232.981 309.62C232.751 309.62 232.641 309.93 232.881 309.98C238.001 310.98 243.111 312.14 248.181 313.4C250.721 314.027 253.254 314.693 255.781 315.4C258.125 316.166 260.546 316.669 263.001 316.9C263.079 316.893 263.154 316.861 263.213 316.809C263.272 316.757 263.313 316.687 263.329 316.61C263.346 316.533 263.338 316.453 263.306 316.381C263.274 316.309 263.219 316.249 263.151 316.21Z" fill="#263238"/>
<path d="M255.78 337.25C253.95 336.16 251.39 335.99 249.32 335.62C246.973 335.2 244.64 334.763 242.32 334.31C237.63 333.41 232.94 332.51 228.32 331.44C228.08 331.39 227.98 331.75 228.22 331.8C232.95 332.91 237.66 334.07 242.4 335.14C244.72 335.66 247.053 336.167 249.4 336.66C251.4 337.08 253.82 337.84 255.85 337.49C255.874 337.475 255.892 337.453 255.902 337.426C255.912 337.4 255.913 337.371 255.905 337.344C255.897 337.317 255.881 337.293 255.858 337.276C255.835 337.259 255.808 337.25 255.78 337.25Z" fill="#263238"/>
<path d="M125.47 262.36C124.93 261.75 155 209.79 168.4 181.95C181.8 154.11 167.89 152.77 141.23 171.74C112.67 192.07 54.0004 253 49.3504 310.44C47.8604 329.05 179.73 344.21 179.73 344.21L185.67 267.54C185.67 267.54 126.3 263.3 125.47 262.36Z" fill="#FF4A4A"/>
<path d="M178.891 297.66C178.613 297.005 178.148 296.447 177.553 296.055C176.959 295.664 176.263 295.457 175.551 295.46C175.079 295.45 174.618 295.32 174.21 295.082C173.802 294.844 173.462 294.506 173.221 294.1C172.939 293.646 172.784 293.124 172.771 292.59C172.661 292.01 172.591 291.41 172.431 290.82C172.231 291.99 171.771 293.14 172.231 294.55C172.486 295.223 172.938 295.803 173.529 296.214C174.12 296.624 174.821 296.846 175.541 296.85C176.02 296.853 176.49 296.974 176.911 297.202C177.331 297.431 177.689 297.76 177.951 298.16C178.241 298.6 178.4 299.113 178.411 299.64C178.551 300.22 178.611 300.8 178.751 301.4C179.001 300.24 179.441 299.05 178.891 297.66ZM74.6709 258.32C74.3963 257.663 73.9318 257.102 73.3368 256.71C72.7418 256.318 72.0434 256.113 71.3309 256.12C70.8595 256.108 70.3987 255.977 69.9913 255.739C69.584 255.501 69.2433 255.165 69.0009 254.76C68.8293 254.492 68.7105 254.193 68.6509 253.88C68.4209 254.28 68.2009 254.68 67.9809 255.08C67.9764 255.12 67.9764 255.16 67.9809 255.2C68.234 255.875 68.6859 256.457 69.2769 256.869C69.8679 257.282 70.5702 257.505 71.2909 257.51C71.7685 257.512 72.2381 257.632 72.6584 257.859C73.0787 258.086 73.4367 258.412 73.7009 258.81C73.988 259.251 74.1473 259.764 74.1609 260.29C74.3009 260.88 74.3609 261.46 74.5109 262.06C74.7509 260.89 75.2209 259.71 74.6709 258.32ZM94.6709 320.01C94.3963 319.353 93.9318 318.792 93.3368 318.4C92.7418 318.008 92.0434 317.803 91.3309 317.81C90.8579 317.8 90.3954 317.668 89.9875 317.429C89.5796 317.189 89.24 316.848 89.0009 316.44C88.7191 315.986 88.5637 315.464 88.5509 314.93C88.4409 314.35 88.3709 313.75 88.2109 313.17C88.0109 314.33 87.5509 315.49 88.0109 316.89C88.2652 317.564 88.7174 318.145 89.3081 318.558C89.8989 318.97 90.6006 319.194 91.3209 319.2C91.7985 319.202 92.2681 319.322 92.6884 319.549C93.1087 319.776 93.4667 320.102 93.7309 320.5C94.018 320.941 94.1773 321.454 94.1909 321.98C94.3309 322.56 94.3909 323.15 94.5309 323.75C94.6909 322.58 95.1709 321.4 94.6209 320L94.6709 320.01ZM132.371 219.6C132.092 218.943 131.625 218.384 131.029 217.992C130.433 217.601 129.734 217.395 129.021 217.4C128.547 217.395 128.081 217.268 127.671 217.029C127.261 216.791 126.92 216.45 126.681 216.04C126.406 215.584 126.258 215.063 126.251 214.53C126.131 213.95 126.071 213.35 125.901 212.75C125.711 213.95 125.231 215.08 125.711 216.49C125.962 217.163 126.411 217.744 126.998 218.158C127.585 218.572 128.283 218.799 129.001 218.81C129.478 218.802 129.95 218.915 130.371 219.139C130.793 219.363 131.15 219.69 131.411 220.09C131.7 220.528 131.866 221.036 131.891 221.56C132.011 222.16 132.071 222.76 132.231 223.34C132.431 222.19 132.921 221 132.371 219.6ZM123.681 297.66C123.397 297.007 122.929 296.451 122.334 296.061C121.739 295.67 121.043 295.461 120.331 295.46C119.859 295.449 119.398 295.318 118.991 295.08C118.583 294.843 118.243 294.505 118.001 294.1C117.725 293.643 117.57 293.124 117.551 292.59C117.451 292.01 117.371 291.41 117.221 290.82C117.031 291.99 116.551 293.14 117.031 294.55C117.281 295.22 117.729 295.798 118.314 296.209C118.9 296.619 119.596 296.843 120.311 296.85C120.791 296.851 121.264 296.971 121.686 297.2C122.109 297.428 122.468 297.758 122.731 298.16C123.018 298.603 123.184 299.113 123.211 299.64C123.311 300.22 123.391 300.8 123.551 301.4C123.741 300.24 124.221 299.05 123.681 297.66ZM158.451 165.48C158.17 164.826 157.702 164.27 157.106 163.882C156.51 163.494 155.812 163.292 155.101 163.3H154.741L153.181 164.12C153.747 164.489 154.405 164.694 155.081 164.71C155.556 164.705 156.025 164.819 156.445 165.043C156.864 165.267 157.221 165.592 157.481 165.99C157.78 166.43 157.947 166.948 157.961 167.48C158.091 168.06 158.151 168.66 158.301 169.24C158.501 168.05 159.001 166.87 158.451 165.48ZM154.221 315.63C153.561 315.359 152.836 315.292 152.137 315.436C151.439 315.58 150.799 315.93 150.301 316.44C149.957 316.766 149.537 317 149.079 317.12C148.621 317.241 148.14 317.244 147.681 317.13C147.163 316.999 146.688 316.737 146.301 316.37C145.791 316.02 145.301 315.66 144.811 315.37C145.491 316.37 145.971 317.49 147.301 318.15C147.952 318.447 148.678 318.539 149.383 318.416C150.088 318.293 150.739 317.96 151.251 317.46C151.78 316.936 152.489 316.635 153.233 316.619C153.977 316.602 154.699 316.871 155.251 317.37C155.761 317.72 156.251 318.08 156.751 318.37C156.071 317.4 155.581 316.22 154.221 315.63ZM103.151 229.51C102.491 229.241 101.766 229.174 101.068 229.318C100.369 229.462 99.7301 229.811 99.2309 230.32C98.8878 230.647 98.4676 230.881 98.0096 231.002C97.5515 231.122 97.0704 231.125 96.6109 231.01C96.094 230.88 95.6211 230.614 95.2409 230.24C94.7309 229.9 94.2409 229.54 93.7409 229.24C94.4309 230.24 94.9109 231.36 96.2409 232.02C96.8989 232.325 97.634 232.422 98.3485 232.299C99.0631 232.176 99.7232 231.838 100.241 231.33C100.575 230.987 100.99 230.734 101.449 230.596C101.907 230.458 102.393 230.439 102.861 230.54C103.38 230.641 103.861 230.883 104.251 231.24C104.761 231.59 105.251 231.95 105.741 232.24C105.001 231.28 104.511 230.09 103.151 229.51ZM68.3709 293.81C67.7107 293.542 66.9858 293.476 66.288 293.62C65.5902 293.764 64.9508 294.112 64.4509 294.62C64.1078 294.947 63.6877 295.181 63.2296 295.302C62.7715 295.422 62.2904 295.425 61.8309 295.31C61.315 295.183 60.8422 294.92 60.4609 294.55C59.9509 294.2 59.4609 293.84 58.9609 293.55C59.6509 294.55 60.1309 295.67 61.4609 296.33C62.1122 296.627 62.8378 296.719 63.5427 296.596C64.2476 296.473 64.8988 296.14 65.4109 295.64C65.7458 295.298 66.1615 295.047 66.6195 294.909C67.0775 294.771 67.563 294.75 68.0309 294.85C68.5478 294.957 69.0272 295.198 69.4209 295.55C69.9309 295.9 70.4209 296.26 70.9109 296.55C70.2309 295.58 69.7309 294.4 68.3709 293.81ZM129.921 252.37C129.261 252.099 128.536 252.032 127.837 252.176C127.139 252.32 126.499 252.67 126.001 253.18C125.654 253.507 125.231 253.742 124.769 253.863C124.308 253.983 123.824 253.986 123.361 253.87C122.848 253.738 122.378 253.472 122.001 253.1C121.511 252.76 121.001 252.4 120.491 252.1C121.191 253.1 121.671 254.22 123.001 254.88C123.659 255.185 124.394 255.282 125.109 255.159C125.823 255.036 126.483 254.698 127.001 254.19C127.333 253.844 127.749 253.59 128.207 253.452C128.666 253.313 129.153 253.296 129.621 253.4C129.772 253.428 129.919 253.472 130.061 253.53L130.521 252.69C130.333 252.562 130.132 252.454 129.921 252.37ZM96.4409 272.23C95.7674 272.48 95.1853 272.928 94.7712 273.516C94.3572 274.103 94.1305 274.802 94.1209 275.52C94.1288 275.998 94.0145 276.471 93.7887 276.892C93.563 277.314 93.2333 277.671 92.8309 277.93C92.3884 278.217 91.8779 278.383 91.3509 278.41C90.7709 278.53 90.1709 278.59 89.5909 278.75C90.7409 278.95 91.9209 279.44 93.3109 278.9C93.9668 278.62 94.5255 278.153 94.9168 277.557C95.3082 276.961 95.5149 276.263 95.5109 275.55C95.5252 275.076 95.6569 274.614 95.8943 274.203C96.1317 273.793 96.4673 273.448 96.8709 273.2C97.334 272.924 97.8619 272.776 98.4009 272.77C98.9809 272.65 99.5709 272.57 100.171 272.42C99.0009 272.23 97.8509 271.76 96.4409 272.23ZM128.001 184.64C127.327 184.889 126.744 185.337 126.329 185.924C125.915 186.512 125.689 187.211 125.681 187.93C125.682 188.676 125.394 189.394 124.877 189.932C124.361 190.471 123.656 190.789 122.911 190.82C122.331 190.94 121.731 191 121.151 191.16C122.301 191.36 123.481 191.85 124.871 191.31C125.528 191.031 126.087 190.565 126.479 189.968C126.87 189.372 127.076 188.673 127.071 187.96C127.087 187.487 127.219 187.025 127.457 186.615C127.694 186.205 128.028 185.86 128.431 185.61C128.894 185.334 129.422 185.186 129.961 185.18C130.541 185.06 131.131 184.99 131.721 184.84C130.581 184.64 129.441 184.18 128.001 184.64ZM123.631 331.16C122.956 331.405 122.372 331.85 121.957 332.437C121.542 333.023 121.317 333.722 121.311 334.44C121.322 334.839 121.243 335.235 121.081 335.6L122.431 335.84C122.618 335.408 122.71 334.941 122.701 334.47C122.715 333.996 122.847 333.534 123.084 333.123C123.322 332.713 123.657 332.368 124.061 332.12C124.525 331.848 125.053 331.703 125.591 331.7C126.171 331.57 126.751 331.51 127.341 331.36C126.211 331.16 125.071 330.67 123.671 331.16H123.631ZM151.391 272.24C150.721 272.49 150.142 272.936 149.729 273.519C149.315 274.102 149.086 274.795 149.071 275.51C149.082 275.989 148.971 276.464 148.749 276.888C148.527 277.313 148.201 277.675 147.801 277.94C147.353 278.224 146.84 278.389 146.311 278.42C145.721 278.52 145.141 278.6 144.541 278.76C145.711 278.95 146.891 279.43 148.281 278.89C148.933 278.607 149.488 278.138 149.878 277.543C150.267 276.948 150.473 276.251 150.471 275.54C150.485 275.068 150.618 274.607 150.857 274.2C151.097 273.792 151.435 273.452 151.841 273.21C152.296 272.932 152.817 272.78 153.351 272.77C153.951 272.66 154.521 272.58 155.121 272.43C154.001 272.24 152.841 271.76 151.431 272.24H151.391ZM160.591 197.33C160.911 196.72 161.231 196.12 161.531 195.52C161.068 196.028 160.756 196.655 160.631 197.33H160.591ZM157.751 200.85C157.171 200.96 156.571 201.03 155.971 201.2C156.759 201.395 157.562 201.522 158.371 201.58C158.541 201.24 158.721 200.9 158.901 200.58C158.55 200.734 158.174 200.825 157.791 200.85H157.751Z" fill="white"/>
<path d="M99.4999 263.2C102.02 263.55 171.08 265.84 185.63 268.09C185.86 268.09 185.89 267.34 185.63 267.31C140.63 261.31 102.04 261.56 99.0199 261.78C95.4599 262 94.7899 262.55 99.4999 263.2Z" fill="#263238"/>
<path d="M125.901 263.13C125.901 262.99 136.901 242.94 138.081 241.84C139.261 240.74 141.931 238.15 143.081 236.94C145.371 234.48 147.501 231.94 149.701 229.38C149.881 229.17 149.571 228.87 149.391 229.07C147.131 231.47 144.651 233.68 142.181 235.84L138.481 239C138.391 239.06 149.021 219.33 150.751 215.82C150.881 215.56 150.611 215.39 150.451 215.59C148.081 218.93 126.451 258.34 123.791 262.64C123.791 262.67 124.591 262.9 125.901 263.13Z" fill="#263238"/>
<path d="M71.4808 324.38C92.7308 330.68 175.001 343.3 179.251 344C179.33 342.487 179.547 340.984 179.901 339.51C179.901 339.35 180.261 339.33 180.271 339.51C180.444 341.609 180.504 343.715 180.451 345.82C180.451 346.17 99.4508 335.1 71.4508 324.59C71.3308 324.54 71.3508 324.34 71.4808 324.38Z" fill="#263238"/>
<path d="M162.48 336.29C163.345 331.04 163.946 325.75 164.28 320.44C164.774 315.24 165.23 310.04 165.65 304.84C166.49 294.35 167.6 283.84 167.76 273.26C167.76 273.21 167.74 273.161 167.705 273.126C167.669 273.09 167.621 273.07 167.57 273.07C167.52 273.07 167.472 273.09 167.436 273.126C167.4 273.161 167.38 273.21 167.38 273.26C165.49 283.71 164.67 294.4 163.75 304.97C163.29 310.27 162.904 315.577 162.59 320.89C162.127 326.023 161.954 331.178 162.07 336.33C162.08 336.53 162.43 336.5 162.48 336.29Z" fill="#263238"/>
<path d="M417.661 298.85C417.679 310.831 413.886 322.507 406.831 332.19C401.126 340.045 393.501 346.304 384.685 350.369C375.869 354.434 366.157 356.167 356.479 355.404C346.801 354.641 337.481 351.407 329.411 346.011C321.34 340.616 314.79 333.239 310.387 324.587C305.984 315.935 303.875 306.297 304.262 296.597C304.649 286.897 307.52 277.459 312.599 269.185C317.678 260.912 324.795 254.081 333.27 249.345C341.745 244.61 351.293 242.129 361.001 242.14C362.548 242.14 364.088 242.2 365.621 242.32C374.402 243.015 382.898 245.755 390.431 250.32C398.012 254.936 404.411 261.257 409.121 268.78C414.739 277.801 417.699 288.223 417.661 298.85Z" fill="#455A64"/>
<path d="M373.192 325.62C372.482 327.53 373.672 327.62 373.752 328.4C373.832 329.18 373.752 330.7 371.452 333.01C369.152 335.32 365.332 334.83 364.532 335.79C363.732 336.75 362.392 340.79 360.532 342.14C358.672 343.49 358.312 342.7 355.612 343.25C352.912 343.8 350.842 347.31 350.052 348.97C349.262 350.63 350.212 353.42 348.302 353.5C346.392 353.58 345.522 349.45 343.772 347.23C342.262 345.228 341.279 342.88 340.912 340.4C340.362 337.77 341.232 332.29 340.912 330.15C340.592 328.01 334.912 324.15 332.812 321.57C330.712 318.99 327.892 313.71 328.052 311.96C328.288 310.263 329.134 308.709 330.432 307.59C331.382 306.87 330.982 306.48 331.142 305.84C331.302 305.2 332.142 305.05 332.262 304.25C332.382 303.45 331.782 301.08 330.982 300.68C330.182 300.28 329.632 301.63 329.162 301.39C328.692 301.15 327.252 299.49 326.702 299.33C326.152 299.17 326.302 300.33 325.502 298.85C324.702 297.37 324.312 293.53 323.682 292.85C323.052 292.17 322.562 293.97 321.062 292.85C319.562 291.73 318.912 289.6 318.282 289.28C317.652 288.96 316.772 289.36 316.112 288.09C315.452 286.82 316.692 284.51 316.112 284.75C315.532 284.99 314.302 286.82 313.992 285.07C313.682 283.32 315.572 277.44 315.262 274.27C315 270.92 316.079 267.604 318.262 265.05C318.262 265.05 318.572 263.31 318.892 262.19C319.212 261.07 326.042 256.63 326.832 255.36C327.164 254.65 327.354 253.883 327.392 253.1C337.123 245.935 348.896 242.079 360.982 242.1C362.528 242.1 364.068 242.16 365.602 242.28C365.647 242.356 365.7 242.426 365.762 242.49C366.442 243.37 367.192 243.92 369.202 244.67C371.212 245.42 371.692 246.36 371.262 247.15C371.073 247.48 370.794 247.749 370.457 247.927C370.121 248.104 369.741 248.181 369.362 248.15C368.562 248.2 367.822 247.78 366.972 248.31C366.122 248.84 365.282 251.7 364.172 251.86C363.062 252.02 361.102 249.31 360.672 248.52C360.242 247.73 361.672 246.03 360.982 245.24C360.292 244.45 359.192 244.6 357.392 244.44C355.592 244.28 351.392 244.97 351.562 245.66C351.732 246.35 357.712 245.55 357.872 246.93C358.032 248.31 353.472 250.64 352.682 250.43C351.892 250.22 350.822 248.84 349.682 248.68C348.542 248.52 347.562 249.47 346.832 249.58C346.102 249.69 345.232 248.79 344.122 249C343.012 249.21 342.742 250.16 342.122 250.53C341.502 250.9 340.122 250.9 340.002 251.75C339.882 252.6 341.752 253.08 342.222 253.6C342.692 254.12 341.642 255.94 342.122 256.31C342.602 256.68 345.562 254.08 346.302 253.45C347.042 252.82 347.682 250.06 349.302 250.11C350.922 250.16 351.422 252.86 351.942 253.11C352.462 253.36 353.642 252.47 355.392 252.84C357.142 253.21 358.392 257.03 358.672 258.19C358.952 259.35 359.732 260.52 359.092 261C358.452 261.48 355.602 260.68 355.232 259.94C354.862 259.2 357.132 258.09 356.982 257.82C356.665 257.606 356.3 257.473 355.919 257.435C355.539 257.397 355.155 257.453 354.802 257.6C354.122 258.02 353.802 258.88 353.062 259.09C352.322 259.3 350.362 257.09 349.832 257.71C349.302 258.33 350.362 260.36 350.892 260.84C351.422 261.32 353.372 261.58 353.532 262.11C353.692 262.64 352.212 263.8 350.412 263.7C348.612 263.6 347.132 262.22 346.412 262.8C345.692 263.38 346.092 264.92 345.612 265.45C345.132 265.98 342.542 265.61 341.272 266.98C340.002 268.35 339.422 270.42 338.152 271.59C336.882 272.76 336.292 271.27 334.602 272.91C332.912 274.55 332.602 278.21 332.602 279.48C332.602 280.75 332.602 281.76 332.172 281.6C331.573 281.081 331.165 280.377 331.012 279.6C330.852 278.91 331.382 277.74 331.382 277.32C331.382 276.9 328.942 274.73 327.512 274.51C326.082 274.29 324.812 275.51 323.752 276.31C322.692 277.11 320.752 277 320.102 277.69C319.452 278.38 318.882 284.47 319.412 285.9C319.942 287.33 320.632 287.33 322.322 286.59C324.012 285.85 323.062 284.42 324.072 284.73C324.525 284.9 324.916 285.204 325.192 285.603C325.467 286.002 325.614 286.475 325.612 286.96C325.612 287.81 323.612 289.82 323.862 290.4C324.112 290.98 325.862 290.3 326.722 290.56C327.582 290.82 327.992 291.35 327.722 293.56C327.452 295.77 327.612 297.42 328.882 298.14C330.152 298.86 330.882 297.14 331.422 297.34C331.962 297.54 332.772 298.85 333.572 298.77C334.372 298.69 333.962 297.98 335.472 297.5C336.982 297.02 336.472 296.71 336.742 295.75C336.795 295.506 336.9 295.276 337.049 295.076C337.199 294.876 337.389 294.711 337.608 294.59C337.827 294.47 338.069 294.398 338.318 294.379C338.567 294.36 338.817 294.394 339.052 294.48C340.052 294.96 339.362 295.67 339.442 296.48C339.522 297.29 341.352 297.35 342.782 297.83C344.212 298.31 345.002 297.83 347.862 298.83C350.722 299.83 350.862 302.64 352.072 303.12C353.282 303.6 357.242 302.8 360.072 304.87C362.902 306.94 362.132 310.75 363.562 311.87C364.992 312.99 370.312 314.49 372.382 314.87C374.452 315.25 374.762 313.87 376.432 314.23C378.102 314.59 379.052 315.11 379.612 317.41C380.122 319.47 373.912 323.71 373.192 325.62Z" fill="#FF4A4A"/>
<path d="M330.511 285C330.561 285.45 331.891 285.64 333.511 286.54C335.131 287.44 335.681 290.09 336.511 290.03C337.341 289.97 337.091 288.76 337.411 288.45C337.555 288.36 337.675 288.235 337.757 288.086C337.84 287.938 337.884 287.77 337.884 287.6C337.884 287.43 337.84 287.262 337.757 287.113C337.675 286.965 337.555 286.84 337.411 286.75C336.561 286.06 335.731 284.58 334.191 284.37C332.651 284.16 332.371 283.52 331.691 283.57C331.513 283.57 331.338 283.609 331.178 283.684C331.017 283.759 330.876 283.869 330.763 284.006C330.65 284.143 330.569 284.303 330.525 284.475C330.482 284.647 330.477 284.826 330.511 285Z" fill="#FF4A4A"/>
<path d="M339.251 289.45C339.011 290.1 339.251 290.56 340.941 290.99C342.631 291.42 344.231 290.56 343.701 290.22C343.171 289.88 342.371 290.03 342.701 289.45C343.031 288.87 342.911 288.02 341.531 288.18C340.151 288.34 339.461 288.87 339.251 289.45Z" fill="#FF4A4A"/>
<path d="M345.181 289.63C344.601 289.72 344.281 290.72 344.861 291.36C345.441 292 345.441 291.89 346.131 291.36C346.821 290.83 347.881 290.57 347.621 290.04C347.361 289.51 345.761 289.55 345.181 289.63Z" fill="#FF4A4A"/>
<path d="M349.791 291.8C350.051 291 351.381 291.8 351.961 292.63C352.189 293.097 352.308 293.61 352.308 294.13C352.308 294.65 352.189 295.163 351.961 295.63C351.641 296.54 351.431 297.63 350.691 297.17C349.951 296.71 350.741 295.48 350.631 294.73C350.521 293.98 349.571 292.45 349.791 291.8Z" fill="#FF4A4A"/>
<path d="M372.612 247.62C372.332 248.28 373.612 248.52 374.362 248.94C375.112 249.36 375.682 249.63 376.112 248.94C376.189 248.785 376.23 248.615 376.233 248.442C376.236 248.27 376.2 248.098 376.128 247.941C376.056 247.784 375.95 247.645 375.817 247.534C375.685 247.423 375.529 247.343 375.362 247.3C374.782 247.14 372.882 247 372.612 247.62Z" fill="#FF4A4A"/>
<path d="M382.622 253.81C383.112 254.33 383.942 254.24 384.532 254.98C385.122 255.72 384.902 256.98 385.642 257.36C386.382 257.74 386.912 257.36 386.962 256.83C387.012 256.3 385.902 254.98 386.012 254.71C386.122 254.44 387.542 255.08 387.862 255.88C388.182 256.68 387.542 257.78 388.292 258C389.042 258.22 388.872 257.26 389.192 257C389.512 256.74 390.192 256.9 390.142 256.26C389.887 255.283 389.331 254.412 388.552 253.77C387.862 253.175 387.049 252.741 386.172 252.5C385.692 252.364 385.189 252.333 384.695 252.407C384.202 252.481 383.73 252.659 383.312 252.93C382.722 253.44 382.322 253.5 382.622 253.81Z" fill="#FF4A4A"/>
<path d="M405.531 263.79C405.501 264.007 405.395 264.205 405.231 264.35C404.121 265.15 402.791 262.35 401.231 261.86C399.671 261.37 399.011 259.37 398.691 259.8C398.371 260.23 398.481 260.8 398.001 261.49C397.521 262.18 396.831 262.02 396.521 263.35C396.211 264.68 398.001 267.11 397.581 267.9C397.161 268.69 396.581 268.43 395.771 268.38C394.961 268.33 395.091 269.06 393.981 268.75C392.871 268.44 393.821 267.05 392.071 265.41C390.321 263.77 389.741 263.41 390.071 262.71C390.401 262.01 389.911 260.91 390.701 260.8C391.491 260.69 392.131 261.86 392.701 262.18C393.271 262.5 393.921 261.55 393.971 260.7C394.021 259.85 392.121 258.7 391.431 258.03C390.741 257.36 390.691 255.03 390.961 254.5C391.231 253.97 392.021 254.18 392.231 253.02C392.351 252.33 391.231 251.19 390.351 250.36C396.17 253.898 401.31 258.446 405.531 263.79Z" fill="#FF4A4A"/>
<path d="M413.441 311.27C413.601 309.58 412.751 309.47 413.601 306.35C413.859 305.117 413.855 303.843 413.59 302.611C413.324 301.38 412.804 300.218 412.061 299.2C411.431 298.51 410.061 298.72 408.941 299.41C407.821 300.1 408.621 300.63 407.881 300.89C407.141 301.15 406.401 300.73 405.711 300.79C405.021 300.85 404.381 302.58 402.901 302.53C401.421 302.48 400.471 300.36 399.351 298.85C398.231 297.34 395.961 296.39 395.221 294.54C394.481 292.69 395.911 289.82 395.591 287.65C395.271 285.48 393.851 285.96 393.591 284.74C393.331 283.52 393.801 284.1 394.171 282.94C394.541 281.78 393.751 281.14 394.491 279.13C395.231 277.12 396.561 276.13 396.241 275.21C395.921 274.29 394.921 272.82 394.861 271.77C394.801 270.72 395.861 270.77 397.861 269.28C399.861 267.79 400.401 267.9 401.941 268.43C403.043 268.838 404.177 269.156 405.331 269.38C406.231 269.54 407.451 271.87 407.821 271.77C408.191 271.67 408.241 270.97 408.401 269.97C408.502 269.53 408.732 269.129 409.061 268.82C415.035 278.407 418.014 289.558 417.615 300.847C417.216 312.136 413.457 323.049 406.821 332.19C412.231 324 413.281 313 413.441 311.27Z" fill="#FF4A4A"/>
<path d="M296.051 298.85C296.051 304.63 296.301 310.54 297.891 316.19L298.381 318.33L299.071 320.41L300.481 324.59L302.291 328.59C302.601 329.25 302.881 329.94 303.221 330.59L304.311 332.51C307.221 337.674 310.817 342.42 315.001 346.62L318.241 349.67C319.301 350.67 320.551 351.52 321.701 352.45C324.062 354.268 326.533 355.937 329.101 357.45C330.391 358.18 331.751 358.8 333.101 359.45L335.101 360.45C335.781 360.76 336.491 360.99 337.181 361.27L341.361 362.84L345.681 364L347.841 364.57L350.051 364.93L354.471 365.64L358.941 365.91L361.181 366.04C361.921 366.04 362.671 366.04 363.411 365.96L367.891 365.77C369.381 365.61 370.891 365.35 372.331 365.14C375.287 364.658 378.209 363.99 381.081 363.14C382.501 362.69 383.891 362.14 385.301 361.64L387.411 360.87C388.101 360.58 388.771 360.24 389.411 359.92L393.461 357.98L397.301 355.66C398.591 354.9 399.828 354.051 401.001 353.12C402.181 352.2 403.421 351.36 404.551 350.38C406.822 348.432 408.966 346.341 410.971 344.12C415.024 339.712 418.443 334.761 421.131 329.41L423.041 325.36C423.621 323.98 424.041 322.55 424.581 321.16L425.331 319.05C425.561 318.34 425.711 317.6 425.901 316.88L426.981 312.54C428.067 306.687 428.409 300.719 428.001 294.78C427.167 282.963 423.114 271.599 416.282 261.921C409.449 252.244 400.097 244.621 389.241 239.88C399.515 245.216 408.215 253.145 414.481 262.88C420.684 272.493 424.241 283.573 424.791 295C424.985 300.652 424.518 306.307 423.401 311.85L422.311 315.94C422.111 316.62 421.971 317.31 421.741 317.94L420.991 319.94C420.481 321.25 420.041 322.6 419.471 323.88L417.611 327.67C416.995 328.934 416.296 330.157 415.521 331.33C414.761 332.51 414.121 333.78 413.261 334.89C411.641 337.191 409.867 339.38 407.951 341.44C406.058 343.518 404.034 345.472 401.891 347.29C400.821 348.21 399.651 348.99 398.531 349.84L396.841 351.1C396.271 351.51 395.651 351.84 395.061 352.21C376.161 364.63 350.581 365.29 330.611 354.62C325.631 351.894 321.007 348.566 316.841 344.71C312.654 340.81 309.008 336.368 306.001 331.5L304.841 329.7C304.471 329.09 304.181 328.43 303.841 327.8L301.841 323.98L300.251 319.98L299.461 317.98L298.871 315.91C298.481 314.53 298.061 313.15 297.701 311.75L296.931 307.49C296.801 306.78 296.651 306.07 296.541 305.36L296.361 303.2L296.051 298.85Z" fill="#263238"/>
<path d="M383.73 247.52L391.4 251.17L396.82 234.98L392.87 233.1L383.73 247.52Z" fill="#263238"/>
<path d="M355.951 384.28H364.191V364.1H355.951V384.28Z" fill="#263238"/>
<path d="M329.871 384.26H390.271V376.77H329.871V384.26Z" fill="#263238"/>
<path d="M85.1497 65.18C85.8262 71.6568 88.2891 77.8182 92.2636 82.9766C96.2382 88.1351 101.568 92.0877 107.658 94.3933C113.748 96.6989 120.359 97.2668 126.754 96.0337C133.148 94.8006 139.074 91.815 143.87 87.41L161.45 90L152.65 74.8C154.67 69.8513 155.535 64.507 155.179 59.1737C154.823 53.8404 153.255 48.6585 150.595 44.0222C147.935 39.3859 144.253 35.4173 139.828 32.4184C135.404 29.4194 130.353 27.4691 125.061 26.7157C119.77 25.9623 114.376 26.4257 109.29 28.0706C104.204 29.7156 99.5604 32.4987 95.7121 36.2084C91.8638 39.9181 88.9123 44.4566 87.082 49.4787C85.2517 54.5007 84.5908 59.8741 85.1497 65.19V65.18Z" fill="white"/>
<path d="M95.6704 36.16C99.4967 32.3785 104.143 29.5299 109.249 27.8355C114.355 26.1411 119.782 25.6465 125.11 26.39C130.473 27.0968 135.604 29.019 140.11 32.01C144.611 35.0401 148.371 39.0461 151.11 43.73C153.845 48.4365 155.462 53.7082 155.836 59.1386C156.211 64.5689 155.333 70.0127 153.27 75.05V74.45L162 89.68L162.65 90.8L161.38 90.61L143.81 87.91L144.23 87.78C139.342 92.1999 133.321 95.1739 126.84 96.37C125.236 96.6666 123.611 96.8338 121.98 96.87C113.783 97.2397 105.713 94.7395 99.1604 89.8C97.8584 88.8331 96.6192 87.7843 95.4504 86.66C94.3096 85.5068 93.2409 84.2845 92.2504 83C86.9824 76.1296 84.4204 67.5641 85.0509 58.9295C85.6813 50.2949 89.4603 42.1923 95.6704 36.16ZM92.3504 82.92C93.3442 84.1924 94.4127 85.4045 95.5504 86.55C96.7199 87.6581 97.9591 88.6902 99.2604 89.64C101.843 91.5781 104.701 93.1186 107.74 94.21C110.756 95.3314 113.913 96.0281 117.12 96.28C118.722 96.395 120.329 96.395 121.93 96.28C123.533 96.207 125.127 96.0131 126.7 95.7C133.007 94.42 138.832 91.4073 143.52 87L143.7 86.84H143.94L161.54 89.3L160.91 90.23L152.06 75.06L151.89 74.78L152.02 74.46C153.974 69.6045 154.818 64.3736 154.49 59.15C154.123 53.9455 152.588 48.8905 150 44.36C147.371 39.8192 143.785 35.9053 139.49 32.89C135.161 29.898 130.205 27.9347 125 27.15C119.771 26.3582 114.431 26.7616 109.38 28.33C104.011 30.0027 99.1273 32.9545 95.1505 36.9317C91.1736 40.9088 88.2222 45.7923 86.5499 51.1623C84.8776 56.5323 84.5345 62.228 85.5502 67.7599C86.5658 73.2918 88.9097 78.4942 92.3804 82.92H92.3504Z" fill="#263238"/>
<path d="M121.34 66.36V70.06C121.35 70.429 121.284 70.7961 121.147 71.139C121.011 71.4818 120.805 71.7932 120.544 72.0543C120.283 72.3153 119.972 72.5204 119.629 72.6572C119.286 72.794 118.919 72.8596 118.55 72.85C117.81 72.85 117.101 72.556 116.577 72.0328C116.054 71.5096 115.76 70.7999 115.76 70.06V64.15C115.76 64.09 115.82 64.09 115.82 64.03C115.82 63.97 115.76 63.97 115.76 63.92C115.78 63.1864 116.081 62.4884 116.6 61.9695C117.119 61.4506 117.817 61.1502 118.55 61.13C119.409 61.164 120.265 61.0243 121.068 60.7192C121.871 60.4142 122.604 59.9501 123.224 59.3548C123.843 58.7594 124.336 58.0451 124.673 57.2547C125.009 56.4643 125.183 55.6141 125.183 54.755C125.183 53.8959 125.009 53.0457 124.673 52.2553C124.336 51.4648 123.843 50.7506 123.224 50.1552C122.604 49.5599 121.871 49.0958 121.068 48.7908C120.265 48.4857 119.409 48.346 118.55 48.38C117.444 48.3755 116.356 48.6624 115.396 49.2119C114.435 49.7613 113.637 50.5539 113.08 51.51C112.894 51.8324 112.646 52.1145 112.35 52.3398C112.053 52.5651 111.715 52.7291 111.355 52.8223C110.995 52.9154 110.619 52.9357 110.251 52.8821C109.883 52.8285 109.529 52.702 109.21 52.51C108.892 52.3279 108.613 52.0843 108.39 51.7932C108.167 51.5021 108.004 51.1695 107.911 50.8148C107.818 50.4601 107.796 50.0904 107.848 49.7273C107.899 49.3642 108.022 49.0149 108.21 48.7C109.198 46.9659 110.602 45.5055 112.297 44.451C113.991 43.3965 115.922 42.7813 117.914 42.661C119.906 42.5407 121.897 42.9191 123.705 43.762C125.514 44.6048 127.085 45.8856 128.274 47.4882C129.463 49.0908 130.234 50.9648 130.516 52.9404C130.799 54.916 130.584 56.9308 129.892 58.8025C129.2 60.6743 128.051 62.3438 126.551 63.6599C125.051 64.976 123.246 65.8971 121.3 66.34L121.34 66.36ZM121.34 78.83V79.83C121.35 80.199 121.284 80.5661 121.147 80.909C121.011 81.2518 120.805 81.5632 120.544 81.8242C120.283 82.0853 119.972 82.2904 119.629 82.4272C119.286 82.564 118.919 82.6296 118.55 82.62C117.81 82.62 117.101 82.326 116.577 81.8028C116.054 81.2796 115.76 80.5699 115.76 79.83V78.83C115.77 78.0933 116.068 77.3896 116.589 76.8686C117.11 76.3476 117.813 76.0503 118.55 76.04C118.918 76.036 119.282 76.1054 119.623 76.2442C119.963 76.383 120.272 76.5883 120.532 76.8482C120.792 77.1081 120.997 77.4173 121.136 77.7576C121.275 78.0979 121.344 78.4625 121.34 78.83Z" fill="#FF4A4A"/>
</svg>
