<svg width="744" height="744" viewBox="0 0 744 744" fill="none" xmlns="http://www.w3.org/2000/svg">
<g clip-path="url(#clip0_498_1551)">
<path d="M414.318 687.545C388.664 675.403 378.442 646.536 374.826 619.648C374.216 615.184 372.936 610.541 374.395 606.256C375.853 601.97 380.347 598.474 384.662 599.679C388.248 600.676 390.346 604.277 392.742 607.119C395.928 610.953 400.139 613.802 404.884 615.333C407.979 616.33 411.654 616.642 414.199 614.618C417.68 611.836 417.175 606.449 416.46 602.015C415.002 593.791 413.574 585.568 412.175 577.344C411.167 572.956 410.87 568.434 411.297 563.952C411.952 559.488 414.347 555.024 418.365 553.179C422.383 551.334 428.022 552.837 429.644 557.033C430.122 558.837 430.48 560.672 430.715 562.524C431.147 564.354 432.352 566.244 434.182 566.467C436.013 566.69 437.605 565.128 438.721 563.595C442.53 558.342 444.673 552.048 446.607 545.813C448.542 539.579 450.357 533.225 453.69 527.63C457.023 522.035 462.112 517.214 468.406 515.726C474.701 514.238 482.141 517.065 484.774 523.032C487.408 528.999 484.864 535.978 481.798 541.721C477.143 550.226 471.285 558.014 464.404 564.845C463.031 565.938 462.042 567.439 461.576 569.13C461.115 572.255 464.419 574.725 467.528 575.201C471.01 575.737 474.552 574.785 478.078 574.606C481.605 574.428 485.608 575.32 487.482 578.371C490.057 582.597 487.066 587.998 483.867 591.763C477.441 599.263 469.776 605.605 461.204 610.512C458.139 612.252 454.88 613.889 452.634 616.627C450.387 619.365 449.479 623.621 451.592 626.478C453.705 629.335 457.975 629.647 461.279 628.427C464.582 627.207 467.335 624.841 470.385 623.07C476.099 619.737 484.045 618.815 488.851 623.427C490.35 625.04 491.455 626.979 492.077 629.091C492.699 631.203 492.823 633.431 492.438 635.599C491.646 639.918 489.991 644.033 487.572 647.697C479.866 660.943 468.786 671.91 455.461 679.48C442.143 686.772 429.257 690.328 414.332 687.56" fill="#F5F5F5"/>
<path d="M418.381 669.6C420.354 654.286 423.206 639.098 426.922 624.112L429.779 612.312C430.716 608.428 431.654 604.589 432.755 600.899C434.98 593.817 437.593 586.862 440.582 580.067C443.394 573.55 446.296 567.449 449.049 561.78C451.801 556.11 454.495 550.872 457.143 546.215C461.278 538.828 465.995 531.782 471.249 525.145C473.109 522.794 474.612 521.023 475.639 519.833C476.13 519.267 476.532 518.821 476.815 518.479C477.097 518.136 477.231 518.032 477.246 518.047C477.138 518.219 477.019 518.383 476.889 518.538L475.758 519.937C474.776 521.157 473.318 522.913 471.502 525.338C466.363 532.041 461.732 539.119 457.649 546.513C455.045 551.185 452.397 556.423 449.659 562.092C446.921 567.761 444.064 573.862 441.281 580.38C438.318 587.175 435.735 594.13 433.544 601.212C432.398 604.887 431.475 608.651 430.568 612.58L427.711 624.395C424.003 639.35 421.136 654.502 419.125 669.779" fill="#E0E0E0"/>
<path d="M433.008 600.839C432.685 600.261 432.431 599.646 432.249 599.009C431.803 597.834 431.222 596.033 430.538 593.935C429.169 589.62 427.472 583.593 425.627 576.957C423.782 570.32 422.012 564.324 420.568 560.053C419.854 557.911 419.259 556.17 418.842 554.994C418.592 554.383 418.398 553.75 418.262 553.104C418.621 553.659 418.915 554.253 419.14 554.875C419.66 556.021 420.33 557.732 421.119 559.845C422.711 564.101 424.571 570.068 426.431 576.734C428.291 583.4 429.853 589.233 431.103 593.757C431.683 595.81 432.16 597.536 432.591 598.92C432.786 599.546 432.925 600.189 433.008 600.839Z" fill="#E0E0E0"/>
<path d="M488.287 580.513C487.569 580.813 486.821 581.038 486.055 581.183C484.567 581.555 482.529 582.091 479.97 582.835C474.836 584.323 467.827 586.525 460.194 589.352C452.561 592.179 445.76 595.051 440.85 597.253C438.41 598.34 436.46 599.277 435.106 599.917C434.426 600.287 433.714 600.596 432.979 600.839C433.594 600.365 434.257 599.956 434.958 599.619C436.267 598.89 438.187 597.878 440.597 596.643C445.403 594.292 452.189 591.331 459.837 588.489C466.365 586.047 473.015 583.946 479.761 582.195C482.35 581.51 484.463 581.064 485.936 580.781C486.71 580.619 487.497 580.529 488.287 580.513Z" fill="#E0E0E0"/>
<path d="M418.902 668.454C418.711 668.259 418.542 668.045 418.396 667.814L417.072 665.925C415.926 664.258 414.334 661.833 412.414 658.797C408.546 652.726 403.486 644.17 398.025 634.647C392.564 625.124 387.609 616.538 383.845 610.407L379.381 603.131L378.19 601.152C378.033 600.933 377.908 600.692 377.818 600.438C377.818 600.438 378.012 600.631 378.324 601.063C378.637 601.494 379.128 602.194 379.649 602.967C380.794 604.619 382.387 607.044 384.321 610.095C388.175 616.166 393.249 624.707 398.71 634.23C404.171 643.753 409.126 652.339 412.876 658.485L417.34 665.746C417.816 666.535 418.218 667.234 418.53 667.725C418.69 667.948 418.815 668.194 418.902 668.454Z" fill="#E0E0E0"/>
<path d="M490.593 631.18C490.384 631.363 490.148 631.513 489.894 631.626L487.825 632.727L480.147 636.73C473.66 640.123 464.761 644.899 454.941 650.122C445.12 655.345 436.177 660.121 429.645 663.365C426.371 664.987 423.693 666.341 421.848 667.13L419.616 668.112C419.371 668.242 419.111 668.342 418.842 668.41C419.055 668.231 419.29 668.081 419.541 667.963L421.624 666.862L429.302 662.844C435.775 659.467 444.673 654.69 454.494 649.452C464.315 644.215 473.273 639.468 479.79 636.224C483.064 634.602 485.742 633.248 487.587 632.459L489.73 631.477C490.001 631.334 490.292 631.234 490.593 631.18Z" fill="#E0E0E0"/>
<path d="M228.258 368.146C228.258 368.146 210.581 370.601 220.506 409.319C230.431 448.037 238.853 468.006 238.853 468.006C238.853 468.006 240.177 476.77 233.109 476.502C226.041 476.234 211.622 470.55 206.727 478.124C201.668 486.04 206.102 495.563 217.143 505.548C228.184 515.532 251.724 538.284 253.837 540.352C255.95 542.421 257.497 546.676 252.646 547.257C247.796 547.837 213.393 543.804 212.47 560.247C211.548 576.689 247.007 599.426 250.831 601.985C254.655 604.545 255.295 606.539 254.402 608.771C253.51 611.003 242.111 608.547 232.276 607.788C222.44 607.03 210.893 607.907 211.146 617.431C211.399 626.954 230.029 651.059 284.341 668.975L310.068 675.626L329.07 656.907C367.312 614.365 371.493 584.204 366.984 575.811C362.476 567.419 352.104 572.404 343.861 577.939C335.617 583.475 326.987 591.331 325.142 589.843C323.297 588.355 322.821 586.302 324.874 582.18C326.927 578.058 346.405 540.709 337.418 526.901C328.43 513.092 300.575 533.656 296.111 535.546C291.647 537.436 290.843 532.942 291.647 530.145C292.451 527.347 301.527 495.921 306.2 481.71C310.872 467.5 309.979 457.054 301.646 452.709C293.611 448.528 283.954 460.67 277.942 464.42C271.931 468.169 268.747 459.956 268.747 459.956C268.747 459.956 266.128 438.454 255.503 399.915C244.879 361.376 227.931 368.28 227.931 368.28" fill="#EBEBEB"/>
<path d="M310.054 682.025C302.361 653.753 289.519 603.161 278.285 559.726C267.051 516.291 256.843 477.127 249.284 448.766C245.504 434.6 242.439 423.143 240.356 415.182C239.314 411.239 238.496 408.158 237.93 406.045L237.306 403.665C237.172 403.129 237.127 402.846 237.127 402.846C237.127 402.846 237.231 403.099 237.395 403.635C237.558 404.171 237.782 404.989 238.079 406.001C238.689 408.114 239.567 411.164 240.668 415.092C242.9 422.994 246.055 434.436 249.894 448.602C257.587 476.874 267.899 516.172 279.133 559.518C290.368 602.863 303.105 653.5 310.664 681.861" fill="#E0E0E0"/>
<path d="M226.576 486.963C227.171 487.208 227.739 487.512 228.272 487.87C229.329 488.495 230.847 489.448 232.736 490.638C236.442 493.034 241.486 496.471 246.977 500.355L260.994 510.354L265.264 513.33C265.803 513.665 266.302 514.059 266.752 514.506C266.152 514.263 265.578 513.959 265.041 513.598C263.984 512.973 262.467 512.021 260.577 510.815C256.902 508.39 251.902 504.863 246.411 500.995L232.32 491.099L228.034 488.123C227.508 487.79 227.019 487.401 226.576 486.963Z" fill="#E0E0E0"/>
<path d="M268.91 513.271C268.717 513.152 275.339 502.453 283.686 489.373C292.034 476.294 298.983 465.789 299.176 465.908C299.37 466.027 292.748 476.74 284.386 489.82C276.023 502.899 269.104 513.36 268.91 513.271Z" fill="#E0E0E0"/>
<path d="M283.166 580.647C283.578 580.133 284.053 579.674 284.58 579.278L288.582 575.767C291.96 572.791 296.618 568.684 301.587 563.952C306.557 559.22 310.932 554.801 314.057 551.572C315.545 550.084 316.765 548.759 317.762 547.748C318.213 547.249 318.711 546.795 319.25 546.394C318.921 546.962 318.521 547.487 318.06 547.956C317.256 548.923 316.051 550.292 314.533 551.959C311.557 555.307 307.212 559.815 302.212 564.547C297.213 569.279 292.511 573.356 289.029 576.213C287.273 577.701 285.844 578.772 284.833 579.531C284.32 579.964 283.761 580.338 283.166 580.647Z" fill="#E0E0E0"/>
<path d="M239.643 565.276C240.243 565.348 240.833 565.493 241.398 565.708L246.115 567.196C250.073 568.461 255.534 570.261 261.546 572.285C267.557 574.308 272.989 576.213 276.902 577.627L281.53 579.323C282.106 579.503 282.66 579.748 283.181 580.052C282.58 579.991 281.99 579.851 281.426 579.635L276.709 578.147C272.751 576.883 267.29 575.082 261.278 573.044C255.267 571.005 249.835 569.115 245.922 567.717L241.294 566.005C240.713 565.838 240.158 565.592 239.643 565.276Z" fill="#E0E0E0"/>
<path d="M244.672 626.359C245.438 626.473 246.19 626.662 246.919 626.924L252.96 628.769C258.049 630.361 265.057 632.608 272.795 635.153C280.533 637.697 287.511 640.019 292.556 641.759L298.508 643.843C299.248 644.08 299.97 644.373 300.665 644.721C299.895 644.607 299.137 644.418 298.404 644.155L292.362 642.31C287.273 640.718 280.265 638.471 272.527 635.927C264.79 633.382 257.811 631.046 252.781 629.32L246.829 627.222C246.086 627 245.364 626.711 244.672 626.359Z" fill="#E0E0E0"/>
<path d="M299.445 643.902C299.969 643.259 300.552 642.666 301.186 642.131L306.112 637.504C310.263 633.59 315.977 628.159 322.122 621.984C328.268 615.809 333.699 610.08 337.598 605.914L342.21 600.973C342.753 600.342 343.346 599.755 343.981 599.218C343.548 599.917 343.049 600.575 342.493 601.182C341.481 602.417 339.964 604.158 338.029 606.3C334.235 610.586 328.878 616.389 322.703 622.564C316.528 628.739 310.799 634.126 306.513 637.935C304.371 639.825 302.63 641.358 301.395 642.399C300.788 642.954 300.136 643.456 299.445 643.902Z" fill="#E0E0E0"/>
<path d="M151.477 137.253L136.955 132.789C136.955 132.789 133.145 144.991 120.408 141.256C117.942 140.577 115.748 139.148 114.13 137.167C112.512 135.187 111.549 132.752 111.376 130.2C111.185 128.048 111.511 125.882 112.326 123.881C113.141 121.881 114.423 120.104 116.063 118.698C119.798 115.394 126.345 113.386 135.586 118.162L145.808 85.4261L131.449 80.9621L125.497 100.142C125.497 100.142 103.713 99.0562 96.7934 121.242C90.1718 142.476 107.671 153.353 115.825 155.898C122.015 157.832 143.755 162.951 151.477 137.253Z" fill="#F5F5F5"/>
<path d="M133.395 74.1485L147.969 78.6961L152.215 65.0882L137.641 60.5406L133.395 74.1485Z" fill="#F5F5F5"/>
<path d="M191.55 100.291L197.368 98.8032C197.191 98.1424 197.148 97.4527 197.242 96.7751C197.336 96.0974 197.566 95.4456 197.917 94.8584C198.268 94.2712 198.734 93.7606 199.286 93.357C199.839 92.9534 200.467 92.665 201.133 92.5089C202.102 92.2163 203.139 92.2324 204.098 92.555C205.058 92.8776 205.894 93.4907 206.49 94.3094C206.996 94.9892 207.333 95.779 207.476 96.6143C207.618 97.4496 207.56 98.3068 207.308 99.1157C206.758 101.005 204.987 103.059 200.88 103.401L204.347 116.51L210.091 115.022L208.067 107.344C210.245 106.031 211.931 104.037 212.864 101.671C213.797 99.3042 213.926 96.6967 213.23 94.2499C210.998 85.7385 202.814 85.7832 199.585 86.6313C197.086 87.2116 188.738 90.0537 191.55 100.291Z" fill="#EBEBEB"/>
<path d="M212.116 116.934L206.256 118.505L207.722 123.975L213.582 122.404L212.116 116.934Z" fill="#EBEBEB"/>
<path d="M671.891 250.892L677.545 252.93C677.782 252.29 678.145 251.704 678.613 251.206C679.08 250.708 679.642 250.309 680.266 250.031C680.89 249.754 681.563 249.604 682.246 249.591C682.928 249.578 683.607 249.701 684.241 249.954C685.193 250.261 686.028 250.854 686.63 251.653C687.232 252.452 687.572 253.418 687.604 254.418C687.639 255.272 687.471 256.121 687.114 256.897C686.757 257.673 686.221 258.353 685.55 258.882C684.062 260.117 681.399 260.787 677.828 258.733L673.2 271.486L678.795 273.509L681.503 266.069C684.043 266.227 686.564 265.546 688.679 264.132C690.795 262.718 692.388 260.649 693.214 258.242C696.19 249.969 689.479 245.371 686.309 244.225C683.884 243.273 675.402 240.877 671.891 250.892Z" fill="#EBEBEB"/>
<path d="M677.958 276.094L672.277 274.037L670.357 279.339L676.037 281.397L677.958 276.094Z" fill="#EBEBEB"/>
<path d="M71.8104 315.649L83.7144 311.037C83.7144 311.037 79.8456 300.993 90.2169 296.782C92.2019 295.942 94.3985 295.738 96.5039 296.199C98.6093 296.66 100.52 297.763 101.972 299.356C103.208 300.68 104.113 302.277 104.615 304.017C105.116 305.757 105.2 307.591 104.859 309.37C104.115 313.507 100.841 318.298 92.2257 319.95L102.642 346.927L114.546 342.374L108.445 326.571C108.445 326.571 123.325 315.887 116.346 297.585C109.576 280.086 92.2555 282.08 85.6041 284.654C80.4705 286.633 63.4478 294.624 71.8104 315.649Z" fill="#F5F5F5"/>
<path d="M116.802 347.865L104.791 352.492L109.113 363.712L121.124 359.084L116.802 347.865Z" fill="#F5F5F5"/>
<path d="M676.548 361.048L668.066 364.307C668.066 364.307 670.804 371.435 663.453 374.411C662.046 374.999 660.492 375.14 659.001 374.815C657.511 374.491 656.156 373.716 655.121 372.595C654.245 371.657 653.604 370.524 653.25 369.291C652.896 368.057 652.838 366.757 653.082 365.497C653.618 362.521 655.939 359.188 662.01 358.057L654.719 338.877L646.327 342.106L650.642 353.311C647.588 355.647 645.386 358.922 644.375 362.633C643.364 366.343 643.6 370.282 645.047 373.845C649.823 386.24 662.055 384.841 666.816 383.011C670.417 381.598 682.47 375.943 676.548 361.048Z" fill="#F5F5F5"/>
<path d="M644.666 338.219L653.178 334.94L650.118 326.998L641.606 330.277L644.666 338.219Z" fill="#F5F5F5"/>
<path d="M700.506 690.09C700.506 690.313 553.417 690.477 372.015 690.477C190.613 690.477 43.4941 690.313 43.4941 690.09C43.4941 689.867 190.553 689.703 372.015 689.703C553.476 689.703 700.506 689.881 700.506 690.09Z" fill="#263238"/>
<path d="M137.847 651.446C139.335 645.971 135.66 640.48 131.642 636.566C127.625 632.653 122.818 629.052 120.72 623.799C117.328 615.288 121.881 604.277 116.108 597.179C112.7 593.013 106.599 591.614 103.579 587.15C102.182 584.69 101.258 581.989 100.856 579.189C97.6448 565.052 90.691 552.039 80.7229 541.513C80.0509 554.105 82.7801 566.646 88.6242 577.82C90.9603 582.284 93.8471 586.629 94.5762 591.614C95.841 599.694 91.3175 607.982 93.3114 615.958C95.588 625.034 105.781 631.12 106.257 640.465C106.674 648.366 99.7842 655.345 100.305 663.202C100.722 666.566 101.942 669.781 103.861 672.576C109.962 682.739 118.95 689.733 132.55 689.509L149.216 690.09L137.847 651.446Z" fill="#FF4A4A"/>
<g opacity="0.3">
<path d="M137.847 651.446C139.335 645.971 135.66 640.48 131.642 636.566C127.625 632.653 122.818 629.052 120.72 623.799C117.328 615.288 121.881 604.277 116.108 597.179C112.7 593.013 106.599 591.614 103.579 587.15C102.182 584.69 101.258 581.989 100.856 579.189C97.6448 565.052 90.691 552.039 80.7229 541.513C80.0509 554.105 82.7801 566.646 88.6242 577.82C90.9603 582.284 93.8471 586.629 94.5762 591.614C95.841 599.694 91.3175 607.982 93.3114 615.958C95.588 625.034 105.781 631.12 106.257 640.465C106.674 648.366 99.7842 655.345 100.305 663.202C100.722 666.566 101.942 669.781 103.861 672.576C109.962 682.739 118.95 689.733 132.55 689.509L149.216 690.09L137.847 651.446Z" fill="black"/>
</g>
<path d="M152.579 690.432C154.105 690.668 155.661 690.637 157.177 690.343C159.018 690.063 160.827 689.604 162.578 688.974C164.998 688.133 167.26 686.896 169.274 685.313C170.486 684.339 171.433 683.075 172.027 681.638C172.525 680.028 172.786 678.353 172.801 676.668C172.835 674.866 172.969 673.068 173.203 671.282C173.516 669.38 174.204 667.559 175.226 665.925C177.191 662.473 180.464 659.199 181.506 654.512C182.547 649.825 181.833 644.914 181.059 639.914C180.286 634.915 179.571 629.498 181.446 624.261C183.321 619.023 186.892 614.336 188.723 608.473C190.553 602.61 189.69 596.152 190.077 589.858C190.191 586.661 190.929 583.517 192.249 580.603C193.588 577.627 195.463 574.874 196.921 571.779C199.897 565.5 200.403 558.387 201.207 551.408C201.609 547.897 201.996 544.34 202.397 540.769C202.651 537.158 203.274 533.583 204.257 530.1C205.386 526.589 206.718 523.146 208.245 519.788C209.032 518.052 209.679 516.256 210.18 514.417C210.46 512.513 210.639 510.596 210.715 508.673C210.893 504.823 210.743 500.965 210.269 497.141C209.822 493.302 209.123 489.493 208.706 485.639C208.706 485.401 208.706 485.177 208.706 484.969L208.617 484.21L207.948 484.537C204.429 486.343 201.374 488.935 199.02 492.111C196.71 495.222 194.852 498.644 193.499 502.274C190.717 509.432 189.72 516.931 188.321 524.089C186.922 531.246 185.137 538.284 181.476 544.236C179.646 547.212 177.429 549.92 175.524 552.807C173.456 555.624 172.043 558.867 171.387 562.3C170.39 569.354 174.274 575.544 173.471 581.793C173.108 584.855 172.093 587.803 170.495 590.438C169.007 593.102 167.206 595.572 165.51 598.042C163.79 600.465 162.296 603.04 161.046 605.735C159.869 608.373 159.173 611.2 158.992 614.083C158.591 619.707 159.379 625.034 158.992 630.064C158.528 634.858 157.127 639.514 154.871 643.768C152.862 647.86 150.615 651.565 148.74 655.166C147.803 656.952 146.925 658.708 146.21 660.479C145.535 662.179 145.036 663.944 144.722 665.746C144.224 668.893 144.184 672.096 144.603 675.254C145.041 679.659 146.689 683.856 149.365 687.382C149.774 687.914 150.227 688.412 150.719 688.87C151.048 689.215 151.412 689.524 151.805 689.792C152.43 690.254 152.758 690.462 152.758 690.462C151.568 689.522 150.485 688.454 149.529 687.278C146.974 683.74 145.431 679.573 145.065 675.225C144.686 672.106 144.756 668.949 145.273 665.85C145.586 664.091 146.085 662.371 146.761 660.717C147.515 658.927 148.364 657.178 149.305 655.479C151.195 651.908 153.457 648.217 155.51 644.096C157.835 639.774 159.281 635.036 159.766 630.153C160.213 625.02 159.439 619.663 159.855 614.187C160.047 611.397 160.727 608.662 161.864 606.107C163.122 603.468 164.616 600.948 166.328 598.578C168.025 596.108 169.825 593.638 171.373 590.915C173.071 588.179 174.157 585.108 174.557 581.912C175.36 575.261 171.506 569.041 172.503 562.479C173.156 559.196 174.522 556.097 176.506 553.402C178.396 550.56 180.628 547.852 182.458 544.801C186.253 538.686 188.083 531.514 189.467 524.327C190.85 517.14 191.877 509.7 194.615 502.676C195.932 499.146 197.74 495.82 199.987 492.796C202.252 489.747 205.19 487.262 208.573 485.534L207.814 485.103C207.814 485.326 207.814 485.549 207.888 485.787C208.305 489.686 209.004 493.495 209.376 497.305C209.846 501.07 209.99 504.868 209.808 508.658C209.732 510.52 209.563 512.378 209.302 514.223C208.821 516.003 208.194 517.74 207.427 519.416C205.891 522.809 204.55 526.287 203.409 529.832C202.417 533.37 201.789 537 201.534 540.665C201.147 544.251 200.746 547.807 200.359 551.319C199.555 558.327 199.034 565.321 196.192 571.377C194.704 574.353 192.919 577.195 191.535 580.231C190.173 583.254 189.415 586.514 189.303 589.828C188.931 596.257 189.764 602.551 188.023 608.235C186.282 613.919 182.666 618.651 180.836 624.023C179.006 629.394 179.676 635.078 180.479 640.063C181.283 645.048 182.086 649.958 181.015 654.378C179.943 658.797 176.878 662.101 174.884 665.642C173.833 667.347 173.13 669.244 172.816 671.222C172.591 673.029 172.472 674.847 172.459 676.668C172.461 678.311 172.22 679.946 171.745 681.519C171.193 682.882 170.308 684.084 169.17 685.016C167.21 686.596 165.003 687.843 162.638 688.706C160.909 689.372 159.12 689.871 157.296 690.194C156.181 690.396 155.051 690.506 153.918 690.521C152.981 690.432 152.579 690.432 152.579 690.432Z" fill="#263238"/>
<path d="M205.224 494.165C205.145 494.324 205.089 494.495 205.06 494.671L204.703 496.159C204.376 497.483 203.974 499.462 203.349 501.932C202.724 504.402 201.192 507.2 199.897 510.637C198.381 514.507 197.06 518.45 195.939 522.452C194.659 526.916 193.543 531.826 192.353 537.123C191.341 542.766 189.548 548.24 187.026 553.387C185.657 556.095 184.05 558.833 182.904 561.839C181.703 564.909 180.897 568.119 180.508 571.392C179.662 578.171 178.46 584.901 176.907 591.554C173.574 605.199 170.39 618.205 167.488 630.049C164.587 641.893 161.849 652.488 159.587 661.446C157.325 670.404 155.614 677.546 154.364 682.65C153.784 685.09 153.323 687.01 152.995 688.423C152.861 689.033 152.742 689.524 152.653 689.911C152.637 690.084 152.637 690.259 152.653 690.432C152.739 690.278 152.804 690.113 152.846 689.941C152.951 689.539 153.099 689.063 153.278 688.453C153.65 687.069 154.171 685.15 154.84 682.724C156.18 677.665 158.069 670.478 160.405 661.624C162.742 652.771 165.465 642.057 168.515 630.287C171.565 618.517 174.66 605.423 178.023 591.763C179.566 585.092 180.738 578.341 181.535 571.541C181.915 568.346 182.695 565.212 183.856 562.211C185.032 559.235 186.535 556.572 187.904 553.834C190.88 548.402 192.055 542.569 193.231 537.317C194.406 532.064 195.448 527.094 196.668 522.66C197.888 518.226 199.168 514.268 200.448 510.845C201.727 507.423 203.141 504.596 203.751 502.036C204.361 499.477 204.644 497.572 204.912 496.203C205.011 495.588 205.1 495.092 205.179 494.715C205.224 494.343 205.254 494.165 205.224 494.165Z" fill="#263238"/>
<path d="M155.526 690.506C166.403 684.034 169.528 664.392 164.989 652.577C160.451 640.763 152.505 629.96 151.285 617.356C150.333 607.669 153.517 597.73 151.285 588.266C148.235 575.484 135.765 565.589 135.914 552.45C135.988 545.084 140.185 538.15 139.842 530.784C139.441 521.767 132.506 514.595 128.221 506.649C121.644 494.462 121.213 480.073 118.966 466.473C116.719 452.873 111.526 438.201 99.4133 431.49C97.6277 443.082 94.5773 451.028 95.5296 466.726C95.8868 472.366 102.434 483.094 103.327 495.519C103.862 502.959 104.22 510.31 104.681 517.69C105.142 525.071 105.589 532.213 108.163 538.939C110.142 544.102 113.311 548.789 114.784 554.116C117.537 564.131 113.906 574.948 116.138 585.126C118.028 593.727 123.98 601.122 125.2 609.842C126.897 622.088 118.981 634.825 123.028 646.506C125.052 652.309 129.813 656.922 131.167 662.949C132.224 667.591 131.078 672.516 132.03 677.174C133.518 684.703 147.892 690.566 155.556 690.075" fill="#FF4A4A"/>
<path d="M102.388 442.933C102.368 443.151 102.368 443.37 102.388 443.588C102.388 444.079 102.537 444.704 102.626 445.492C102.879 447.174 103.162 449.629 103.727 452.813C104.293 455.998 105.989 459.599 107.299 463.944C108.608 468.289 110.066 473.258 111.287 478.824C112.507 484.389 113.578 490.594 114.664 497.245C115.751 503.896 116.941 511.143 120.244 518.077C121.732 521.544 123.488 525.026 124.708 528.746C125.958 532.554 126.728 536.503 127 540.501C127.608 548.985 128.676 557.429 130.199 565.797C133.532 582.969 136.702 599.322 139.588 614.217C142.475 629.112 145.377 642.399 147.698 653.649C150.019 664.898 151.924 673.886 153.248 680.224L154.736 687.441C154.915 688.215 155.049 688.825 155.168 689.301C155.208 689.519 155.268 689.734 155.346 689.941C155.373 689.724 155.373 689.504 155.346 689.286C155.257 688.795 155.153 688.185 155.019 687.397C154.691 685.67 154.23 683.23 153.65 680.135C152.4 673.781 150.674 664.705 148.427 653.5C146.18 642.295 143.517 628.859 140.555 614.023C137.594 599.188 134.603 582.775 131.255 565.619C129.732 557.25 128.659 548.806 128.041 540.323C127.758 536.242 126.963 532.212 125.675 528.329C124.351 524.55 122.61 521.053 121.078 517.601C117.804 510.771 116.614 503.643 115.483 497.022C114.352 490.4 113.266 484.18 111.971 478.585C110.676 472.991 109.263 467.991 107.805 463.705C106.346 459.42 104.724 455.789 104.07 452.679C103.415 449.569 103.103 447.07 102.79 445.418C102.641 444.644 102.522 444.019 102.433 443.528C102.43 443.329 102.415 443.13 102.388 442.933Z" fill="#263238"/>
<path d="M627.149 132.09H621.197C621.201 132.765 621.07 133.434 620.81 134.057C620.551 134.681 620.17 135.246 619.688 135.719C619.207 136.192 618.635 136.564 618.007 136.812C617.379 137.06 616.708 137.18 616.033 137.164C615.037 137.2 614.054 136.923 613.222 136.374C612.389 135.824 611.749 135.029 611.391 134.098C611.077 133.324 610.952 132.486 611.024 131.653C611.096 130.82 611.365 130.016 611.807 129.307C612.819 127.641 615.022 126.138 619.009 126.837V113.445H613.162V121.272C610.762 121.978 608.66 123.453 607.179 125.469C605.698 127.485 604.919 129.931 604.963 132.432C604.963 141.092 612.73 143.101 616.063 143.101C618.608 143.16 627.268 142.55 627.149 132.09Z" fill="#FF4A4A"/>
<path d="M613.116 110.737H619.053V105.187H613.116V110.737Z" fill="#FF4A4A"/>
<path d="M659.601 124.174C659.621 123.921 659.621 123.667 659.601 123.415C659.601 122.879 659.601 122.15 659.601 121.212C659.601 120.736 659.601 120.186 659.527 119.59C659.452 118.995 659.363 118.341 659.259 117.656C659.155 116.972 659.051 116.168 658.932 115.379L658.307 112.85C657.201 108.493 655.392 104.347 652.95 100.574C649.404 94.9861 644.624 90.2858 638.977 86.8344C633.33 83.3829 626.967 81.2722 620.377 80.6644C618.398 80.4896 616.41 80.4499 614.425 80.5454C613.429 80.5454 612.402 80.5454 611.449 80.7388L608.384 81.2001C604.178 81.9818 600.108 83.3702 596.302 85.3218C592.327 87.4248 588.675 90.0855 585.454 93.2231C582.157 96.5649 579.401 100.4 577.285 104.591C575.009 108.912 573.517 113.603 572.88 118.445C572.695 119.672 572.59 120.909 572.568 122.15C572.469 123.392 572.444 124.639 572.494 125.885C572.817 133.867 575.312 141.61 579.71 148.279V147.818C577.642 152.981 575.604 158.055 573.61 162.995L573.252 163.903L574.19 163.635L590.409 159.171L590.022 159.082C595.485 163.217 601.848 166.001 608.592 167.206C611.721 167.79 614.91 167.985 618.086 167.787C619.618 167.764 621.145 167.62 622.654 167.355L624.871 167.013C625.6 166.879 626.359 166.656 627.014 166.492C637.009 163.959 645.776 157.951 651.744 149.544C653.971 146.447 655.758 143.057 657.057 139.47C657.339 138.682 657.607 137.982 657.86 137.208C658.113 136.435 658.247 135.72 658.411 135.051C658.574 134.381 658.753 133.697 658.902 133.072C659.051 132.447 659.095 131.837 659.184 131.256C659.318 130.111 659.527 129.099 659.571 128.28C659.616 127.462 659.571 126.673 659.571 126.048C659.571 125.423 659.571 125.037 659.571 124.694C659.571 124.352 659.571 124.233 659.571 124.233C659.549 124.386 659.549 124.541 659.571 124.694C659.571 125.037 659.571 125.483 659.467 126.048C659.363 126.614 659.378 127.402 659.318 128.266C659.259 129.129 659.036 130.14 658.857 131.242C657.438 139.477 653.658 147.123 647.976 153.251C642.294 159.38 634.955 163.726 626.85 165.763C626.151 165.927 625.452 166.135 624.737 166.269L622.55 166.596C621.074 166.843 619.582 166.977 618.086 166.998C614.968 167.163 611.841 166.958 608.771 166.388C602.184 165.176 595.972 162.439 590.632 158.398L590.454 158.249H590.231L573.996 162.713L574.562 163.353L580.678 148.19L580.767 147.952L580.633 147.729C577.703 143.295 575.624 138.355 574.502 133.161C573.989 130.751 573.68 128.302 573.58 125.84C573.53 124.625 573.555 123.407 573.654 122.194C573.663 120.983 573.763 119.775 573.952 118.579C574.523 113.85 575.929 109.26 578.103 105.023C580.171 100.927 582.856 97.1733 586.064 93.8927C589.216 90.8125 592.794 88.2016 596.688 86.1402C600.41 84.2044 604.396 82.8257 608.518 82.0482L611.494 81.587C612.491 81.4382 613.488 81.453 614.47 81.3786C616.41 81.2864 618.353 81.3212 620.288 81.4828C626.77 82.0502 633.037 84.0872 638.614 87.439C644.191 90.7908 648.931 95.3693 652.474 100.827C654.929 104.534 656.768 108.614 657.92 112.909L658.589 115.409C658.723 116.198 658.842 116.897 658.961 117.641C659.08 118.385 659.17 118.98 659.274 119.576C659.378 120.171 659.348 120.706 659.393 121.183C659.393 122.105 659.512 122.834 659.556 123.37C659.528 123.639 659.543 123.91 659.601 124.174Z" fill="#263238"/>
<path d="M215.863 299.653H301.795C301.795 299.653 301.795 227.5 376.775 226.221C415.716 225.536 435.908 251.055 444.122 270.593C453.645 293.285 450.758 319.146 437.991 340.201C423.424 364.233 392.027 388.383 334.114 378.175L333.563 569.636H418.543V456.132C418.543 456.132 537.717 425.33 537.717 293.94C537.717 168.278 436.102 141.137 381.477 139.381C351.092 138.414 340.081 137.104 302.494 142.446C254.595 149.291 214.851 204.913 215.863 299.653Z" fill="#FF4A4A"/>
<path d="M419.571 609.544H333.326V690.09H419.571V609.544Z" fill="#FF4A4A"/>
<path opacity="0.1" d="M419.571 609.544H333.326V690.09H419.571V609.544Z" fill="black"/>
<path opacity="0.1" d="M215.863 299.653H301.795C301.795 299.653 301.795 227.5 376.775 226.221C415.716 225.536 435.908 251.055 444.122 270.593C453.645 293.285 450.758 319.146 437.991 340.201C423.424 364.233 392.027 388.383 334.114 378.175L333.563 569.636H418.543V456.132C418.543 456.132 537.717 425.33 537.717 293.94C537.717 168.278 436.102 141.137 381.477 139.381C351.092 138.414 340.081 137.104 302.494 142.446C254.595 149.291 214.851 204.913 215.863 299.653Z" fill="black"/>
<path d="M180.256 299.653H266.203C266.203 299.653 266.203 227.5 341.183 226.221C380.124 225.536 400.316 251.055 408.515 270.593C418.053 293.285 415.166 319.146 402.399 340.201C387.832 364.233 355.884 386.076 297.971 375.913V569.636H382.951V456.132C382.951 456.132 502.125 425.33 502.125 293.94C502.125 168.278 389.424 139.098 341.198 139.098C304.31 139.143 178.634 148.056 180.256 299.653Z" fill="#FF4A4A"/>
<path opacity="0.3" d="M180.256 299.653H266.203C266.203 299.653 266.203 227.5 341.183 226.221C380.124 225.536 400.316 251.055 408.515 270.593C418.053 293.285 415.166 319.146 402.399 340.201C387.832 364.233 355.884 386.076 297.971 375.913V569.636H382.951V456.132C382.951 456.132 502.125 425.33 502.125 293.94C502.125 168.278 389.424 139.098 341.198 139.098C304.31 139.143 178.634 148.056 180.256 299.653Z" fill="black"/>
<path d="M383.979 609.544H297.734V690.09H383.979V609.544Z" fill="#FF4A4A"/>
<path opacity="0.3" d="M383.979 609.544H297.734V690.09H383.979V609.544Z" fill="black"/>
<path d="M350.884 226.608C350.459 226.644 350.03 226.644 349.605 226.608C348.756 226.608 347.536 226.325 345.944 226.31C341.443 226.089 336.93 226.278 332.463 226.875C325.838 227.714 319.32 229.245 313.015 231.444C309.298 232.743 305.678 234.304 302.182 236.116C298.403 238.004 294.845 240.305 291.573 242.976C288.323 245.67 285.41 248.748 282.898 252.142C280.516 255.279 278.344 258.57 276.395 261.992C273.141 267.821 270.56 274.001 268.702 280.414C267.442 284.741 266.576 289.174 266.113 293.657C265.934 295.234 265.89 296.484 265.845 297.317C265.846 297.747 265.806 298.175 265.726 298.597C265.688 298.171 265.688 297.743 265.726 297.317C265.726 296.469 265.726 295.219 265.86 293.627C266.202 289.096 266.995 284.609 268.226 280.235C270.015 273.749 272.563 267.496 275.815 261.605C277.768 258.145 279.95 254.819 282.347 251.651C284.88 248.202 287.829 245.078 291.126 242.351C294.439 239.643 298.042 237.312 301.87 235.402C305.387 233.556 309.032 231.965 312.777 230.64C319.139 228.45 325.72 226.953 332.403 226.176C336.9 225.623 341.441 225.519 345.959 225.864C347.187 225.942 348.409 226.091 349.62 226.31C350.048 226.379 350.47 226.479 350.884 226.608Z" fill="#263238"/>
<path d="M480.371 211.296C480.371 211.296 480.267 211.192 480.088 210.969C479.91 210.746 479.642 210.359 479.344 209.927L476.502 205.91C475.892 205.046 475.238 204.05 474.464 203.023L471.785 199.764L468.72 195.999C467.604 194.69 466.295 193.425 464.985 192.041C463.676 190.658 462.337 189.184 460.819 187.771C459.301 186.357 457.679 184.914 456.013 183.426C455.179 182.682 454.361 181.938 453.468 181.149L450.7 178.962C448.811 177.474 446.936 175.986 444.897 174.498C436.012 168.141 426.587 162.574 416.729 157.862L408.888 154.321L401.105 151.345C398.561 150.288 395.972 149.544 393.472 148.711C390.972 147.878 388.532 147.029 386.032 146.449L378.919 144.589C376.613 143.979 374.321 143.607 372.134 143.101C369.947 142.595 367.834 142.149 365.765 141.896L359.813 141.033C356.049 140.393 352.597 140.259 349.591 139.961C348.103 139.842 346.615 139.679 345.38 139.619L341.838 139.53L336.928 139.366H335.648H335.217C335.36 139.344 335.505 139.344 335.648 139.366H336.928H341.838H345.395C346.689 139.366 348.103 139.545 349.621 139.649C352.597 139.902 356.108 140.006 359.873 140.616L365.825 141.42C367.893 141.658 370.006 142.193 372.208 142.595C374.411 142.997 376.672 143.414 379.038 144.083L386.181 145.928C388.651 146.494 391.091 147.416 393.621 148.175C396.15 148.934 398.725 149.663 401.269 150.794L409.096 153.77L416.982 157.326C426.891 162.049 436.354 167.657 445.254 174.081C447.308 175.569 449.183 177.161 451.072 178.634L453.84 180.643C454.733 181.387 455.551 182.131 456.385 182.935L461.176 187.399C462.664 188.887 464.003 190.375 465.328 191.729C466.652 193.083 467.917 194.407 469.033 195.732L472.009 199.526L474.657 202.829C475.416 203.871 476.056 204.883 476.651 205.805C477.812 207.546 478.72 208.915 479.359 209.897L480.059 210.984C480.176 211.074 480.281 211.179 480.371 211.296Z" fill="#263238"/>
<path d="M471.413 395.808C471.236 396.13 471.021 396.43 470.773 396.701L468.719 399.126C467.871 400.213 466.8 401.507 465.476 402.95C464.151 404.394 462.738 406.09 461.012 407.846C459.286 409.602 457.44 411.566 455.342 413.545C453.244 415.524 450.968 417.607 448.542 419.78C437.904 429.065 426.242 437.107 413.783 443.751C410.896 445.239 408.173 446.727 405.539 447.873C402.905 449.019 400.45 450.194 398.188 451.147C395.927 452.099 393.843 452.888 392.028 453.587C390.213 454.286 388.62 454.852 387.311 455.268L384.335 456.236C383.99 456.373 383.63 456.473 383.264 456.533C383.585 456.35 383.924 456.2 384.276 456.087L387.252 454.986C388.546 454.524 390.108 453.929 391.909 453.185C393.709 452.441 395.793 451.697 398.025 450.641C400.257 449.584 402.727 448.587 405.301 447.293C407.875 445.998 410.628 444.629 413.5 443.126C419.169 440.002 425.285 436.341 431.46 432.115C437.635 427.889 443.185 423.44 448.126 419.244C450.551 417.101 452.872 415.093 454.941 413.069C457.009 411.045 458.943 409.215 460.655 407.459C462.366 405.703 463.869 404.081 465.208 402.653C466.547 401.224 467.648 399.974 468.541 398.933L470.624 396.567C470.866 396.293 471.13 396.039 471.413 395.808Z" fill="#263238"/>
<path d="M381.449 562.881C381.225 562.881 381.047 538.983 381.047 509.506C381.047 480.029 381.225 456.117 381.449 456.117C381.672 456.117 381.836 480.014 381.836 509.506C381.836 538.998 381.657 562.881 381.449 562.881Z" fill="#263238"/>
<path d="M384.721 684.629C384.498 684.629 384.334 667.859 384.334 647.176C384.334 626.493 384.498 609.708 384.721 609.708C384.944 609.708 385.108 626.478 385.108 647.176C385.108 667.874 384.929 684.629 384.721 684.629Z" fill="#263238"/>
<path d="M469.315 288.241C467.827 291.217 473.377 293.657 476.576 294.624C479.84 295.425 483.218 295.657 486.561 295.309C491.025 295.07 495.593 294.654 499.447 292.452C502.822 290.361 505.52 287.337 507.214 283.747C508.885 280.168 510.206 276.435 511.157 272.602C511.157 272.602 475.996 274.893 469.315 288.241Z" fill="#FF4A4A"/>
<g opacity="0.4">
<path d="M469.315 288.241C467.827 291.217 473.377 293.657 476.576 294.624C479.84 295.425 483.218 295.657 486.561 295.309C491.025 295.07 495.593 294.654 499.447 292.452C502.822 290.361 505.52 287.337 507.214 283.747C508.885 280.168 510.206 276.435 511.157 272.602C511.157 272.602 475.996 274.893 469.315 288.241Z" fill="black"/>
</g>
<path d="M568.624 278.717C574.42 282.829 581.367 285.006 588.473 284.937C591.88 285.127 595.239 284.069 597.922 281.961C599.068 280.905 599.931 279.565 601.107 278.554C601.91 277.869 602.848 277.348 603.606 276.619C604.007 276.274 604.316 275.836 604.505 275.342C604.695 274.849 604.759 274.316 604.693 273.792C604.399 272.5 603.675 271.345 602.639 270.518C598.607 268.227 593.786 268.316 589.143 268.42C584.497 268.621 579.907 269.519 575.528 271.084C571.927 272.304 568.162 274.06 566.332 277.334" fill="#FF4A4A"/>
<g opacity="0.4">
<path d="M604.693 273.792C604.167 272.537 603.241 271.491 602.059 270.816C598.026 268.525 593.786 268.316 589.143 268.42C584.497 268.621 579.907 269.519 575.528 271.084C571.927 272.304 568.162 274.06 566.332 277.333L568.624 278.717C574.42 282.829 581.367 285.006 588.473 284.937C591.88 285.127 595.239 284.069 597.922 281.961C599.068 280.905 599.931 279.565 601.107 278.554C601.91 277.869 602.848 277.348 603.606 276.619C604.007 276.274 604.316 275.836 604.505 275.342C604.695 274.849 604.759 274.316 604.693 273.792Z" fill="black"/>
</g>
<path d="M499.968 332.122L574.144 333.104C574.295 333.103 574.444 333.068 574.579 332.999C574.714 332.931 574.831 332.832 574.92 332.711C575.01 332.589 575.07 332.449 575.095 332.3C575.121 332.151 575.111 331.998 575.067 331.854L566.362 304.713C566.362 304.713 567.642 291.142 569.413 274.834C572.106 250.058 575.692 218.915 575.737 219.004C570.662 204.779 540.724 202.368 540.724 202.368L506.604 204.392L505.414 202.383L495.593 206.951C493.451 207.948 491.391 209.112 489.433 210.433C482.945 214.763 467.321 224.718 464.464 235.803C457.872 261.471 469.032 290.115 469.032 290.115L476.204 284.506C478.011 283.114 479.91 281.846 481.888 280.711L496.262 319.236C495.407 319.775 494.683 320.498 494.142 321.353C493.602 322.207 493.258 323.172 493.138 324.176C493.019 327.301 494.626 331.05 499.968 332.122Z" fill="#FF4A4A"/>
<g opacity="0.3">
<path d="M531.797 286.708C534.148 274.06 532.913 261.055 531.648 248.258C527.541 258.674 527.69 270.578 523.33 280.905C522.795 281.995 522.405 283.151 522.169 284.342C522.056 284.94 522.085 285.557 522.256 286.141C522.427 286.726 522.734 287.262 523.151 287.705C524.342 288.791 526.127 288.196 527.705 288.017C529.117 287.748 530.491 287.308 531.797 286.708Z" fill="black"/>
</g>
<g opacity="0.4">
<path d="M504.432 315.992C510.384 318.06 516.722 314.206 523.017 313.522C527.183 313.075 531.349 314.028 535.486 314.697C543.851 316.05 552.361 316.261 560.782 315.322C562.074 315.251 563.339 314.922 564.502 314.355C565.103 313.945 565.595 313.395 565.935 312.752C566.274 312.108 566.452 311.392 566.451 310.665C552.434 309.177 538.432 308.373 524.415 306.93C520.926 306.334 517.353 306.451 513.91 307.272C509.684 308.582 506.47 311.9 503.494 315.188" fill="black"/>
</g>
<path d="M602.55 268.911C596.494 255.266 575.141 217.531 575.141 217.531L558.609 238.259L562.463 278.955C562.463 278.955 571.198 269.209 595.616 269.016C597.39 269.087 599.127 269.554 600.697 270.383C602.268 271.212 603.633 272.382 604.693 273.807L602.55 268.911Z" fill="#FF4A4A"/>
<path d="M503.286 261.695C502.107 258.802 501.171 255.815 500.489 252.767C499.564 249.797 498.887 246.756 498.465 243.675C499.627 246.573 500.557 249.558 501.247 252.603C502.172 255.573 502.854 258.614 503.286 261.695Z" fill="#263238"/>
<path d="M557.36 235.506C557.898 235.886 558.397 236.32 558.848 236.8C560.163 238.07 561.395 239.422 562.538 240.848C566.386 245.551 569.091 251.082 570.44 257.007C571.14 260.283 571.296 263.651 570.901 266.977C570.529 270.027 569.949 272.706 569.562 274.968C569.175 277.229 568.937 279.074 568.818 280.354C568.815 281.019 568.745 281.682 568.609 282.333C568.504 281.669 568.474 280.995 568.52 280.324C568.586 278.501 568.755 276.683 569.026 274.878C569.339 272.602 569.859 269.893 570.202 266.903C570.546 263.652 570.37 260.367 569.681 257.171C568.348 251.357 565.763 245.903 562.107 241.19C559.384 237.529 557.241 235.625 557.36 235.506Z" fill="#263238"/>
<path d="M542.212 328.848C541.695 329.078 541.15 329.239 540.59 329.324C539.955 329.492 539.308 329.616 538.656 329.696C537.897 329.8 537.034 329.964 536.067 330.009C533.8 330.217 531.519 330.217 529.252 330.009C526.478 329.724 523.738 329.176 521.068 328.372C518.411 327.518 515.841 326.417 513.39 325.083C511.403 323.974 509.516 322.695 507.75 321.259C506.976 320.664 506.351 320.039 505.786 319.518C505.298 319.079 504.836 318.612 504.402 318.12C503.988 317.737 503.633 317.295 503.346 316.81C503.45 316.706 505.042 318.492 508.092 320.828C509.874 322.184 511.76 323.398 513.732 324.458C516.155 325.732 518.684 326.792 521.291 327.628C523.915 328.418 526.604 328.976 529.326 329.294C531.55 329.534 533.788 329.603 536.022 329.503C539.846 329.294 542.183 328.729 542.212 328.848Z" fill="#263238"/>
<path d="M565.113 320.396C565.463 321.069 565.662 321.811 565.694 322.569C565.931 324.383 565.794 326.226 565.292 327.985C564.781 329.784 563.744 331.39 562.316 332.598C561.23 333.506 560.396 333.788 560.352 333.714C560.307 333.639 561.006 333.148 561.944 332.226C563.147 330.971 564.022 329.437 564.488 327.762C565.679 323.834 564.831 320.411 565.113 320.396Z" fill="#263238"/>
<path d="M561.08 325.634C561.403 327.164 561.274 328.756 560.709 330.214C560.143 331.672 559.166 332.935 557.896 333.848C557.732 333.684 559.116 332.211 559.979 329.934C560.842 327.658 560.857 325.649 561.08 325.634Z" fill="#263238"/>
<path d="M547.807 276.679C547.019 278.012 546.134 279.285 545.159 280.488C544.389 281.832 543.519 283.115 542.555 284.327C542.841 282.757 543.516 281.283 544.519 280.042C545.312 278.66 546.444 277.503 547.807 276.679Z" fill="#263238"/>
<path d="M496.887 240.639C495.753 239.974 494.655 239.249 493.598 238.467C488.306 234.99 482.3 232.748 476.025 231.905C474.711 231.809 473.404 231.635 472.111 231.384C473.429 231.202 474.766 231.202 476.084 231.384C482.531 231.934 488.705 234.234 493.94 238.035C495.038 238.763 496.03 239.639 496.887 240.639Z" fill="#263238"/>
<path d="M575.142 217.04C572.479 219.184 569.991 221.538 567.702 224.078C565.594 226.789 563.709 229.665 562.062 232.679C562.239 231.665 562.586 230.689 563.089 229.792C564.167 227.561 565.516 225.472 567.107 223.572C568.702 221.676 570.532 219.991 572.553 218.558C573.322 217.906 574.198 217.393 575.142 217.04Z" fill="#263238"/>
<path d="M544.519 204.779C544.654 204.993 544.764 205.223 544.846 205.463C545.136 206.137 545.37 206.834 545.545 207.546C546.173 210.198 546.173 212.959 545.545 215.611C544.619 219.57 542.5 223.148 539.474 225.864C535.655 229.099 530.789 230.834 525.785 230.744C520.776 230.761 515.896 229.159 511.872 226.176C508.666 223.728 506.065 220.577 504.268 216.965C503.058 214.547 502.206 211.966 501.739 209.302C501.602 208.585 501.513 207.859 501.471 207.13C501.429 206.873 501.429 206.612 501.471 206.356C501.471 206.356 501.635 207.397 502.051 209.243C502.63 211.831 503.545 214.332 504.774 216.683C506.589 220.185 509.167 223.236 512.318 225.611C516.196 228.482 520.886 230.045 525.71 230.075C530.534 230.163 535.229 228.516 538.939 225.432C541.862 222.816 543.935 219.386 544.891 215.581C545.553 213.014 545.644 210.332 545.159 207.725C544.876 205.761 544.429 204.808 544.519 204.779Z" fill="#263238"/>
<g opacity="0.3">
<path d="M549.727 279.313C549.727 278.569 549.608 277.691 548.953 277.319C548.745 277.214 548.516 277.159 548.283 277.159C548.051 277.159 547.822 277.214 547.614 277.319C547.198 277.544 546.829 277.847 546.528 278.211C544.778 280.032 543.425 282.195 542.555 284.565L549.846 283.925C549.801 282.422 549.771 280.845 549.727 279.313Z" fill="black"/>
</g>
<g opacity="0.3">
<path d="M573.936 263.971C573.203 259.799 571.375 255.896 568.639 252.662C571.793 262.959 570.737 268.777 568.966 275.831L569.353 274.849C571.391 270.727 574.487 268.138 573.936 263.971Z" fill="black"/>
</g>
<path d="M559.369 609.872L554.92 676.608L525.904 676.266L521.336 606.881L559.369 609.872Z" fill="#FFBE9D"/>
<path d="M555.738 667.829V669.764C555.738 669.764 588.474 682.918 588.786 689.108L523.775 688.751L524.787 667.13C534.474 671.668 544.607 672.234 555.738 667.829Z" fill="#FF4A4A"/>
<path d="M531.38 674.064C530.763 674.251 530.235 674.656 529.896 675.204C529.556 675.751 529.428 676.404 529.535 677.04C529.694 677.675 530.093 678.223 530.648 678.57C531.203 678.917 531.871 679.035 532.511 678.9C533.173 678.702 533.738 678.265 534.095 677.674C534.453 677.082 534.578 676.379 534.445 675.701C534.21 675.058 533.733 674.533 533.116 674.235C532.5 673.938 531.792 673.893 531.142 674.109" fill="white"/>
<path d="M523.775 688.751L524.013 683.558L586.271 685.819C586.271 685.819 589.158 687.099 588.816 689.123L523.775 688.751Z" fill="#263238"/>
<path d="M555.977 669.942C555.977 670.255 554.37 670.389 552.807 671.43C551.245 672.472 550.397 673.767 550.114 673.647C549.831 673.528 550.308 671.683 552.227 670.493C554.147 669.303 556.051 669.6 555.977 669.942Z" fill="#263238"/>
<path d="M562.777 672.799C562.851 673.112 561.467 673.633 560.381 674.972C559.295 676.311 558.982 677.725 558.655 677.71C558.328 677.695 558.149 675.894 559.533 674.272C560.917 672.65 562.762 672.576 562.777 672.799Z" fill="#263238"/>
<path d="M566.601 680.983C566.304 680.983 565.872 679.495 566.705 677.724C567.539 675.954 569.012 675.314 569.146 675.567C569.279 675.82 568.357 676.757 567.658 678.201C566.958 679.644 566.928 680.953 566.601 680.983Z" fill="#263238"/>
<path d="M554.071 121.793C555.753 117.626 553.714 112.582 550.098 109.889C546.288 107.38 541.641 106.477 537.168 107.374C532.755 108.299 528.482 109.8 524.46 111.838C522.59 109.952 520.232 108.623 517.65 107.999C515.068 107.375 512.363 107.481 509.838 108.305C507.313 109.129 505.067 110.639 503.35 112.666C501.633 114.693 500.514 117.158 500.116 119.784C498.508 119.379 496.819 119.42 495.231 119.902C493.644 120.384 492.218 121.289 491.106 122.521C489.994 123.752 489.238 125.263 488.92 126.891C488.601 128.519 488.732 130.203 489.299 131.762L509.416 138.83L531.379 177.518C534.625 180.288 538.768 181.781 543.034 181.721C547.3 181.661 551.399 180.05 554.565 177.19C557.731 174.33 559.749 170.416 560.241 166.177C560.733 161.939 559.667 157.667 557.241 154.157C558.471 153.063 559.517 151.776 560.336 150.348C562.091 149.31 563.622 147.933 564.841 146.298C566.059 144.664 566.941 142.803 567.434 140.824C569.383 132.209 562.717 122.805 554.071 121.793Z" fill="#263238"/>
<path d="M540.754 202.368C539.504 196.074 538.641 191.759 538.656 191.803C538.67 191.848 550.56 187.19 549.697 170.629C549.28 162.385 546.14 149.395 543.224 138.86C540.605 129.367 531.751 118.906 522.392 121.927L494.016 135.765C491.173 136.688 490.682 139.366 491.352 142.268V143.756L502.378 189.378L507.036 209.763C508.028 213.949 510.552 217.612 514.11 220.03C517.669 222.448 522.003 223.446 526.261 222.828C528.586 222.501 530.819 221.702 532.825 220.481C534.83 219.259 536.564 217.641 537.922 215.725C539.279 213.809 540.23 211.636 540.717 209.339C541.204 207.042 541.217 204.67 540.754 202.368Z" fill="#FFBE9D"/>
<path d="M543.119 149.871C543.238 150.399 543.15 150.953 542.874 151.418C542.597 151.883 542.152 152.224 541.631 152.371C541.368 152.445 541.093 152.464 540.822 152.428C540.552 152.393 540.291 152.303 540.056 152.164C539.821 152.025 539.617 151.84 539.455 151.62C539.294 151.399 539.178 151.149 539.116 150.883C538.997 150.357 539.085 149.805 539.362 149.343C539.64 148.88 540.084 148.542 540.604 148.398C540.866 148.322 541.141 148.301 541.411 148.334C541.682 148.368 541.943 148.457 542.178 148.595C542.413 148.732 542.618 148.917 542.78 149.136C542.941 149.356 543.057 149.606 543.119 149.871Z" fill="#263238"/>
<path d="M541.826 146.702C541.617 147.029 539.817 146.211 537.615 146.702C535.412 147.193 534.014 148.621 533.716 148.398C533.418 148.175 533.716 147.758 534.326 147.104C535.145 146.239 536.21 145.646 537.377 145.407C538.528 145.159 539.728 145.29 540.799 145.779C541.632 146.122 541.915 146.568 541.826 146.702Z" fill="#263238"/>
<path d="M521.514 154.752C521.633 155.278 521.544 155.83 521.267 156.292C520.99 156.755 520.546 157.093 520.026 157.237C519.769 157.312 519.5 157.335 519.234 157.305C518.968 157.275 518.71 157.193 518.476 157.063C518.243 156.932 518.037 156.757 517.871 156.547C517.705 156.337 517.583 156.096 517.511 155.838C517.392 155.31 517.479 154.757 517.756 154.292C518.033 153.826 518.478 153.485 518.999 153.338C519.257 153.264 519.527 153.241 519.794 153.272C520.061 153.303 520.318 153.387 520.552 153.519C520.787 153.65 520.992 153.827 521.157 154.039C521.322 154.25 521.443 154.493 521.514 154.752Z" fill="#263238"/>
<path d="M520.427 151.955C520.234 152.282 518.418 151.449 516.216 151.955C514.014 152.461 512.615 153.859 512.318 153.651C512.02 153.443 512.318 153.011 512.928 152.342C513.75 151.484 514.814 150.898 515.978 150.66C517.128 150.416 518.326 150.541 519.401 151.017C520.189 151.374 520.531 151.776 520.427 151.955Z" fill="#263238"/>
<path d="M531.632 165.942C532.723 165.34 533.882 164.87 535.084 164.543C535.634 164.365 536.155 164.141 536.17 163.74C536.092 163.148 535.838 162.593 535.441 162.147L532.867 158.189C529.266 152.55 526.528 147.878 526.751 147.773C526.974 147.669 530.084 152.089 533.685 157.728L536.2 161.716C536.694 162.326 536.962 163.088 536.959 163.874C536.914 164.088 536.823 164.289 536.692 164.464C536.561 164.639 536.393 164.783 536.2 164.885C535.909 165.039 535.598 165.155 535.277 165.228C534.1 165.631 532.874 165.871 531.632 165.942Z" fill="#263238"/>
<path d="M538.656 191.803C531.129 193.504 523.279 193.082 515.979 190.583C515.979 190.583 523.776 200.761 539.504 195.895L538.656 191.803Z" fill="#EB996E"/>
<path d="M520.8 148.8C520.651 149.44 518.374 149.425 515.785 150.065C513.196 150.705 511.143 151.672 510.726 151.166C510.547 150.928 510.845 150.303 511.634 149.678C512.682 148.795 513.927 148.178 515.264 147.877C516.59 147.563 517.971 147.563 519.297 147.877C520.353 148.071 520.904 148.502 520.8 148.8Z" fill="#263238"/>
<path d="M540.977 139.679C540.62 140.274 538.716 140.125 536.513 140.557C534.311 140.988 532.57 141.732 532.049 141.301C531.811 141.077 532.049 140.512 532.689 139.813C533.672 138.986 534.859 138.441 536.127 138.235C537.373 137.984 538.664 138.077 539.861 138.503C540.769 138.92 541.126 139.381 540.977 139.679Z" fill="#263238"/>
<path d="M501.024 125.111C501.353 126.723 502.033 128.243 503.016 129.562C503.999 130.881 505.26 131.968 506.711 132.745C508.161 133.522 509.764 133.97 511.407 134.057C513.05 134.145 514.692 133.869 516.216 133.25C518.567 132.298 521.008 130.513 523.389 131.376C525.769 132.239 526.751 135.631 529.028 136.896C532.376 138.771 536.468 135.527 540.203 135.854C543.179 136.107 545.426 138.384 547.732 140.318C550.039 142.253 553.223 143.711 555.827 142.312C555.231 139.827 554.347 137.42 553.193 135.14C552.03 132.845 550.104 131.025 547.747 129.992C546.438 129.471 545.024 129.292 543.774 128.653C541.081 127.284 539.876 124.189 537.926 121.852C536.646 120.38 535.033 119.234 533.222 118.51C531.411 117.785 529.453 117.503 527.51 117.686C524.296 118.013 521.246 119.635 518.002 119.501C515.606 119.397 513.315 118.326 510.919 118.37C506.262 118.37 502.765 122.537 500.176 126.421" fill="#263238"/>
<path d="M516.708 128.519C514.566 128.355 510.191 127.909 508.748 126.391C507.281 124.751 505.41 123.525 503.321 122.835C501.232 122.146 498.998 122.017 496.844 122.462C494.706 123.1 492.829 124.407 491.49 126.191C490.15 127.975 489.419 130.142 489.404 132.373C486.8 133.008 484.416 134.335 482.504 136.212C480.592 138.09 479.223 140.45 478.541 143.041C477.849 145.755 477.825 148.595 478.473 151.32C479.121 154.044 480.421 156.57 482.261 158.68C483.155 159.798 483.97 160.976 484.701 162.207C483.692 163.459 482.806 164.804 482.053 166.225C478.645 173.754 487.886 176.641 487.886 176.641C487.886 181.7 492.573 181.67 495.564 181.655C498.555 181.64 500.206 189.631 502.543 189.318L500.177 164.662C500.523 164.797 500.891 164.867 501.263 164.87C506.902 164.975 505.429 154.291 503.614 151.478C505.294 149.387 506.713 147.098 507.84 144.663C508.861 140.941 508.933 137.022 508.048 133.265C509.938 133.027 517.631 128.578 516.708 128.519Z" fill="#263238"/>
<path d="M500.92 165.972C500.727 165.188 500.34 164.466 499.793 163.873C499.247 163.28 498.559 162.834 497.794 162.579C497.029 162.323 496.211 162.266 495.418 162.411C494.624 162.557 493.881 162.901 493.256 163.412C491.768 164.692 490.98 166.835 491.873 170.421C494.283 180.003 503.405 175.614 503.345 175.346C503.286 175.078 501.961 169.93 500.92 165.972Z" fill="#FFBE9D"/>
<path d="M499.506 172.444C499.506 172.444 499.372 172.608 499.119 172.802C498.767 173.071 498.325 173.194 497.884 173.144C496.783 173.025 495.518 171.656 495.042 169.915C494.815 169.101 494.77 168.248 494.908 167.415C494.923 167.091 495.016 166.776 495.18 166.496C495.343 166.217 495.571 165.98 495.846 165.808C496.026 165.711 496.235 165.68 496.437 165.72C496.638 165.761 496.818 165.871 496.947 166.031C497.14 166.254 497.125 166.463 497.185 166.478C497.244 166.492 497.349 166.254 497.185 165.882C497.071 165.662 496.888 165.484 496.664 165.376C496.349 165.249 495.997 165.249 495.682 165.376C495.308 165.554 494.985 165.823 494.744 166.158C494.502 166.494 494.348 166.885 494.298 167.296C494.105 168.233 494.141 169.203 494.402 170.123C494.568 170.987 494.986 171.783 495.603 172.41C496.22 173.038 497.008 173.469 497.869 173.65C498.149 173.661 498.428 173.609 498.686 173.499C498.944 173.388 499.173 173.221 499.357 173.01C499.551 172.682 499.551 172.459 499.506 172.444Z" fill="#EB996E"/>
<path d="M552.301 152.594C552.301 152.594 553.179 151.925 554.399 150.437C556.083 148.293 557.116 145.71 557.375 142.997C557.572 141.144 557.39 139.271 556.84 137.491C556.204 135.45 555.026 133.619 553.432 132.194C551.591 130.586 549.363 129.488 546.966 129.008C544.57 128.527 542.09 128.682 539.772 129.456C539.326 129.605 538.909 129.828 538.493 130.007C538.076 130.185 537.704 130.453 537.317 130.676L536.722 131.003V130.349C536.709 129.196 536.281 128.087 535.517 127.224C534.733 126.387 533.772 125.736 532.704 125.319C530.683 124.477 528.444 124.31 526.321 124.843C522.214 125.781 518.732 127.655 515.443 128.042C512.865 128.491 510.211 127.96 508.003 126.554C507.421 126.153 506.916 125.649 506.515 125.066C506.277 124.665 506.158 124.441 506.188 124.427C506.727 125.161 507.386 125.8 508.137 126.316C510.31 127.57 512.862 127.998 515.324 127.522C517.038 127.199 518.713 126.701 520.324 126.034C522.215 125.278 524.154 124.646 526.127 124.144C527.228 123.878 528.359 123.762 529.49 123.802C530.684 123.865 531.857 124.137 532.957 124.605C534.095 125.091 535.111 125.823 535.933 126.748C536.813 127.755 537.309 129.041 537.332 130.379L536.737 130.051L537.972 129.337C538.433 129.158 538.865 128.92 539.341 128.757C541.784 127.92 544.405 127.745 546.937 128.249C549.47 128.754 551.823 129.92 553.759 131.628C555.433 133.143 556.658 135.089 557.301 137.253C557.969 139.547 558.059 141.97 557.563 144.306C557.067 146.643 556.001 148.821 554.459 150.645C553.969 151.204 553.414 151.704 552.807 152.133C552.658 152.307 552.488 152.462 552.301 152.594Z" fill="#455A64"/>
<path d="M550.367 118.951C549.39 118.455 548.348 118.099 547.272 117.894C546.041 117.726 544.789 117.843 543.611 118.237C542.086 118.703 540.761 119.667 539.847 120.974L539.475 121.495L539.251 120.9C538.474 119.071 537.224 117.482 535.628 116.297C534.033 115.112 532.15 114.374 530.175 114.159C527.072 114.043 524.014 114.93 521.455 116.689C519.275 118.11 516.957 119.307 514.536 120.26C512.867 120.892 511.069 121.106 509.298 120.885C508.826 120.798 508.363 120.669 507.914 120.498C507.617 120.364 507.453 120.29 507.468 120.26C507.483 120.23 508.137 120.454 509.343 120.573C511.054 120.68 512.768 120.4 514.357 119.754C516.71 118.728 518.966 117.493 521.098 116.064C522.415 115.246 523.81 114.563 525.264 114.025C526.862 113.443 528.57 113.224 530.264 113.386C532.374 113.616 534.383 114.414 536.075 115.696C537.768 116.977 539.082 118.693 539.876 120.662H539.296C540.319 119.264 541.78 118.247 543.448 117.775C544.714 117.408 546.049 117.342 547.346 117.582C548.167 117.738 548.953 118.04 549.667 118.475C549.922 118.599 550.157 118.76 550.367 118.951Z" fill="#455A64"/>
<path d="M530.768 170.346C530.421 170.056 530.016 169.842 529.58 169.719C529.144 169.596 528.687 169.566 528.239 169.632C527.715 169.744 527.22 169.965 526.787 170.28C526.354 170.595 525.992 170.998 525.724 171.462C525.724 171.462 525.65 171.537 525.635 171.581C525.43 171.921 525.336 172.317 525.367 172.712C525.432 173.143 525.601 173.552 525.861 173.902C526.12 174.252 526.462 174.533 526.855 174.721C527.484 175.04 528.196 175.157 528.894 175.055C529.592 174.954 530.241 174.64 530.754 174.156C531.24 173.642 531.512 172.962 531.515 172.254C531.518 171.546 531.251 170.864 530.768 170.346Z" fill="#FF4A4A"/>
<path d="M531.514 174.974C531.395 174.974 531.261 174.528 530.859 173.917C530.375 173.1 529.652 172.45 528.787 172.056C527.922 171.662 526.957 171.543 526.023 171.715C525.294 171.819 524.847 172.028 524.803 171.924C524.758 171.819 525.1 171.462 525.904 171.18C526.956 170.841 528.095 170.905 529.103 171.358C530.12 171.811 530.924 172.636 531.35 173.665C531.662 174.438 531.618 174.959 531.514 174.974Z" fill="#263238"/>
<path d="M501.143 176.819C501.143 176.819 501.575 177.563 501.009 178.694C500.689 179.371 500.126 179.902 499.432 180.182C498.999 180.337 498.535 180.389 498.078 180.335C497.621 180.281 497.183 180.122 496.798 179.869C496.407 179.631 496.075 179.306 495.83 178.919C495.585 178.532 495.433 178.093 495.385 177.637C495.34 176.902 495.556 176.175 495.995 175.584C496.769 174.602 497.632 174.572 497.632 174.661C497.632 174.751 496.977 175.004 496.456 175.896C496.155 176.397 496.029 176.983 496.099 177.563C496.155 177.903 496.283 178.226 496.476 178.511C496.668 178.796 496.921 179.036 497.215 179.215C497.505 179.4 497.832 179.523 498.173 179.574C498.514 179.626 498.862 179.604 499.194 179.512C499.743 179.316 500.217 178.951 500.548 178.471C501.128 177.548 501.024 176.819 501.143 176.819Z" fill="#FF4A4A"/>
<path d="M496.129 176.239C496.203 176.239 496.129 176.745 495.43 177.072C495.086 177.215 494.709 177.256 494.342 177.191C493.976 177.127 493.636 176.958 493.362 176.707C493.088 176.455 492.892 176.13 492.797 175.77C492.702 175.41 492.712 175.031 492.826 174.676C492.971 174.274 493.249 173.933 493.614 173.709C494.224 173.337 494.686 173.486 494.671 173.575C494.656 173.665 494.314 173.769 493.942 174.141C493.759 174.369 493.647 174.647 493.621 174.939C493.595 175.231 493.656 175.523 493.796 175.781C493.936 176.038 494.148 176.249 494.407 176.386C494.666 176.523 494.96 176.58 495.251 176.551C495.757 176.447 496.025 176.179 496.129 176.239Z" fill="#FF4A4A"/>
<path d="M512.481 308.388C512.481 308.388 549.324 310.531 571.108 310.724C587.967 310.888 595.497 306.409 598.86 295.562C601.687 286.47 595.616 269.016 595.616 269.016C584.203 269.016 577.164 270.652 569.829 274.09L571.778 282.065L512.377 287.184L512.481 308.388Z" fill="#FFBE9D"/>
<path d="M584.158 290.577C582.56 288.499 580.694 286.643 578.608 285.056C576.37 283.687 573.957 282.626 571.436 281.902C572.23 281.787 573.04 281.859 573.801 282.11C575.674 282.552 577.449 283.334 579.039 284.416C580.633 285.502 582.01 286.874 583.101 288.464C583.935 289.684 584.247 290.532 584.158 290.577Z" fill="#EB996E"/>
<path d="M499 274.03C499 274.03 487.602 276.768 479.225 282.363L488.153 306.558C491.129 314.504 500.22 318.462 507.497 314.295C518.701 307.882 522.659 289.193 522.659 289.193L534.965 235.803L514.565 223.021L499.075 274.03" fill="#FFBE9D"/>
<path d="M514.491 223.021L515.324 205.463L510.756 187.607C510.503 186.625 510.384 185.39 511.187 184.795C511.586 184.489 512.078 184.331 512.58 184.347C513.082 184.364 513.562 184.553 513.94 184.884C515.175 186.164 521.127 201.773 521.127 201.773C521.127 201.773 530.159 196.357 531.766 196.089C533.373 195.821 535.382 200.687 535.516 201.059C535.575 202.149 535.575 203.242 535.516 204.332C535.516 204.332 541.096 204.496 541.602 205.255C542.008 206.805 542.223 208.399 542.242 210.001C542.242 210.001 544.608 210.76 544.98 212.546C545.352 214.332 546.126 217.278 544.98 217.933C543.834 218.587 541.513 219.867 541.513 219.867C541.513 219.867 540.575 228.973 540.322 229.807C540.069 230.64 534.847 235.759 534.847 235.759L514.491 223.021Z" fill="#FFBE9D"/>
<path d="M495.504 314.653C495.504 314.653 496.054 314.98 497.215 315.352C498.912 315.884 500.708 316.027 502.468 315.769C505.295 315.365 507.943 314.145 510.086 312.257C512.919 309.687 515.311 306.671 517.169 303.329C518.263 301.364 519.184 299.308 519.922 297.183C520.696 294.846 521.337 292.466 521.842 290.056C523.002 285.041 524.267 279.64 525.606 273.896C528.285 262.424 531.29 249.597 534.534 235.774V235.67H534.609C535.635 234.658 536.662 233.631 537.689 232.56C538.195 232.024 538.701 231.488 539.177 230.938C539.415 230.655 539.668 230.372 539.861 230.09C540.012 229.809 540.098 229.499 540.114 229.182C540.516 226.206 540.828 223.126 541.156 220.016V219.822L541.334 219.733L544.176 218.141C544.385 218.007 544.712 217.858 544.846 217.739C544.988 217.61 545.083 217.437 545.114 217.248C545.183 216.754 545.183 216.254 545.114 215.76C544.97 214.669 544.746 213.59 544.444 212.531C543.938 211.605 543.088 210.916 542.078 210.612L541.825 210.522V210.269C541.825 209.406 541.736 208.514 541.632 207.636C541.591 207.196 541.527 206.759 541.438 206.326C541.404 206.136 541.344 205.95 541.26 205.776C541.26 205.671 541.26 205.776 541.171 205.686C541.09 205.644 541.005 205.609 540.918 205.582C539.128 205.192 537.303 204.988 535.472 204.972H535.085V204.585C535.085 203.663 535.085 202.636 535.085 201.609C535.023 201.259 534.902 200.922 534.728 200.612C534.579 200.255 534.4 199.913 534.222 199.556C533.873 198.867 533.465 198.209 533.002 197.592C532.791 197.304 532.535 197.052 532.243 196.848C532.135 196.756 532.002 196.699 531.862 196.683C531.721 196.667 531.58 196.694 531.454 196.758C530.734 197.034 530.033 197.357 529.356 197.726C526.588 199.214 523.88 200.702 521.231 202.309L520.845 202.547L520.681 202.13C519.282 198.603 517.883 195.122 516.514 191.714C515.83 190.003 515.16 188.292 514.476 186.61C514.37 186.233 514.161 185.894 513.871 185.631C513.582 185.368 513.224 185.191 512.839 185.122C512.483 185.004 512.098 185.011 511.747 185.14C511.395 185.27 511.098 185.516 510.905 185.836C510.719 186.156 510.641 186.526 510.682 186.893C510.682 187.22 510.89 187.726 510.979 188.128C511.217 188.991 511.44 189.839 511.664 190.687C512.11 192.398 512.542 194.08 512.988 195.746C513.861 199.099 514.719 202.373 515.562 205.567V205.671C515.265 211.782 514.982 217.635 514.714 223.23V223.2L501.158 267.304L497.334 279.58C496.888 280.964 496.546 282.05 496.307 282.809C496.069 283.568 495.921 283.896 495.921 283.896C495.921 283.896 495.995 283.509 496.203 282.78L497.141 279.521C498.004 276.649 499.239 272.498 500.801 267.2C504.015 256.546 508.583 241.339 514.104 223.007V223.081C514.362 217.506 514.625 211.653 514.893 205.523V205.627C514.044 202.428 513.166 199.154 512.289 195.821L510.949 190.762C510.726 189.914 510.503 189.05 510.265 188.202C510.137 187.757 510.033 187.305 509.952 186.848C509.897 186.332 510.007 185.811 510.265 185.36C510.54 184.896 510.965 184.539 511.47 184.348C511.97 184.202 512.498 184.186 513.006 184.3C513.513 184.415 513.983 184.657 514.372 185.003C514.745 185.353 515.022 185.794 515.175 186.283L517.214 191.387C518.598 194.809 519.981 198.291 521.395 201.803L520.845 201.609C523.508 200.032 526.186 198.455 529.014 196.982C529.728 196.608 530.464 196.275 531.216 195.985C531.451 195.887 531.707 195.851 531.96 195.88C532.215 195.917 532.458 196.009 532.674 196.148C533.033 196.405 533.349 196.717 533.612 197.071C534.109 197.722 534.543 198.42 534.906 199.154C535.1 199.526 535.278 199.883 535.442 200.255C535.654 200.649 535.795 201.077 535.858 201.52C535.858 202.576 535.858 203.558 535.858 204.496L535.486 204.094C537.399 204.107 539.305 204.326 541.171 204.749C541.299 204.794 541.423 204.848 541.543 204.913C541.706 205.002 541.84 205.136 541.93 205.299C542.045 205.541 542.13 205.796 542.182 206.058C542.272 206.534 542.331 206.981 542.391 207.442C542.48 208.35 542.54 209.243 542.584 210.135L542.316 209.778C542.925 209.957 543.491 210.257 543.979 210.662C544.468 211.066 544.869 211.565 545.158 212.129C545.485 213.26 545.723 214.414 545.873 215.582C545.976 216.177 545.976 216.786 545.873 217.382C545.808 217.743 545.618 218.069 545.337 218.305C545.093 218.468 544.84 218.617 544.578 218.751L541.751 220.224L541.944 219.941C541.602 223.051 541.29 226.102 540.873 229.122L540.784 229.703C540.749 229.938 540.652 230.159 540.501 230.342C540.282 230.668 540.038 230.977 539.772 231.265C539.266 231.83 538.76 232.381 538.284 232.917C537.257 233.988 536.23 235.015 535.189 236.027L535.293 235.848C532.019 249.657 528.984 262.483 526.261 273.956C524.907 279.685 523.612 285.086 522.422 290.086C521.913 292.514 521.257 294.909 520.458 297.258C519.692 299.402 518.746 301.478 517.63 303.463C515.73 306.848 513.281 309.895 510.384 312.48C508.177 314.38 505.461 315.591 502.572 315.962C500.774 316.203 498.944 316.02 497.23 315.426C496.794 315.266 496.371 315.072 495.965 314.846L495.504 314.653Z" fill="#EB996E"/>
<path d="M535.531 204.377C535.531 204.481 535.025 204.541 534.236 204.57C533.235 204.589 532.238 204.709 531.26 204.927C530.317 205.159 529.447 205.625 528.73 206.282C528.195 206.787 527.957 207.219 527.838 207.174C527.719 207.13 527.838 206.594 528.329 205.91C529.022 205.043 529.986 204.435 531.067 204.183C532.108 203.927 533.19 203.876 534.251 204.035C535.054 204.139 535.531 204.273 535.531 204.377Z" fill="#EB996E"/>
<path d="M531.215 204.54C531.022 204.466 531.007 204.005 531.215 203.514C531.423 203.023 531.721 202.68 531.915 202.755C532.108 202.829 532.138 203.291 531.915 203.782C531.691 204.273 531.364 204.615 531.215 204.54Z" fill="#EB996E"/>
<path d="M542.495 209.942C541.051 210.389 539.542 210.595 538.031 210.552C537.555 210.536 537.083 210.635 536.653 210.839C536.223 211.044 535.849 211.348 535.561 211.727C535.174 212.338 535.308 212.843 535.189 212.873C535.07 212.903 534.713 212.382 535.085 211.489C535.29 210.987 535.663 210.571 536.141 210.314C536.692 210.012 537.301 209.829 537.927 209.778C539.446 209.546 540.996 209.601 542.495 209.942Z" fill="#EB996E"/>
<path d="M541.512 215.299C541.721 215.299 541.84 216.4 541.78 217.754C541.721 219.108 541.497 220.179 541.289 220.179C541.081 220.179 540.947 219.063 541.006 217.709C541.066 216.355 541.289 215.284 541.512 215.299Z" fill="#EB996E"/>
<path d="M547.688 255.371L549.012 250.817C549.072 250.609 549.186 250.42 549.342 250.269C549.498 250.118 549.691 250.01 549.901 249.956C550.111 249.902 550.332 249.903 550.541 249.961C550.75 250.018 550.941 250.128 551.095 250.282L552.836 252.052L553.907 247.752C553.97 247.504 554.108 247.281 554.302 247.113C554.496 246.946 554.737 246.842 554.992 246.816C555.247 246.79 555.504 246.843 555.728 246.968C555.952 247.093 556.132 247.283 556.244 247.514L558.669 252.603L547.688 255.371Z" fill="white"/>
<path d="M558.699 254.552C557.034 255.357 555.267 255.927 553.446 256.249C551.685 256.824 549.851 257.144 548 257.201C551.426 255.825 555.027 254.933 558.699 254.552Z" fill="white"/>
<path d="M470.208 229.152C470.208 229.152 469.658 229.717 468.884 230.923C467.845 232.639 467.162 234.547 466.875 236.532C466.451 239.489 466.361 242.484 466.607 245.46C466.771 248.838 467.039 252.528 467.455 256.397C468.16 263.004 469.208 269.57 470.595 276.069C471.116 278.568 471.592 280.533 471.919 282.021C472.068 282.646 472.202 283.166 472.306 283.613C472.41 284.059 472.425 284.178 472.425 284.178C472.425 284.178 472.351 284 472.247 283.643C472.143 283.285 471.979 282.66 471.815 282.05C471.443 280.667 470.937 278.673 470.327 276.173C468.881 269.677 467.803 263.104 467.098 256.487C466.682 252.618 466.429 248.913 466.28 245.535C466.054 242.556 466.164 239.561 466.607 236.607C466.927 234.595 467.656 232.671 468.75 230.952C469.153 230.29 469.643 229.684 470.208 229.152Z" fill="white"/>
<path d="M501.529 208.885L501.187 209.064L500.205 209.54C499.357 209.942 498.122 210.537 496.649 211.355C492.809 213.497 489.079 215.831 485.474 218.349C481.218 221.325 477.454 224.033 474.701 225.997L471.442 228.304L470.534 228.914C470.433 228.995 470.323 229.065 470.207 229.122C470.292 229.022 470.392 228.937 470.505 228.869L471.368 228.215L474.567 225.819C477.29 223.81 481.04 221.013 485.295 218.096C488.907 215.568 492.663 213.252 496.545 211.162C498.033 210.373 499.283 209.808 500.16 209.436L501.157 209.019C501.455 208.915 501.455 208.871 501.529 208.885Z" fill="white"/>
<path d="M572.493 218.572C572.4 218.521 572.314 218.455 572.24 218.379L571.57 217.799C570.741 217.099 569.872 216.448 568.966 215.849C565.946 213.923 562.741 212.303 559.399 211.013C556.067 209.694 552.664 208.561 549.206 207.621C547.867 207.249 546.795 206.981 546.036 206.802L545.188 206.579C545.085 206.558 544.985 206.523 544.891 206.475H545.203L546.066 206.639C546.825 206.787 547.911 207.025 549.25 207.368C552.741 208.249 556.171 209.357 559.518 210.686C562.879 211.976 566.088 213.632 569.086 215.626C570.333 216.471 571.477 217.46 572.493 218.572Z" fill="white"/>
<path d="M501.947 332.151C501.746 332.116 501.55 332.05 501.367 331.958C500.85 331.731 500.352 331.462 499.879 331.154C499.078 330.674 498.378 330.04 497.822 329.29C497.265 328.539 496.862 327.686 496.635 326.78C496.227 324.95 496.431 323.036 497.216 321.334C497.442 320.805 497.732 320.305 498.079 319.846C498.317 319.533 498.48 319.384 498.495 319.399C498.089 320.034 497.726 320.695 497.409 321.378C496.717 323.05 496.556 324.894 496.948 326.661C497.374 328.405 498.435 329.927 499.924 330.931C501.159 331.824 501.977 332.092 501.947 332.151Z" fill="white"/>
<path d="M497.215 316.036C497.531 316.627 497.767 317.258 497.914 317.911C498.147 318.537 498.287 319.194 498.331 319.861C497.993 319.284 497.751 318.655 497.617 318.001C497.373 317.373 497.237 316.709 497.215 316.036Z" fill="white"/>
<path d="M517.333 649.661L562.717 649.438L561.898 492.528L561.467 332.91L499.968 332.122L488.912 352.954C484.388 361.329 481.505 370.49 480.415 379.946C479.671 387.178 485.088 410.688 486.963 416.64L503.881 470.297L517.333 649.661Z" fill="#263238"/>
<path d="M574.785 333.104L624.663 469.062C627.618 477.822 628.599 487.127 627.537 496.311C626.474 505.495 623.394 514.33 618.517 522.184L560.604 635.272L528.047 594.53L576.496 493.346L533.791 424.08L540.978 333.312L561.095 332.985L574.785 333.104Z" fill="#263238"/>
<path d="M557.33 378.651C557.33 378.651 557.33 378.89 557.33 379.351C557.33 379.812 557.405 380.526 557.464 381.404C557.568 383.234 557.702 385.868 557.881 389.276C558.223 396.165 558.699 406.06 559.369 418.277C560.038 430.493 560.604 445.061 561.348 461.28C561.705 469.375 562.092 477.871 562.479 486.68C562.761 491.144 562.642 495.608 562.687 500.072C562.732 504.536 562.687 509.238 562.687 513.911C562.687 551.304 562.806 585.156 562.851 609.693C562.851 621.925 562.851 631.835 562.851 638.724C562.851 642.132 562.851 644.78 562.851 646.625C562.851 647.488 562.851 648.113 562.851 648.679C562.851 649.244 562.851 649.378 562.851 649.378C562.851 649.378 562.851 649.14 562.851 648.679V646.625C562.851 644.78 562.851 642.161 562.761 638.724C562.761 631.835 562.642 621.939 562.553 609.708C562.449 585.171 562.315 551.319 562.166 513.926C562.166 509.253 562.166 504.64 562.166 500.087C562.166 495.534 562.255 491.04 561.973 486.695C561.601 477.901 561.229 469.405 560.886 461.31C560.202 445.12 559.577 430.553 559.071 418.292C558.565 406.031 558.193 396.18 557.91 389.291C557.791 385.898 557.702 383.249 557.643 381.404C557.643 380.526 557.643 379.916 557.643 379.351C557.643 378.785 557.33 378.651 557.33 378.651Z" fill="#455A64"/>
<path d="M556.184 335.782C556.358 336.261 556.463 336.762 556.496 337.27C556.66 338.222 556.838 339.606 557.047 341.332C557.434 344.77 557.85 349.546 558.088 354.829C558.326 360.111 558.341 364.902 558.267 368.369C558.267 370.095 558.163 371.509 558.088 372.476C558.103 372.978 558.043 373.48 557.91 373.964C557.722 372.106 557.658 370.236 557.716 368.369C557.716 364.902 557.553 360.141 557.315 354.858C557.076 349.576 556.749 344.829 556.496 341.466C556.284 339.579 556.18 337.681 556.184 335.782Z" fill="#455A64"/>
<path d="M546.184 338.847C546.258 338.952 545.41 339.338 545.172 340.544C545.105 340.871 545.124 341.209 545.225 341.527C545.327 341.845 545.508 342.131 545.752 342.359C546.047 342.633 546.414 342.816 546.809 342.888C547.205 342.959 547.613 342.915 547.984 342.761C548.341 342.577 548.639 342.297 548.844 341.952C549.049 341.608 549.153 341.213 549.145 340.812C549.131 340.479 549.033 340.155 548.858 339.871C548.683 339.587 548.439 339.352 548.148 339.19C547.543 338.897 546.868 338.778 546.199 338.847C546.199 338.847 546.348 338.654 546.734 338.535C547.292 338.399 547.88 338.456 548.401 338.699C548.816 338.871 549.176 339.156 549.439 339.522C549.701 339.887 549.857 340.318 549.889 340.767C549.948 341.321 549.832 341.88 549.557 342.364C549.282 342.849 548.862 343.235 548.356 343.468C547.85 343.701 547.283 343.77 546.736 343.664C546.189 343.559 545.689 343.285 545.306 342.88C544.99 342.565 544.766 342.17 544.658 341.738C544.55 341.305 544.564 340.851 544.696 340.425C544.845 339.868 545.182 339.379 545.648 339.041C545.946 338.833 546.169 338.803 546.184 338.847Z" fill="#455A64"/>
<path d="M522.377 336.154C522.596 336.623 522.732 337.127 522.778 337.642C523.018 338.978 523.063 340.341 522.912 341.69C522.698 343.697 522.118 345.649 521.201 347.448C520.093 349.686 518.453 351.617 516.424 353.073C514.395 354.528 512.04 355.463 509.565 355.796C507.584 356.092 505.566 356.016 503.613 355.573C502.292 355.286 501.019 354.81 499.833 354.159C499.385 353.947 498.974 353.666 498.613 353.326C500.258 354.066 501.973 354.639 503.732 355.037C505.848 355.477 508.033 355.473 510.148 355.027C512.263 354.58 514.262 353.699 516.02 352.441C517.777 351.183 519.255 349.574 520.359 347.715C521.464 345.857 522.171 343.79 522.436 341.645C522.611 339.818 522.591 337.977 522.377 336.154Z" fill="#455A64"/>
<path d="M580.766 349.189C579.795 349.301 578.812 349.184 577.894 348.847C575.646 348.139 573.628 346.844 572.046 345.097C570.451 343.357 569.356 341.218 568.877 338.907C568.643 337.964 568.643 336.978 568.877 336.035C569.011 336.035 569.026 337.121 569.472 338.788C570.075 340.941 571.172 342.925 572.675 344.58C574.178 346.236 576.047 347.518 578.132 348.326C579.68 348.936 580.781 349.04 580.766 349.189Z" fill="#455A64"/>
<path d="M598.488 495.757C597.742 496.608 596.85 497.318 595.854 497.855C594.81 498.518 593.671 499.02 592.477 499.343C590.974 499.741 589.388 499.7 587.908 499.224C585.309 498.244 583.082 496.475 581.54 494.165C580.831 493.297 580.246 492.335 579.799 491.308C580.602 492.074 581.33 492.917 581.971 493.823C583.552 495.918 585.685 497.531 588.132 498.48C589.381 498.813 590.684 498.889 591.963 498.702C593.242 498.516 594.47 498.07 595.572 497.394C596.512 496.793 597.485 496.246 598.488 495.757Z" fill="#455A64"/>
<path d="M587.12 504.432C585.361 502.611 583.791 500.617 582.433 498.48C580.868 496.491 579.502 494.353 578.355 492.097C580.126 493.911 581.702 495.906 583.058 498.049C584.635 500.026 585.997 502.166 587.12 504.432Z" fill="#455A64"/>
<path d="M510.875 383.904C510.666 383.978 510.146 383.13 509.684 381.984C509.223 380.839 509.03 379.872 509.223 379.782C509.416 379.693 509.952 380.556 510.398 381.702C510.845 382.848 511.068 383.904 510.875 383.904Z" fill="#FAFAFA"/>
<path d="M539.682 388.041C539.459 388.041 539.295 387.312 539.295 386.404C539.295 385.496 539.459 384.752 539.682 384.752C539.905 384.752 540.069 385.496 540.069 386.404C540.069 387.312 539.89 388.041 539.682 388.041Z" fill="#FAFAFA"/>
<path d="M527.838 403.694C527.629 403.694 527.391 402.802 527.317 401.656C527.242 400.51 527.317 399.588 527.555 399.573C527.793 399.558 528.016 400.466 528.09 401.611C528.165 402.757 528.046 403.68 527.838 403.694Z" fill="#FAFAFA"/>
<path d="M506.203 415.152C506.025 415.286 505.415 414.735 504.611 414.17C503.808 413.605 503.123 413.173 503.123 412.965C503.123 412.756 504.105 412.875 505.013 413.53C505.921 414.185 506.382 415.152 506.203 415.152Z" fill="#FAFAFA"/>
<path d="M544.339 429.749C544.16 429.63 544.339 428.99 544.845 428.261C545.351 427.532 545.812 427.116 545.991 427.235C546.169 427.354 545.991 428.008 545.485 428.723C544.979 429.437 544.517 429.868 544.339 429.749Z" fill="#FAFAFA"/>
<path d="M520.799 433.871C520.591 433.871 520.412 432.636 520.412 431.133C520.412 429.63 520.591 428.38 520.799 428.38C521.007 428.38 521.186 429.615 521.186 431.133C521.186 432.651 520.963 433.871 520.799 433.871Z" fill="#FAFAFA"/>
<path d="M513.092 450.566C512.973 450.73 512.199 450.388 511.366 449.778C510.533 449.168 509.878 448.543 510.071 448.364C510.265 448.186 510.979 448.543 511.812 449.153C512.645 449.763 513.226 450.388 513.092 450.566Z" fill="#FAFAFA"/>
<path d="M536.93 456.37C537.019 456.563 536.543 456.965 535.858 457.277C535.174 457.59 534.549 457.664 534.46 457.471C534.37 457.277 534.861 456.876 535.546 456.563C536.23 456.251 536.855 456.176 536.93 456.37Z" fill="#FAFAFA"/>
<path d="M520.8 483.6C520.621 483.689 519.847 482.544 519.088 481.026C518.33 479.508 517.868 478.199 518.062 478.05C518.255 477.901 519.029 479.106 519.773 480.624C520.517 482.142 520.934 483.436 520.8 483.6Z" fill="#FAFAFA"/>
<path d="M547.093 481.07C546.9 480.966 547.242 479.969 547.837 478.824C548.432 477.678 549.102 476.844 549.325 476.949C549.548 477.053 549.176 478.05 548.566 479.196C547.956 480.341 547.272 481.175 547.093 481.07Z" fill="#FAFAFA"/>
<path d="M535.561 504.12C535.338 504.12 535.367 502.914 535.129 501.516C534.891 500.117 534.534 499.001 534.742 498.897C534.951 498.793 535.665 499.849 535.903 501.397C536.141 502.944 535.769 504.164 535.561 504.12Z" fill="#FAFAFA"/>
<path d="M523.211 517.288C523.062 517.437 522.318 516.872 521.559 516.038C520.8 515.205 520.309 514.416 520.473 514.268C520.637 514.119 521.366 514.684 522.125 515.518C522.883 516.351 523.374 517.14 523.211 517.288Z" fill="#FAFAFA"/>
<path d="M553.179 522.288C553.03 522.139 553.58 521.336 554.414 520.488C555.247 519.639 556.021 519.089 556.184 519.238C556.348 519.386 555.783 520.205 554.964 521.038C554.146 521.871 553.342 522.437 553.179 522.288Z" fill="#FAFAFA"/>
<path d="M535.947 542.004C535.739 542.004 535.739 540.829 535.947 539.46C536.156 538.091 536.483 537.019 536.706 537.049C536.929 537.079 536.914 538.21 536.706 539.579C536.498 540.948 536.156 542.034 535.947 542.004Z" fill="#FAFAFA"/>
<path d="M524.356 551.572C524.163 551.676 523.508 550.902 522.868 549.846C522.228 548.789 521.901 547.852 522.08 547.748C522.258 547.644 522.913 548.403 523.568 549.459C524.222 550.515 524.535 551.453 524.356 551.572Z" fill="#FAFAFA"/>
<path d="M552.286 563.64C552.42 563.818 551.661 564.577 550.589 565.336C549.518 566.095 548.581 566.571 548.447 566.392C548.313 566.214 549.087 565.455 550.143 564.696C551.2 563.937 552.167 563.476 552.286 563.64Z" fill="#FAFAFA"/>
<path d="M529.012 579.308C528.804 579.234 529.012 578.043 529.206 576.555C529.399 575.067 529.28 573.847 529.504 573.818C529.727 573.788 530.114 575.038 529.965 576.63C529.816 578.222 529.206 579.398 529.012 579.308Z" fill="#FAFAFA"/>
<path d="M538.313 601.807C538.135 601.941 537.51 601.435 536.9 600.676C536.29 599.917 535.947 599.188 536.111 599.054C536.275 598.92 536.9 599.426 537.51 600.185C538.12 600.944 538.477 601.673 538.313 601.807Z" fill="#FAFAFA"/>
<path d="M528.15 616.895C527.972 617.014 527.153 616.136 526.32 614.916C525.487 613.696 524.966 612.625 525.13 612.506C525.293 612.386 526.127 613.264 526.96 614.485C527.793 615.705 528.329 616.776 528.15 616.895Z" fill="#FAFAFA"/>
<path d="M556.14 597.953C555.946 597.878 555.961 597.328 556.14 596.733C556.318 596.137 556.72 595.691 556.928 595.765C557.137 595.84 557.107 596.39 556.928 597.001C556.75 597.611 556.348 598.042 556.14 597.953Z" fill="#FAFAFA"/>
<path d="M543.79 633.888C543.596 633.784 543.968 632.727 544.266 631.403C544.563 630.079 544.668 628.963 544.891 628.948C545.114 628.933 545.337 630.138 545.025 631.567C544.712 632.995 543.968 634.007 543.79 633.888Z" fill="#FAFAFA"/>
<path d="M551.823 403.932C551.63 404.022 551.154 403.427 550.767 402.593C550.38 401.76 550.216 401.016 550.41 400.927C550.603 400.837 551.079 401.433 551.466 402.266C551.853 403.099 552.046 403.843 551.823 403.932Z" fill="#FAFAFA"/>
<path d="M531.215 357.596C531.335 357.775 530.293 358.608 529.177 359.798C528.061 360.989 527.302 362.09 527.109 361.986C526.915 361.882 527.421 360.498 528.597 359.278C529.772 358.057 531.067 357.403 531.215 357.596Z" fill="#FAFAFA"/>
<path d="M549.562 357.12C549.338 357.12 548.996 356.272 548.475 355.26C547.955 354.248 547.478 353.415 547.642 353.266C547.806 353.117 548.609 353.772 549.13 354.903C549.651 356.034 549.755 357.001 549.562 357.12Z" fill="#FAFAFA"/>
<path d="M492.274 372.164C492.08 372.074 492.274 371.092 492.735 369.961C493.196 368.831 493.702 367.953 493.911 368.042C494.119 368.131 493.911 369.098 493.449 370.244C492.988 371.39 492.527 372.238 492.274 372.164Z" fill="#FAFAFA"/>
<path d="M494.135 394.632C493.986 394.796 493.138 394.32 492.23 393.561C491.322 392.802 490.742 392.073 490.831 391.895C490.921 391.716 491.828 392.207 492.736 392.966C493.644 393.725 494.269 394.469 494.135 394.632Z" fill="#FAFAFA"/>
<path d="M531.721 339.755C531.528 339.755 531.111 339.279 530.813 338.52C530.516 337.761 530.427 337.032 530.62 337.032C530.813 337.032 531.23 337.508 531.528 338.267C531.825 339.026 531.915 339.681 531.721 339.755Z" fill="#FAFAFA"/>
<path d="M567.715 350.736C567.507 350.736 567.522 349.799 567.715 348.743C567.909 347.686 568.295 346.853 568.504 346.897C568.712 346.942 568.697 347.85 568.504 348.906C568.31 349.963 567.923 350.781 567.715 350.736Z" fill="#FAFAFA"/>
<path d="M576.168 367.744C575.975 367.655 576.243 366.554 576.778 365.259C577.314 363.965 577.894 362.998 578.088 363.072C578.281 363.146 578.088 364.262 577.493 365.557C576.897 366.852 576.377 367.819 576.168 367.744Z" fill="#FAFAFA"/>
<path d="M570.141 381.464C569.947 381.553 569.233 380.526 568.549 379.172C567.864 377.818 567.477 376.613 567.671 376.524C567.864 376.434 568.564 377.461 569.248 378.815C569.933 380.169 570.334 381.36 570.141 381.464Z" fill="#FAFAFA"/>
<path d="M583.028 395.183C582.835 395.109 583.028 394.246 583.356 393.264C583.683 392.282 584.204 391.537 584.412 391.612C584.62 391.686 584.412 392.549 584.085 393.531C583.757 394.513 583.296 395.257 583.028 395.183Z" fill="#FAFAFA"/>
<path d="M571.51 408.62C571.332 408.739 570.871 408.337 570.499 407.742C570.127 407.147 569.948 406.551 570.141 406.432C570.335 406.313 570.766 406.715 571.153 407.325C571.54 407.935 571.689 408.516 571.51 408.62Z" fill="#FAFAFA"/>
<path d="M573.966 436.356C573.817 436.49 572.879 435.761 571.897 434.689C570.915 433.618 570.246 432.651 570.409 432.502C570.573 432.353 571.496 433.097 572.478 434.169C573.46 435.24 574.129 436.207 573.966 436.356Z" fill="#FAFAFA"/>
<path d="M589.07 420.42C588.906 420.554 588.087 419.81 587.254 418.738C586.421 417.667 585.885 416.714 586.049 416.581C586.213 416.447 587.031 417.206 587.864 418.262C588.698 419.318 589.248 420.301 589.07 420.42Z" fill="#FAFAFA"/>
<path d="M597.357 442.397C597.163 442.308 597.506 441.192 598.116 439.912C598.726 438.633 599.366 437.651 599.604 437.74C599.842 437.829 599.47 438.96 598.86 440.24C598.25 441.519 597.55 442.501 597.357 442.397Z" fill="#FAFAFA"/>
<path d="M579.74 460.491C579.546 460.596 578.862 459.777 577.909 458.899C576.957 458.021 576.079 457.411 576.168 457.188C576.258 456.965 577.389 457.367 578.43 458.334C579.472 459.301 579.918 460.387 579.74 460.491Z" fill="#FAFAFA"/>
<path d="M580.839 479.136C580.839 479.344 580.095 479.523 579.188 479.523C578.28 479.523 577.551 479.344 577.551 479.136C577.551 478.928 578.28 478.749 579.188 478.749C580.095 478.749 580.839 478.928 580.839 479.136Z" fill="#FAFAFA"/>
<path d="M598.949 473.928C598.755 473.824 599.142 472.886 599.425 471.726C599.707 470.565 599.827 469.553 600.05 469.538C600.273 469.524 600.511 470.61 600.184 471.904C599.856 473.199 599.112 474.047 598.949 473.928Z" fill="#FAFAFA"/>
<path d="M616.94 480.193C616.747 480.267 616.196 479.21 615.72 477.856C615.244 476.502 615.021 475.342 615.214 475.282C615.408 475.223 615.973 476.249 616.449 477.603C616.925 478.957 617.148 480.118 616.94 480.193Z" fill="#FAFAFA"/>
<path d="M614.068 505.786C613.889 505.682 614.35 504.432 615.094 502.989C615.838 501.545 616.582 500.459 616.806 500.563C617.029 500.667 616.538 501.917 615.779 503.346C615.02 504.774 614.261 505.92 614.068 505.786Z" fill="#FAFAFA"/>
<path d="M597.655 520.8C597.462 520.874 596.852 519.848 596.286 518.494C595.721 517.14 595.438 515.979 595.647 515.89C595.855 515.8 596.45 516.842 597.001 518.196C597.551 519.55 597.849 520.8 597.655 520.8Z" fill="#FAFAFA"/>
<path d="M579.472 526.618C579.472 526.826 578.847 527.005 578.088 527.005C577.329 527.005 576.719 526.826 576.719 526.618C576.719 526.41 577.344 526.231 578.088 526.231C578.832 526.231 579.472 526.41 579.472 526.618Z" fill="#FAFAFA"/>
<path d="M589.886 550.56C589.693 550.56 589.276 549.742 588.964 548.611C588.651 547.48 588.592 546.498 588.8 546.453C589.008 546.409 589.41 547.272 589.723 548.403C590.035 549.533 590.095 550.441 589.886 550.56Z" fill="#FAFAFA"/>
<path d="M576.718 542.525C576.54 542.421 576.718 541.721 577.209 540.962C577.7 540.204 578.191 539.683 578.37 539.787C578.548 539.891 578.37 540.605 577.879 541.364C577.388 542.123 576.912 542.644 576.718 542.525Z" fill="#FAFAFA"/>
<path d="M576.451 568.877C576.243 568.877 575.945 567.88 575.797 566.586C575.648 565.291 575.692 564.235 575.901 564.205C576.109 564.175 576.407 565.202 576.555 566.497C576.704 567.791 576.66 568.848 576.451 568.877Z" fill="#FAFAFA"/>
</g>
<defs>
<clipPath id="clip0_498_1551">
<rect width="744" height="744" fill="white"/>
</clipPath>
</defs>
</svg>
